M48
INCH
T87C0.040
T86C0.050
T85C0.032
T84C0.079
T83C0.042
T82C0.028
T81C0.030
T80C0.071
T79C0.065
%
T82
G05
X004000Y010950
X003000Y010950
X002000Y010950
X002000Y007950
X003000Y007950
X004000Y007950
X003950Y005250
X003950Y004250
X003950Y003250
X003950Y002250
X005000Y010950
X005000Y007950
X006950Y002250
X006950Y003250
X006950Y004250
X006950Y005250
T81
X002200Y016150
X004000Y016150
X004000Y012150
X002200Y012150
X023100Y018900
X023100Y017900
X006950Y011650
X006950Y008650
X006250Y012150
X006250Y008150
X009650Y005250
X009650Y004250
X012200Y003250
X016200Y003250
X016050Y002350
X012550Y005500
X016550Y005500
X025750Y007000
X020050Y002350
X029750Y007000
X016250Y019750
X020250Y019750
X019950Y018100
X020000Y016670
X020000Y013500
X021000Y013500
X021200Y016000
X022200Y016000
X015950Y018100
X016000Y016670
X001650Y003250
X001650Y002250
T85
X027050Y019700
X028050Y019700
T87
X029100Y005250
X025800Y005250
X029100Y004250
X025800Y004250
X025800Y003250
X025800Y002250
X025800Y001250
X029100Y003250
X029100Y002250
X029100Y001250
T83
X023300Y021000
X021300Y021000
X022300Y021000
T86
X009750Y010750
X010750Y010750
X009750Y008550
X019550Y006350
X020550Y006350
X022900Y008550
X022900Y007550
X020580Y008550
X011600Y020750
X018250Y015000
T79
X002200Y023750
X004200Y023750
T80
X003200Y018750
X003200Y017250
X001350Y018750
X005050Y018750
X005050Y017250
X001350Y017250
T84
X026050Y021700
X030050Y021700
M30
