G04 start of page 5 for group 2 layer_idx 5 *
G04 Title: (unknown), top_mask *
G04 Creator: pcb-rnd 2.0.1 *
G04 CreationDate: 2018-11-08 18:27:00 UTC *
G04 For:  *
G04 Format: Gerber/RS-274X *
G04 PCB-Dimensions: 316500 250000 *
G04 PCB-Coordinate-Origin: lower left *
%MOIN*%
%FSLAX25Y25*%
%LNTOPMASK*%
%ADD58C,0.0860*%
%ADD57C,0.2060*%
%ADD56C,0.0780*%
%ADD55C,0.0660*%
%ADD54C,0.0610*%
%ADD53C,0.0001*%
%ADD52C,0.1110*%
G54D52*X22000Y237500D03*
G54D53*G36*
X26450Y193050D02*X37550D01*
Y181950D01*
X26450D01*
Y193050D01*
G37*
G36*
X18950Y164550D02*X25050D01*
Y158450D01*
X18950D01*
Y164550D01*
G37*
G36*
X36950D02*X43050D01*
Y158450D01*
X36950D01*
Y164550D01*
G37*
G54D54*X40000Y121500D03*
G54D52*X32000Y172500D03*
G54D55*X40000Y109500D03*
X30000D03*
X20000D03*
G54D54*X22000Y121500D03*
G54D55*X20000Y79500D03*
X30000D03*
X40000D03*
G54D53*G36*
X36200Y55800D02*X42800D01*
Y49200D01*
X36200D01*
Y55800D01*
G37*
G54D55*X39500Y42500D03*
Y32500D03*
Y22500D03*
G54D53*G36*
X209100Y213900D02*X216900D01*
Y206100D01*
X209100D01*
Y213900D01*
G37*
G54D56*X223000Y210000D03*
X233000D03*
G54D57*X260500Y217000D03*
X300500D03*
G54D58*X270500Y197000D03*
X280500D03*
G54D53*G36*
X234300Y185700D02*X227700D01*
Y192300D01*
X234300D01*
Y185700D01*
G37*
G54D55*X231000Y179000D03*
G54D53*G36*
X294200Y143300D02*X300800D01*
Y136700D01*
X294200D01*
Y143300D01*
G37*
G54D55*X297500Y130000D03*
Y120000D03*
G54D54*Y161000D03*
G54D55*Y110000D03*
Y100000D03*
G54D53*G36*
X233300Y89800D02*Y81200D01*
X224700D01*
Y89800D01*
X233300D01*
G37*
G54D58*X229000Y75500D03*
G54D53*G36*
X275200Y143300D02*X281800D01*
Y136700D01*
X275200D01*
Y143300D01*
G37*
G54D55*X210000Y135000D03*
G54D53*G36*
X215300Y163300D02*Y156700D01*
X208700D01*
Y163300D01*
X215300D01*
G37*
G54D55*X222000Y160000D03*
G54D53*G36*
X254450Y164050D02*X260550D01*
Y157950D01*
X254450D01*
Y164050D01*
G37*
G54D55*X278500Y130000D03*
Y120000D03*
Y110000D03*
Y100000D03*
G54D52*X42000Y237500D03*
X13500Y187500D03*
X50500D03*
Y172500D03*
G54D53*G36*
X46700Y112800D02*X53300D01*
Y106200D01*
X46700D01*
Y112800D01*
G37*
G54D55*X50000Y79500D03*
G54D53*G36*
X72550Y119550D02*Y113450D01*
X66450D01*
Y119550D01*
X72550D01*
G37*
G54D54*X69500Y86500D03*
G54D53*G36*
X65550Y124550D02*Y118450D01*
X59450D01*
Y124550D01*
X65550D01*
G37*
G54D54*X62500Y81500D03*
G54D53*G36*
X99800Y49200D02*X93200D01*
Y55800D01*
X99800D01*
Y49200D01*
G37*
G54D55*X96500Y42500D03*
X69500Y22500D03*
Y32500D03*
Y42500D03*
Y52500D03*
G54D53*G36*
X118950Y35550D02*X125050D01*
Y29450D01*
X118950D01*
Y35550D01*
G37*
G54D54*X162000Y32500D03*
G54D53*G36*
X157450Y26550D02*X163550D01*
Y20450D01*
X157450D01*
Y26550D01*
G37*
G54D54*X200500Y23500D03*
G54D53*G36*
X191200Y67800D02*X199800D01*
Y59200D01*
X191200D01*
Y67800D01*
G37*
G54D58*X205500Y63500D03*
X205800Y85500D03*
G54D53*G36*
X159450Y200550D02*X165550D01*
Y194450D01*
X159450D01*
Y200550D01*
G37*
G36*
X111700Y211800D02*X120300D01*
Y203200D01*
X111700D01*
Y211800D01*
G37*
G54D54*X202500Y197500D03*
X199500Y181000D03*
G54D53*G36*
X203300Y138300D02*Y131700D01*
X196700D01*
Y138300D01*
X203300D01*
G37*
G54D54*X200000Y166700D03*
G54D53*G36*
X178200Y154300D02*X186800D01*
Y145700D01*
X178200D01*
Y154300D01*
G37*
G36*
X162550Y184050D02*Y177950D01*
X156450D01*
Y184050D01*
X162550D01*
G37*
G36*
X163050Y169750D02*Y163650D01*
X156950D01*
Y169750D01*
X163050D01*
G37*
G36*
X127050Y111950D02*X120950D01*
Y118050D01*
X127050D01*
Y111950D01*
G37*
G54D54*X164000Y115000D03*
G54D53*G36*
X93200Y111800D02*X101800D01*
Y103200D01*
X93200D01*
Y111800D01*
G37*
G54D58*X107500Y107500D03*
G54D53*G36*
X93200Y89800D02*X101800D01*
Y81200D01*
X93200D01*
Y89800D01*
G37*
G54D52*X13500Y172500D03*
G54D53*G36*
X19800Y29200D02*X13200D01*
Y35800D01*
X19800D01*
Y29200D01*
G37*
G54D55*X16500Y22500D03*
M02*
