G04 start of page 3 for group 3 layer_idx 0 *
G04 Title: (unknown), top_copper *
G04 Creator: pcb-rnd 2.0.1 *
G04 CreationDate: 2018-11-08 18:27:00 UTC *
G04 For:  *
G04 Format: Gerber/RS-274X *
G04 PCB-Dimensions: 316500 250000 *
G04 PCB-Coordinate-Origin: lower left *
%MOIN*%
%FSLAX25Y25*%
%LNTOP*%
%ADD30C,0.0500*%
%ADD29C,0.0380*%
%ADD28C,0.0320*%
%ADD27C,0.0790*%
%ADD26C,0.0420*%
%ADD25C,0.0280*%
%ADD24C,0.0300*%
%ADD23C,0.0710*%
%ADD22C,0.0650*%
%ADD21C,0.0800*%
%ADD20C,0.2000*%
%ADD19C,0.0720*%
%ADD18C,0.0600*%
%ADD17C,0.0550*%
%ADD16C,0.0001*%
%ADD15C,0.1050*%
%ADD14C,0.0400*%
%ADD13C,0.0100*%
%ADD12C,0.0250*%
G54D12*X22000Y161500D02*Y179000D01*
G54D13*X62000Y211500D02*X86000D01*
G54D12*X40000Y177000D02*X50500Y187500D01*
G54D14*X22000Y237500D02*X45000D01*
X66000Y216500D01*
G54D13*X86000Y211500D02*Y191500D01*
G54D12*X40000Y161500D02*Y177000D01*
Y161500D02*Y162000D01*
G54D14*X66000Y216500D02*X89500D01*
X98500Y207500D01*
X300500Y216000D02*X260000D01*
G54D12*X280500Y197000D02*Y157500D01*
G54D14*X263000Y201000D02*X266500Y204500D01*
X288000D01*
X297500Y195000D01*
X300500Y216000D02*Y211500D01*
X307000Y205000D01*
Y109500D02*X297500Y100000D01*
Y195000D02*Y140000D01*
X307000Y205000D02*Y109500D01*
X278500Y140000D02*X268000Y129500D01*
X278500Y140000D02*X297500D01*
X278500Y100000D02*X297500D01*
G54D12*X22000Y179000D02*X13500Y187500D01*
G54D14*X40000Y79500D02*Y66500D01*
G54D12*X51500Y42500D02*X39500D01*
X61500Y32500D02*X51500Y42500D01*
X122000Y32500D02*X61500D01*
G54D14*X39500Y22500D02*X16500D01*
X122500Y42500D02*X156500Y8500D01*
X122500Y42500D02*X64000D01*
X40000Y66500D02*X64000Y42500D01*
X96500Y52500D02*X131500D01*
X98500Y207500D02*X146500D01*
G54D12*X97500Y85500D02*X101000D01*
X124000Y108500D01*
Y115000D01*
G54D14*X160500Y23500D02*X131500Y52500D01*
G54D12*X30000Y109500D02*X42000Y97500D01*
X85500D01*
X97500Y85500D01*
X244000Y32500D02*X257500Y46000D01*
X244000Y32500D02*X162000D01*
G54D14*X156500Y8500D02*X201000D01*
G54D12*X192000Y75500D02*X229000D01*
G54D14*X201000Y8500D02*X216000Y23500D01*
G54D12*X280500Y157500D02*X257500Y134500D01*
Y46000D01*
G54D14*X268000Y129500D02*Y95500D01*
G54D12*X205800Y85500D02*X229000D01*
X164000Y115000D02*Y103500D01*
X192000Y75500D01*
G54D14*X268000Y95500D02*X287500Y76000D01*
Y31000D01*
X280000Y23500D01*
X216000D01*
X263000Y201000D02*X246000D01*
X231000Y189000D02*X234000D01*
X246000Y201000D02*X234000Y189000D01*
X231000D02*X233000Y210000D01*
X260000Y216000D02*X241000Y235000D01*
X160000Y166700D02*X160800D01*
X162500Y197500D02*X200300Y166700D01*
X160000D02*X165800D01*
X202500Y197500D02*X213000Y210000D01*
X202500Y197500D02*X199500Y181000D01*
X200300Y166700D02*X212000Y160000D01*
X200000Y135000D02*X197500D01*
X165800Y166700D02*X197500Y135000D01*
X223000Y210000D02*X212000Y160000D01*
X146500Y207500D02*X174000Y235000D01*
X241000D01*
G54D13*X64495Y203510D02*Y199550D01*
X64000Y203510D02*X65980D01*
X66475Y203015D01*
Y202025D01*
X65980Y201530D02*X66475Y202025D01*
X64495Y201530D02*X65980D01*
X67663Y203510D02*Y200045D01*
X68158Y199550D01*
X70633Y201530D02*X71128Y201035D01*
X69643Y201530D02*X70633D01*
X69148Y201035D02*X69643Y201530D01*
X69148Y201035D02*Y200045D01*
X69643Y199550D01*
X71128Y201530D02*Y200045D01*
X71623Y199550D01*
X69643D02*X70633D01*
X71128Y200045D01*
X73306Y201035D02*Y199550D01*
Y201035D02*X73801Y201530D01*
X74296D01*
X74791Y201035D01*
Y199550D01*
X72811Y201530D02*X73306Y201035D01*
X76474Y199550D02*X77959D01*
X75979Y200045D02*X76474Y199550D01*
X75979Y201035D02*Y200045D01*
Y201035D02*X76474Y201530D01*
X77464D01*
X77959Y201035D01*
X75979Y200540D02*X77959D01*
Y201035D01*
X79642Y199550D02*X81127D01*
X81622Y200045D01*
X81127Y200540D02*X81622Y200045D01*
X79642Y200540D02*X81127D01*
X79147Y201035D02*X79642Y200540D01*
X79147Y201035D02*X79642Y201530D01*
X81127D01*
X81622Y201035D01*
X79147Y200045D02*X79642Y199550D01*
X76000Y197015D02*Y194045D01*
Y197015D02*X76495Y197510D01*
X77485D01*
X77980Y197015D01*
Y194045D01*
X77485Y193550D02*X77980Y194045D01*
X76495Y193550D02*X77485D01*
X76000Y194045D02*X76495Y193550D01*
X79168Y197510D02*Y193550D01*
Y195035D02*X80653Y193550D01*
X79168Y195035D02*X80158Y196025D01*
X68000Y186890D02*Y182450D01*
Y186890D02*Y186335D01*
X70775Y183560D01*
Y186890D02*Y182450D01*
X72107Y184115D02*Y183005D01*
Y184115D02*X72662Y184670D01*
X73772D01*
X74327Y184115D01*
Y183005D01*
X73772Y182450D02*X74327Y183005D01*
X72662Y182450D02*X73772D01*
X72107Y183005D02*X72662Y182450D01*
X75659Y184670D02*Y183005D01*
X76214Y182450D01*
X76769D01*
X77324Y183005D01*
Y184670D02*Y183005D01*
X77879Y182450D01*
X78434D01*
X78989Y183005D01*
Y184670D02*Y183005D01*
X82874Y184115D02*Y182450D01*
Y184115D02*X83429Y184670D01*
X83984D01*
X84539Y184115D01*
Y182450D01*
X82319Y184670D02*X82874Y184115D01*
X86426Y182450D02*X88091D01*
X85871Y183005D02*X86426Y182450D01*
X85871Y184115D02*Y183005D01*
Y184115D02*X86426Y184670D01*
X87536D01*
X88091Y184115D01*
X85871Y183560D02*X88091D01*
Y184115D01*
X89423Y184670D02*Y183005D01*
X89978Y182450D01*
X90533D01*
X91088Y183005D01*
Y184670D02*Y183005D01*
X91643Y182450D01*
X92198D01*
X92753Y183005D01*
Y184670D02*Y183005D01*
X97748Y184670D02*X98303Y184115D01*
X96638Y184670D02*X97748D01*
X96083Y184115D02*X96638Y184670D01*
X96083Y184115D02*Y183005D01*
X96638Y182450D01*
X98303Y184670D02*Y183005D01*
X98858Y182450D01*
X96638D02*X97748D01*
X98303Y183005D01*
X100745Y184115D02*Y182450D01*
Y184115D02*X101300Y184670D01*
X101855D01*
X102410Y184115D01*
Y182450D01*
X100190Y184670D02*X100745Y184115D01*
X105962Y186890D02*Y182450D01*
X105407D02*X105962Y183005D01*
X104297Y182450D02*X105407D01*
X103742Y183005D02*X104297Y182450D01*
X103742Y184115D02*Y183005D01*
Y184115D02*X104297Y184670D01*
X105407D01*
X105962Y184115D01*
X109292Y185780D02*Y185225D01*
Y184115D02*Y182450D01*
X110957Y184115D02*Y182450D01*
Y184115D02*X111512Y184670D01*
X112067D01*
X112622Y184115D01*
Y182450D01*
Y184115D02*X113177Y184670D01*
X113732D01*
X114287Y184115D01*
Y182450D01*
X110402Y184670D02*X110957Y184115D01*
X116174D02*Y180785D01*
X115619Y184670D02*X116174Y184115D01*
X116729Y184670D01*
X117839D01*
X118394Y184115D01*
Y183005D01*
X117839Y182450D02*X118394Y183005D01*
X116729Y182450D02*X117839D01*
X116174Y183005D02*X116729Y182450D01*
X120281Y184115D02*Y182450D01*
Y184115D02*X120836Y184670D01*
X121946D01*
X119726D02*X120281Y184115D01*
X123278D02*Y183005D01*
Y184115D02*X123833Y184670D01*
X124943D01*
X125498Y184115D01*
Y183005D01*
X124943Y182450D02*X125498Y183005D01*
X123833Y182450D02*X124943D01*
X123278Y183005D02*X123833Y182450D01*
X126830Y184670D02*Y183560D01*
X127940Y182450D01*
X129050Y183560D01*
Y184670D02*Y183560D01*
X130937Y182450D02*X132602D01*
X130382Y183005D02*X130937Y182450D01*
X130382Y184115D02*Y183005D01*
Y184115D02*X130937Y184670D01*
X132047D01*
X132602Y184115D01*
X130382Y183560D02*X132602D01*
Y184115D01*
X136154Y186890D02*Y182450D01*
X135599D02*X136154Y183005D01*
X134489Y182450D02*X135599D01*
X133934Y183005D02*X134489Y182450D01*
X133934Y184115D02*Y183005D01*
Y184115D02*X134489Y184670D01*
X135599D01*
X136154Y184115D01*
X68000Y176170D02*Y174505D01*
X68555Y173950D01*
X69110D01*
X69665Y174505D01*
Y176170D02*Y174505D01*
X70220Y173950D01*
X70775D01*
X71330Y174505D01*
Y176170D02*Y174505D01*
X72662Y177280D02*Y176725D01*
Y175615D02*Y173950D01*
X74327Y178390D02*Y174505D01*
X74882Y173950D01*
X73772Y176725D02*X74882D01*
X75992Y178390D02*Y173950D01*
Y175615D02*X76547Y176170D01*
X77657D01*
X78212Y175615D01*
Y173950D01*
X81542Y178390D02*Y174505D01*
X82097Y173950D01*
X83762D02*X85427D01*
X83207Y174505D02*X83762Y173950D01*
X83207Y175615D02*Y174505D01*
Y175615D02*X83762Y176170D01*
X84872D01*
X85427Y175615D01*
X83207Y175060D02*X85427D01*
Y175615D01*
X87314Y173950D02*X88979D01*
X89534Y174505D01*
X88979Y175060D02*X89534Y174505D01*
X87314Y175060D02*X88979D01*
X86759Y175615D02*X87314Y175060D01*
X86759Y175615D02*X87314Y176170D01*
X88979D01*
X89534Y175615D01*
X86759Y174505D02*X87314Y173950D01*
X91421D02*X93086D01*
X93641Y174505D01*
X93086Y175060D02*X93641Y174505D01*
X91421Y175060D02*X93086D01*
X90866Y175615D02*X91421Y175060D01*
X90866Y175615D02*X91421Y176170D01*
X93086D01*
X93641Y175615D01*
X90866Y174505D02*X91421Y173950D01*
X97526Y175615D02*Y173950D01*
Y175615D02*X98081Y176170D01*
X98636D01*
X99191Y175615D01*
Y173950D01*
Y175615D02*X99746Y176170D01*
X100301D01*
X100856Y175615D01*
Y173950D01*
X96971Y176170D02*X97526Y175615D01*
X103853Y176170D02*X104408Y175615D01*
X102743Y176170D02*X103853D01*
X102188Y175615D02*X102743Y176170D01*
X102188Y175615D02*Y174505D01*
X102743Y173950D01*
X104408Y176170D02*Y174505D01*
X104963Y173950D01*
X102743D02*X103853D01*
X104408Y174505D01*
X107960Y176170D02*X108515Y175615D01*
X106850Y176170D02*X107960D01*
X106295Y175615D02*X106850Y176170D01*
X106295Y175615D02*Y174505D01*
X106850Y173950D01*
X107960D01*
X108515Y174505D01*
X106295Y172840D02*X106850Y172285D01*
X107960D01*
X108515Y172840D01*
Y176170D02*Y172840D01*
X109847Y177280D02*Y176725D01*
Y175615D02*Y173950D01*
X111512Y176170D02*X113177D01*
X110957Y175615D02*X111512Y176170D01*
X110957Y175615D02*Y174505D01*
X111512Y173950D01*
X113177D01*
X117062D02*X118727D01*
X119282Y174505D01*
X118727Y175060D02*X119282Y174505D01*
X117062Y175060D02*X118727D01*
X116507Y175615D02*X117062Y175060D01*
X116507Y175615D02*X117062Y176170D01*
X118727D01*
X119282Y175615D01*
X116507Y174505D02*X117062Y173950D01*
X121169Y175615D02*Y173950D01*
Y175615D02*X121724Y176170D01*
X122279D01*
X122834Y175615D01*
Y173950D01*
Y175615D02*X123389Y176170D01*
X123944D01*
X124499Y175615D01*
Y173950D01*
X120614Y176170D02*X121169Y175615D01*
X125831D02*Y174505D01*
Y175615D02*X126386Y176170D01*
X127496D01*
X128051Y175615D01*
Y174505D01*
X127496Y173950D02*X128051Y174505D01*
X126386Y173950D02*X127496D01*
X125831Y174505D02*X126386Y173950D01*
X129383Y178390D02*Y173950D01*
Y175615D02*X131048Y173950D01*
X129383Y175615D02*X130493Y176725D01*
X132935Y173950D02*X134600D01*
X132380Y174505D02*X132935Y173950D01*
X132380Y175615D02*Y174505D01*
Y175615D02*X132935Y176170D01*
X134045D01*
X134600Y175615D01*
X132380Y175060D02*X134600D01*
Y175615D01*
X135932Y173950D02*X136487D01*
G54D15*X22000Y237500D03*
G54D16*G36*
X26750Y192750D02*X37250D01*
Y182250D01*
X26750D01*
Y192750D01*
G37*
G36*
X19250Y164250D02*X24750D01*
Y158750D01*
X19250D01*
Y164250D01*
G37*
G36*
X37250D02*X42750D01*
Y158750D01*
X37250D01*
Y164250D01*
G37*
G54D17*X40000Y121500D03*
G54D15*X32000Y172500D03*
G54D18*X40000Y109500D03*
X30000D03*
X20000D03*
G54D17*X22000Y121500D03*
G54D18*X20000Y79500D03*
X30000D03*
X40000D03*
G54D16*G36*
X36500Y55500D02*X42500D01*
Y49500D01*
X36500D01*
Y55500D01*
G37*
G54D18*X39500Y42500D03*
Y32500D03*
Y22500D03*
G54D16*G36*
X209400Y213600D02*X216600D01*
Y206400D01*
X209400D01*
Y213600D01*
G37*
G54D19*X223000Y210000D03*
X233000D03*
G54D20*X260500Y217000D03*
X300500D03*
G54D21*X270500Y197000D03*
X280500D03*
G54D16*G36*
X234000Y186000D02*X228000D01*
Y192000D01*
X234000D01*
Y186000D01*
G37*
G54D18*X231000Y179000D03*
G54D16*G36*
X294500Y143000D02*X300500D01*
Y137000D01*
X294500D01*
Y143000D01*
G37*
G54D18*X297500Y130000D03*
Y120000D03*
G54D17*Y161000D03*
G54D18*Y110000D03*
Y100000D03*
G54D16*G36*
X233000Y89500D02*Y81500D01*
X225000D01*
Y89500D01*
X233000D01*
G37*
G54D21*X229000Y75500D03*
G54D16*G36*
X275500Y143000D02*X281500D01*
Y137000D01*
X275500D01*
Y143000D01*
G37*
G54D18*X210000Y135000D03*
G54D16*G36*
X215000Y163000D02*Y157000D01*
X209000D01*
Y163000D01*
X215000D01*
G37*
G54D18*X222000Y160000D03*
G54D16*G36*
X254750Y163750D02*X260250D01*
Y158250D01*
X254750D01*
Y163750D01*
G37*
G54D18*X278500Y130000D03*
Y120000D03*
Y110000D03*
Y100000D03*
G54D15*X42000Y237500D03*
X13500Y187500D03*
X50500D03*
Y172500D03*
G54D16*G36*
X47000Y112500D02*X53000D01*
Y106500D01*
X47000D01*
Y112500D01*
G37*
G54D18*X50000Y79500D03*
G54D16*G36*
X72250Y119250D02*Y113750D01*
X66750D01*
Y119250D01*
X72250D01*
G37*
G54D17*X69500Y86500D03*
G54D16*G36*
X65250Y124250D02*Y118750D01*
X59750D01*
Y124250D01*
X65250D01*
G37*
G54D17*X62500Y81500D03*
G54D16*G36*
X99500Y49500D02*X93500D01*
Y55500D01*
X99500D01*
Y49500D01*
G37*
G54D18*X96500Y42500D03*
X69500Y22500D03*
Y32500D03*
Y42500D03*
Y52500D03*
G54D16*G36*
X119250Y35250D02*X124750D01*
Y29750D01*
X119250D01*
Y35250D01*
G37*
G54D17*X162000Y32500D03*
G54D16*G36*
X157750Y26250D02*X163250D01*
Y20750D01*
X157750D01*
Y26250D01*
G37*
G54D17*X200500Y23500D03*
G54D16*G36*
X191500Y67500D02*X199500D01*
Y59500D01*
X191500D01*
Y67500D01*
G37*
G54D21*X205500Y63500D03*
X205800Y85500D03*
G54D16*G36*
X159750Y200250D02*X165250D01*
Y194750D01*
X159750D01*
Y200250D01*
G37*
G36*
X112000Y211500D02*X120000D01*
Y203500D01*
X112000D01*
Y211500D01*
G37*
G54D17*X202500Y197500D03*
X199500Y181000D03*
G54D16*G36*
X203000Y138000D02*Y132000D01*
X197000D01*
Y138000D01*
X203000D01*
G37*
G54D17*X200000Y166700D03*
G54D16*G36*
X178500Y154000D02*X186500D01*
Y146000D01*
X178500D01*
Y154000D01*
G37*
G36*
X162250Y183750D02*Y178250D01*
X156750D01*
Y183750D01*
X162250D01*
G37*
G36*
X162750Y169450D02*Y163950D01*
X157250D01*
Y169450D01*
X162750D01*
G37*
G36*
X126750Y112250D02*X121250D01*
Y117750D01*
X126750D01*
Y112250D01*
G37*
G54D17*X164000Y115000D03*
G54D16*G36*
X93500Y111500D02*X101500D01*
Y103500D01*
X93500D01*
Y111500D01*
G37*
G54D21*X107500Y107500D03*
G54D16*G36*
X93500Y89500D02*X101500D01*
Y81500D01*
X93500D01*
Y89500D01*
G37*
G54D15*X13500Y172500D03*
G54D16*G36*
X19500Y29500D02*X13500D01*
Y35500D01*
X19500D01*
Y29500D01*
G37*
G54D18*X16500Y22500D03*
G54D22*G54D23*G54D24*G54D23*G54D25*G54D24*G54D25*G54D26*G54D27*G54D28*G54D24*G54D29*G54D24*G54D29*G54D30*G54D29*G54D24*G54D29*G54D22*G54D23*G54D25*G54D24*G54D25*G54D24*G54D30*G54D24*G54D30*G54D24*G54D30*G54D24*G54D30*G54D23*G54D24*M02*
