G04 start of page 5 for group 2 layer_idx 5 *
G04 Title: (unknown), top_mask *
G04 Creator: pcb-rnd 2.1.0 *
G04 CreationDate: 2019-02-14 20:47:18 UTC *
G04 For:  *
G04 Format: Gerber/RS-274X *
G04 PCB-Dimensions: 316500 250000 *
G04 PCB-Coordinate-Origin: lower left *
%MOIN*%
%FSLAX25Y25*%
%LNTOPMASK*%
%ADD53C,0.0860*%
%ADD52C,0.2060*%
%ADD51C,0.0780*%
%ADD50C,0.0660*%
%ADD49C,0.0610*%
%ADD48C,0.0001*%
%ADD47C,0.1110*%
G54D47*X22000Y237500D03*
G54D48*G36*
X26450Y193050D02*X37550D01*
Y181950D01*
X26450D01*
Y193050D01*
G37*
G36*
X18950Y164550D02*X25050D01*
Y158450D01*
X18950D01*
Y164550D01*
G37*
G36*
X36950D02*X43050D01*
Y158450D01*
X36950D01*
Y164550D01*
G37*
G54D49*X40000Y121500D03*
G54D47*X32000Y172500D03*
G54D50*X40000Y109500D03*
X30000D03*
X20000D03*
G54D49*X22000Y121500D03*
G54D50*X20000Y79500D03*
X30000D03*
X40000D03*
G54D48*G36*
X36200Y55800D02*X42800D01*
Y49200D01*
X36200D01*
Y55800D01*
G37*
G54D50*X39500Y42500D03*
Y32500D03*
Y22500D03*
G54D48*G36*
X234300Y185700D02*X227700D01*
Y192300D01*
X234300D01*
Y185700D01*
G37*
G54D50*X231000Y179000D03*
G54D51*X233000Y210000D03*
G54D52*X260500Y217000D03*
X300500D03*
G54D53*X270500Y197000D03*
X280500D03*
G54D47*X42000Y237500D03*
X13500Y187500D03*
X50500D03*
Y172500D03*
G54D48*G36*
X46700Y112800D02*X53300D01*
Y106200D01*
X46700D01*
Y112800D01*
G37*
G54D50*X50000Y79500D03*
G54D48*G36*
X72550Y119550D02*Y113450D01*
X66450D01*
Y119550D01*
X72550D01*
G37*
G54D49*X69500Y86500D03*
G54D48*G36*
X65550Y124550D02*Y118450D01*
X59450D01*
Y124550D01*
X65550D01*
G37*
G54D49*X62500Y81500D03*
G54D48*G36*
X93200Y111800D02*X101800D01*
Y103200D01*
X93200D01*
Y111800D01*
G37*
G54D53*X107500Y107500D03*
G54D48*G36*
X93200Y89800D02*X101800D01*
Y81200D01*
X93200D01*
Y89800D01*
G37*
G36*
X99800Y49200D02*X93200D01*
Y55800D01*
X99800D01*
Y49200D01*
G37*
G54D50*X96500Y42500D03*
X69500Y22500D03*
Y32500D03*
Y42500D03*
Y52500D03*
G54D48*G36*
X118950Y35550D02*X125050D01*
Y29450D01*
X118950D01*
Y35550D01*
G37*
G54D49*X162000Y32500D03*
G54D48*G36*
X157450Y26550D02*X163550D01*
Y20450D01*
X157450D01*
Y26550D01*
G37*
G36*
X128550Y51950D02*X122450D01*
Y58050D01*
X128550D01*
Y51950D01*
G37*
G54D49*X165500Y55000D03*
G54D48*G36*
X191200Y67800D02*X199800D01*
Y59200D01*
X191200D01*
Y67800D01*
G37*
G54D53*X205500Y63500D03*
G54D48*G36*
X233300Y89800D02*Y81200D01*
X224700D01*
Y89800D01*
X233300D01*
G37*
G54D53*X229000Y75500D03*
X205800Y85500D03*
G54D48*G36*
X254450Y73050D02*X260550D01*
Y66950D01*
X254450D01*
Y73050D01*
G37*
G54D49*X200500Y23500D03*
X297500Y70000D03*
G54D48*G36*
X295300Y56800D02*Y48200D01*
X286700D01*
Y56800D01*
X295300D01*
G37*
G36*
X262300D02*Y48200D01*
X253700D01*
Y56800D01*
X262300D01*
G37*
G54D53*X291000Y42500D03*
X258000D03*
Y32500D03*
Y22500D03*
Y12500D03*
X291000Y32500D03*
Y22500D03*
Y12500D03*
G54D48*G36*
X159450Y200550D02*X165550D01*
Y194450D01*
X159450D01*
Y200550D01*
G37*
G36*
X111700Y211800D02*X120300D01*
Y203200D01*
X111700D01*
Y211800D01*
G37*
G54D49*X202500Y197500D03*
X199500Y181000D03*
X200000Y166700D03*
G54D48*G36*
X203300Y138300D02*Y131700D01*
X196700D01*
Y138300D01*
X203300D01*
G37*
G54D50*X210000Y135000D03*
G54D48*G36*
X215300Y163300D02*Y156700D01*
X208700D01*
Y163300D01*
X215300D01*
G37*
G54D50*X222000Y160000D03*
G54D48*G36*
X209100Y213900D02*X216900D01*
Y206100D01*
X209100D01*
Y213900D01*
G37*
G54D51*X223000Y210000D03*
G54D48*G36*
X162550Y184050D02*Y177950D01*
X156450D01*
Y184050D01*
X162550D01*
G37*
G36*
X163050Y169750D02*Y163650D01*
X156950D01*
Y169750D01*
X163050D01*
G37*
G36*
X178200Y154300D02*X186800D01*
Y145700D01*
X178200D01*
Y154300D01*
G37*
G54D47*X13500Y172500D03*
G54D48*G36*
X19800Y29200D02*X13200D01*
Y35800D01*
X19800D01*
Y29200D01*
G37*
G54D50*X16500Y22500D03*
M02*
