G04 start of page 7 for group 1 layer_idx 4 *
G04 Title: (unknown), top_silk *
G04 Creator: pcb-rnd 2.1.0 *
G04 CreationDate: 2019-02-14 20:47:18 UTC *
G04 For:  *
G04 Format: Gerber/RS-274X *
G04 PCB-Dimensions: 316500 250000 *
G04 PCB-Coordinate-Origin: lower left *
%MOIN*%
%FSLAX25Y25*%
%LNTOPSILK*%
%ADD65C,0.0200*%
%ADD64C,0.0060*%
%ADD63C,0.0400*%
%ADD62C,0.0110*%
%ADD61C,0.0100*%
G54D61*X43300Y151500D02*Y131500D01*
X36700Y151500D02*Y131500D01*
X33000Y205500D02*X32000Y206500D01*
X22000Y161500D02*Y151500D01*
Y131500D02*Y121500D01*
X25300Y151500D02*Y131500D01*
G54D62*X4000Y244000D02*Y8500D01*
G54D61*X15000Y114500D02*Y74500D01*
X18700Y131500D02*X25300D01*
X18700Y151500D02*Y131500D01*
Y151500D02*X25300D01*
X34500Y57500D02*Y17500D01*
X31500Y200000D02*X30500Y199000D01*
Y197000D02*X31500Y196000D01*
X32000D02*X33000Y197000D01*
X31500Y196000D02*X32000D01*
X15000Y74500D02*X55000D01*
Y114500D02*Y99500D01*
Y89500D02*Y74500D01*
X34500Y57500D02*X49500D01*
X32000Y206500D02*X31500D01*
X33000Y199000D02*X32000Y200000D01*
X31500D01*
Y206500D02*X30500Y205500D01*
Y203500D02*X31500Y202500D01*
X32000D02*X33000Y203500D01*
X31500Y202500D02*X32000D01*
X37000Y212500D02*X39000D01*
X38000D02*Y208500D01*
X30500Y199000D02*Y197000D01*
Y205500D02*Y203500D01*
X33000Y208500D02*X34000D01*
X35000Y209500D01*
Y211500D01*
X10500Y206500D02*Y202500D01*
Y206500D02*X12000D01*
X33000Y212500D02*Y208500D01*
X14500Y199500D02*X15000Y200000D01*
X16000D02*X16500Y199500D01*
X15000Y200000D02*X16000D01*
X15500Y202500D02*Y206500D01*
X14500Y205500D01*
Y196000D02*X16500D01*
Y198000D02*X14500Y196000D01*
X16500Y199500D02*Y198000D01*
X10500Y200000D02*Y196000D01*
X14500Y202500D02*X16500D01*
X12000Y204000D02*X12500Y202500D01*
X12000Y197500D02*X12500Y196000D01*
X9000Y235500D02*Y231500D01*
X11000D01*
X12500Y199500D02*Y198500D01*
X12000Y198000D01*
X11000D01*
X12000Y204500D02*X11000D01*
X10500Y200000D02*X12000D01*
X12500Y199500D01*
X12000Y206500D02*X12500Y206000D01*
Y205000D01*
X12000Y204500D01*
X31000Y211000D02*X30500Y210500D01*
X29500D01*
X35000Y211500D02*X34000Y212500D01*
X33000D01*
X29000D02*X30500D01*
X31000Y212000D01*
Y211000D01*
X27000Y211500D02*X26000Y212500D01*
X25000D01*
X29000Y208500D02*Y212500D01*
X25000D02*Y208500D01*
X26000D01*
X27000Y209500D01*
Y211500D01*
X29500Y231000D02*X34500D01*
X32000Y233500D01*
Y232500D02*X33500Y231000D01*
X30500D02*X32000Y232500D01*
X7000Y237500D02*Y187500D01*
X32000Y233500D02*Y226000D01*
Y233500D02*X29500Y231000D01*
X38500Y242000D02*Y244000D01*
G54D63*X13500Y180500D02*Y179500D01*
X32000Y180500D02*Y179500D01*
G54D61*X27500Y237500D02*X36500D01*
X16500Y238500D02*X13500D01*
Y244000D01*
X36500Y238500D02*X27500D01*
X25500Y242000D02*Y244000D01*
X22000Y243000D02*Y244000D01*
X7000Y237500D02*X16500D01*
X8000Y187500D02*X7000D01*
X19000D02*X26500D01*
X47500Y196000D02*X49500D01*
X47500Y206500D02*Y202500D01*
X49500D01*
X47500Y200000D02*Y196000D01*
X40000Y161500D02*Y151500D01*
X36700D02*X43300D01*
X42000Y243000D02*Y244000D01*
X13500D02*X50500D01*
Y238500D01*
X47500D01*
X40000Y131500D02*Y121500D01*
X36700Y131500D02*X43300D01*
X15000Y114500D02*X55000D01*
G54D63*X50500Y180500D02*Y179500D01*
G54D61*X37500Y187500D02*X45000D01*
X7000Y193500D02*X57000D01*
Y237500D02*X47500D01*
X53000Y235500D02*Y231500D01*
Y235500D02*X54500D01*
Y233000D02*X55000Y231500D01*
X54500Y235500D02*X55000Y235000D01*
Y234000D01*
X54500Y233500D01*
X53500D01*
X57000Y187500D02*Y237500D01*
X52000Y200000D02*X53000D01*
X53500Y199500D01*
X52500Y202500D02*Y206500D01*
X57000Y187500D02*X56000D01*
X51500Y199500D02*X52000Y200000D01*
X53500Y199500D02*Y198000D01*
X51500Y196000D01*
X53500D01*
X51500Y202500D02*X53500D01*
X52500Y206500D02*X51500Y205500D01*
X67000Y109000D02*Y94000D01*
X69500Y116500D02*Y109000D01*
X62500Y121500D02*Y111500D01*
X65800D02*X59200D01*
G54D64*X69950Y73550D02*X65000Y78500D01*
Y75672D01*
Y78500D02*X67828D01*
G54D61*X69500Y94000D02*Y86500D01*
X62500Y91500D02*Y81500D01*
X65800Y111500D02*Y91500D01*
X59200D01*
Y111500D02*Y91500D01*
G54D65*X103000Y176500D02*X124000D01*
X107000Y180500D02*X115500Y189000D01*
X124000D01*
X99000Y180500D02*X90500Y189000D01*
X83000D01*
X103000Y171500D02*X114500Y160000D01*
X124000D01*
G54D62*X311500Y244000D02*Y9500D01*
X304000Y2000D02*X311500Y9500D01*
G54D61*X309500Y187150D02*Y208000D01*
X132000Y35800D02*Y29200D01*
Y35800D02*X152000D01*
X122000Y32500D02*X132000D01*
X74500Y17500D02*Y57500D01*
X135500Y55000D02*X125500D01*
X135500Y51700D02*Y58300D01*
X132000Y29200D02*X152000D01*
Y35800D02*Y29200D01*
Y32500D02*X162000D01*
X59500Y57500D02*X74500D01*
X165500Y55000D02*X155500D01*
Y51700D02*X135500D01*
X155500Y58300D02*X135500D01*
X155500Y51700D02*Y58300D01*
G54D62*X10500Y2000D02*X304000D01*
G54D61*X160500Y23500D02*X170500D01*
Y20200D02*X190500D01*
X170500Y26800D02*Y20200D01*
X190500Y23500D02*X200500D01*
X34500Y17500D02*X74500D01*
X170500Y26800D02*X190500D01*
Y68500D02*Y58500D01*
Y63500D02*X185500Y66000D01*
X190500Y63500D02*X185500Y61000D01*
Y66000D02*Y61000D01*
X190500Y68500D02*X210500D01*
Y58500D02*X190500D01*
X210500D02*Y68500D01*
X287500Y66700D02*X267500D01*
X190500Y26800D02*Y20200D01*
X278200Y57500D02*Y7500D01*
X297200Y52500D02*X303200D01*
Y57500D02*X278200D01*
X303200Y7500D02*X278200D01*
X303200Y57500D02*Y7500D01*
X297200Y52500D02*Y12500D01*
X303200D01*
X245200Y57500D02*Y7500D01*
X270200Y57500D02*Y7500D01*
X264200Y52500D02*X270200D01*
Y57500D02*X245200D01*
X264200Y52500D02*Y12500D01*
X270200D01*
Y7500D02*X245200D01*
X162500Y197500D02*X172500D01*
Y200800D02*X192500D01*
X172500Y194200D02*Y200800D01*
X121000Y202500D02*X111000D01*
X192500Y197500D02*X202500D01*
X192500Y200800D02*Y194200D01*
X172500D01*
X111000Y207500D02*X106000Y205000D01*
X216000Y203000D02*X230000D01*
X251500Y187150D02*X309500D01*
X251500D02*Y208000D01*
X169500Y181000D02*X159500D01*
X169500Y184300D02*Y177700D01*
X170000Y166700D02*X160000D01*
X189500Y177700D02*X169500D01*
X190000Y170000D02*X170000D01*
X190000Y163400D02*X170000D01*
Y170000D02*Y163400D01*
X177500Y155000D02*Y145000D01*
Y155000D02*X187500D01*
Y145000D02*X177500D01*
X187500D02*Y155000D01*
X177500Y150000D02*X172500Y152500D01*
X177500Y150000D02*X172500Y147500D01*
Y152500D02*Y147500D01*
X72000Y109000D02*X67000D01*
X92500Y112500D02*X112500D01*
X72000Y94000D02*X67000D01*
X97500Y85500D02*X124575D01*
Y94525D02*Y76475D01*
Y94525D02*X178725D01*
Y76475D02*X124575D01*
X178725D02*Y94525D01*
X72000Y109000D02*Y94000D01*
X92500Y112500D02*Y102500D01*
X112500D02*X92500D01*
X112500D02*Y112500D01*
X92500Y107500D02*X87500Y110000D01*
X92500Y107500D02*X87500Y105000D01*
Y110000D02*Y105000D01*
X199500Y181000D02*X189500D01*
Y184300D02*X169500D01*
X189500D02*Y177700D01*
X200000Y166700D02*X190000D01*
Y170000D02*Y163400D01*
X193000Y135000D02*X189000D01*
X191000Y137000D02*Y133000D01*
X205000Y160000D02*X201000D01*
X203000Y162000D02*Y158000D01*
X178725Y85500D02*X205800D01*
X221000Y135000D02*X217000D01*
X233000Y160000D02*X229000D01*
X234000Y90500D02*X224000D01*
X229000D02*X231500Y95500D01*
X229000Y90500D02*X226500Y95500D01*
X231500D02*X226500D01*
X234000Y90500D02*Y70500D01*
X224000D02*Y90500D01*
Y70500D02*X234000D01*
X257500Y70000D02*X267500D01*
Y66700D02*Y73300D01*
X287500Y70000D02*X297500D01*
X267500Y73300D02*X287500D01*
Y66700D01*
X111000Y212500D02*Y202500D01*
Y212500D02*X121000D01*
Y202500D02*Y212500D01*
X111000Y207500D02*X106000Y210000D01*
Y205000D01*
G54D62*X4000Y8500D02*X10500Y2000D01*
G54D61*X309500Y246850D02*X251500D01*
Y226000D01*
X309500Y246850D02*Y226000D01*
Y246016D03*
G54D65*X118000Y176000D02*G75*G03X103500Y190500I-14500J0D01*G01*
Y161500D02*G75*G03X118000Y176000I0J14500D01*G01*
X89000D02*G75*G02X103500Y190500I14500J0D01*G01*
Y161500D02*G75*G02X89000Y176000I0J14500D01*G01*
G54D61*X55000Y99500D02*G75*G03X55000Y89500I0J-5000D01*G01*
X195000Y135000D02*G75*G03X215000Y135000I10000J0D01*G01*
G75*G03X195000Y135000I-10000J0D01*G01*
X207000Y160000D02*G75*G03X227000Y160000I10000J0D01*G01*
G75*G03X207000Y160000I-10000J0D01*G01*
X231000Y194000D02*G75*G03X231000Y174000I0J-10000D01*G01*
G75*G03X231000Y194000I0J10000D01*G01*
X230071Y202929D02*G75*G03X215929Y217071I-7071J7071D01*G01*
X215929Y217071D02*G75*G03X215929Y202929I7071J-7071D01*G01*
X16500Y37500D02*G75*G03X16500Y17500I0J-10000D01*G01*
X16500D02*G75*G03X16500Y37500I0J10000D01*G01*
X96500Y57500D02*G75*G03X96500Y37500I0J-10000D01*G01*
G75*G03X96500Y57500I0J10000D01*G01*
X49500D02*G75*G03X59500Y57500I5000J0D01*G01*
X35500Y68990D02*Y72950D01*
X33520D01*
X32332Y68990D02*X30352D01*
X31342D02*Y72950D01*
X28669D02*X27679D01*
X28174Y68990D02*Y72950D01*
X29164Y69980D02*X28174Y68990D01*
X26491Y72455D02*X25996Y72950D01*
X26491Y69485D02*Y72455D01*
Y69485D02*X25996Y68990D01*
X25006D01*
X24511Y69485D01*
Y72455D01*
X25006Y72950D02*X24511Y72455D01*
X25996Y72950D02*X25006D01*
X26491Y71960D02*X24511Y69980D01*
X23323Y69485D02*X22828Y68990D01*
X21838D01*
X21343Y69485D01*
Y72455D01*
X21838Y72950D02*X21343Y72455D01*
X22828Y72950D02*X21838D01*
X23323Y72455D02*X22828Y72950D01*
Y70970D02*X21343D01*
X20155Y72950D02*X17680Y70475D01*
Y68990D02*Y70475D01*
X20155Y68990D02*X17680D01*
X72200Y72500D02*Y70500D01*
X71700Y70000D01*
X70700D01*
X70200Y70500D02*X70700Y70000D01*
X70200Y72000D02*Y70500D01*
X72200Y72000D02*X68200D01*
X70200D02*X68200Y70000D01*
X71700Y68800D02*X72200Y68300D01*
Y67300D01*
X71700Y66800D01*
X68700D01*
X68200Y67300D02*X68700Y66800D01*
X68200Y68300D02*Y67300D01*
X68700Y68800D02*X68200Y68300D01*
X70200D02*Y66800D01*
X68200Y65100D02*Y64100D01*
X72200Y64600D02*X68200D01*
X71200Y65600D02*X72200Y64600D01*
X98500Y26510D02*Y22550D01*
Y26510D02*X99985Y25025D01*
X101470Y26510D01*
Y22550D01*
X102658Y25520D02*Y25025D01*
Y24035D02*Y22550D01*
X104143Y24530D02*X105628D01*
X103648Y24035D02*X104143Y24530D01*
X103648Y24035D02*Y23045D01*
X104143Y22550D01*
X105628D01*
X107311Y24035D02*Y22550D01*
Y24035D02*X107806Y24530D01*
X108796D01*
X106816D02*X107311Y24035D01*
X109984D02*Y23045D01*
Y24035D02*X110479Y24530D01*
X111469D01*
X111964Y24035D01*
Y23045D01*
X111469Y22550D02*X111964Y23045D01*
X110479Y22550D02*X111469D01*
X109984Y23045D02*X110479Y22550D01*
X113647Y24035D02*Y21065D01*
X113152Y24530D02*X113647Y24035D01*
X114142Y24530D01*
X115132D01*
X115627Y24035D01*
Y23045D01*
X115132Y22550D02*X115627Y23045D01*
X114142Y22550D02*X115132D01*
X113647Y23045D02*X114142Y22550D01*
X116815Y26510D02*Y22550D01*
Y24035D02*X117310Y24530D01*
X118300D01*
X118795Y24035D01*
Y22550D01*
X119983Y24035D02*Y23045D01*
Y24035D02*X120478Y24530D01*
X121468D01*
X121963Y24035D01*
Y23045D01*
X121468Y22550D02*X121963Y23045D01*
X120478Y22550D02*X121468D01*
X119983Y23045D02*X120478Y22550D01*
X123646Y24035D02*Y22550D01*
Y24035D02*X124141Y24530D01*
X124636D01*
X125131Y24035D01*
Y22550D01*
X123151Y24530D02*X123646Y24035D01*
X126814Y22550D02*X128299D01*
X126319Y23045D02*X126814Y22550D01*
X126319Y24035D02*Y23045D01*
Y24035D02*X126814Y24530D01*
X127804D01*
X128299Y24035D01*
X126319Y23540D02*X128299D01*
Y24035D01*
X131269Y26015D02*Y22550D01*
Y26015D02*X131764Y26510D01*
X133249D01*
X133744Y26015D01*
Y22550D01*
X131269Y24530D02*X133744D01*
X135427Y24035D02*Y22550D01*
Y24035D02*X135922Y24530D01*
X136417D01*
X136912Y24035D01*
Y22550D01*
Y24035D02*X137407Y24530D01*
X137902D01*
X138397Y24035D01*
Y22550D01*
X134932Y24530D02*X135427Y24035D01*
X140080D02*Y21065D01*
X139585Y24530D02*X140080Y24035D01*
X140575Y24530D01*
X141565D01*
X142060Y24035D01*
Y23045D01*
X141565Y22550D02*X142060Y23045D01*
X140575Y22550D02*X141565D01*
X140080Y23045D02*X140575Y22550D01*
X143248Y26510D02*Y23045D01*
X143743Y22550D01*
X144733Y25520D02*Y25025D01*
Y24035D02*Y22550D01*
X146218Y26015D02*Y22550D01*
Y26015D02*X146713Y26510D01*
X147208D01*
X145723Y24530D02*X146713D01*
X148198Y25520D02*Y25025D01*
Y24035D02*Y22550D01*
X149683D02*X151168D01*
X149188Y23045D02*X149683Y22550D01*
X149188Y24035D02*Y23045D01*
Y24035D02*X149683Y24530D01*
X150673D01*
X151168Y24035D01*
X149188Y23540D02*X151168D01*
Y24035D01*
X152851D02*Y22550D01*
Y24035D02*X153346Y24530D01*
X154336D01*
X152356D02*X152851Y24035D01*
X9500Y9030D02*X11480D01*
X10490Y10020D02*Y8040D01*
X13163Y7050D02*X14153D01*
X13658Y11010D02*Y7050D01*
X12668Y10020D02*X13658Y11010D01*
X15341D02*X17321D01*
X15341D02*Y9030D01*
X15836Y9525D01*
X16826D01*
X17321Y9030D01*
Y7545D01*
X16826Y7050D02*X17321Y7545D01*
X15836Y7050D02*X16826D01*
X15341Y7545D02*X15836Y7050D01*
X18509Y11010D02*Y8040D01*
X19499Y7050D01*
X20489Y8040D01*
Y11010D02*Y8040D01*
X23954Y7050D02*X25439D01*
X23459Y7545D02*X23954Y7050D01*
X23459Y10515D02*Y7545D01*
Y10515D02*X23954Y11010D01*
X25439D01*
X26627Y8535D02*Y7545D01*
Y8535D02*X27122Y9030D01*
X28112D01*
X28607Y8535D01*
Y7545D01*
X28112Y7050D02*X28607Y7545D01*
X27122Y7050D02*X28112D01*
X26627Y7545D02*X27122Y7050D01*
X30290Y8535D02*Y7050D01*
Y8535D02*X30785Y9030D01*
X31280D01*
X31775Y8535D01*
Y7050D01*
Y8535D02*X32270Y9030D01*
X32765D01*
X33260Y8535D01*
Y7050D01*
X29795Y9030D02*X30290Y8535D01*
X34943D02*Y5565D01*
X34448Y9030D02*X34943Y8535D01*
X35438Y9030D01*
X36428D01*
X36923Y8535D01*
Y7545D01*
X36428Y7050D02*X36923Y7545D01*
X35438Y7050D02*X36428D01*
X34943Y7545D02*X35438Y7050D01*
X38111Y8535D02*Y7545D01*
Y8535D02*X38606Y9030D01*
X39596D01*
X40091Y8535D01*
Y7545D01*
X39596Y7050D02*X40091Y7545D01*
X38606Y7050D02*X39596D01*
X38111Y7545D02*X38606Y7050D01*
X41774Y8535D02*Y7050D01*
Y8535D02*X42269Y9030D01*
X42764D01*
X43259Y8535D01*
Y7050D01*
X41279Y9030D02*X41774Y8535D01*
X44942Y7050D02*X46427D01*
X44447Y7545D02*X44942Y7050D01*
X44447Y8535D02*Y7545D01*
Y8535D02*X44942Y9030D01*
X45932D01*
X46427Y8535D01*
X44447Y8040D02*X46427D01*
Y8535D01*
X48110D02*Y7050D01*
Y8535D02*X48605Y9030D01*
X49100D01*
X49595Y8535D01*
Y7050D01*
X47615Y9030D02*X48110Y8535D01*
X51278Y11010D02*Y7545D01*
X51773Y7050D01*
X50783Y9525D02*X51773D01*
X56525Y11010D02*X57020Y10515D01*
X55040Y11010D02*X56525D01*
X54545Y10515D02*X55040Y11010D01*
X54545Y10515D02*Y9525D01*
X55040Y9030D01*
X56525D01*
X57020Y8535D01*
Y7545D01*
X56525Y7050D02*X57020Y7545D01*
X55040Y7050D02*X56525D01*
X54545Y7545D02*X55040Y7050D01*
X58208Y10020D02*Y9525D01*
Y8535D02*Y7050D01*
X61178Y11010D02*Y7050D01*
X60683D02*X61178Y7545D01*
X59693Y7050D02*X60683D01*
X59198Y7545D02*X59693Y7050D01*
X59198Y8535D02*Y7545D01*
Y8535D02*X59693Y9030D01*
X60683D01*
X61178Y8535D01*
X62861Y7050D02*X64346D01*
X62366Y7545D02*X62861Y7050D01*
X62366Y8535D02*Y7545D01*
Y8535D02*X62861Y9030D01*
X63851D01*
X64346Y8535D01*
X62366Y8040D02*X64346D01*
Y8535D01*
X65534Y7050D02*X66524Y8040D01*
Y9525D02*Y9030D01*
X67712D02*X69692D01*
X71375Y7050D02*X72365D01*
X71870Y11010D02*Y7050D01*
X70880Y10020D02*X71870Y11010D01*
X73553D02*X75533D01*
X73553D02*Y9030D01*
X74048Y9525D01*
X75038D01*
X75533Y9030D01*
Y7545D01*
X75038Y7050D02*X75533Y7545D01*
X74048Y7050D02*X75038D01*
X73553Y7545D02*X74048Y7050D01*
X76721Y11010D02*Y8040D01*
X77711Y7050D01*
X78701Y8040D01*
Y11010D02*Y8040D01*
X83651Y11010D02*X84146Y10515D01*
X82166Y11010D02*X83651D01*
X81671Y10515D02*X82166Y11010D01*
X81671Y10515D02*Y9525D01*
X82166Y9030D01*
X83651D01*
X84146Y8535D01*
Y7545D01*
X83651Y7050D02*X84146Y7545D01*
X82166Y7050D02*X83651D01*
X81671Y7545D02*X82166Y7050D01*
X85334Y8535D02*Y7545D01*
Y8535D02*X85829Y9030D01*
X86819D01*
X87314Y8535D01*
Y7545D01*
X86819Y7050D02*X87314Y7545D01*
X85829Y7050D02*X86819D01*
X85334Y7545D02*X85829Y7050D01*
X88502Y11010D02*Y7545D01*
X88997Y7050D01*
X91967Y11010D02*Y7050D01*
X91472D02*X91967Y7545D01*
X90482Y7050D02*X91472D01*
X89987Y7545D02*X90482Y7050D01*
X89987Y8535D02*Y7545D01*
Y8535D02*X90482Y9030D01*
X91472D01*
X91967Y8535D01*
X93650Y7050D02*X95135D01*
X93155Y7545D02*X93650Y7050D01*
X93155Y8535D02*Y7545D01*
Y8535D02*X93650Y9030D01*
X94640D01*
X95135Y8535D01*
X93155Y8040D02*X95135D01*
Y8535D01*
X96818D02*Y7050D01*
Y8535D02*X97313Y9030D01*
X98303D01*
X96323D02*X96818Y8535D01*
X103253Y11010D02*X103748Y10515D01*
X101768Y11010D02*X103253D01*
X101273Y10515D02*X101768Y11010D01*
X101273Y10515D02*Y9525D01*
X101768Y9030D01*
X103253D01*
X103748Y8535D01*
Y7545D01*
X103253Y7050D02*X103748Y7545D01*
X101768Y7050D02*X103253D01*
X101273Y7545D02*X101768Y7050D01*
X104936Y10020D02*Y9525D01*
Y8535D02*Y7050D01*
X107906Y11010D02*Y7050D01*
X107411D02*X107906Y7545D01*
X106421Y7050D02*X107411D01*
X105926Y7545D02*X106421Y7050D01*
X105926Y8535D02*Y7545D01*
Y8535D02*X106421Y9030D01*
X107411D01*
X107906Y8535D01*
X109589Y7050D02*X111074D01*
X109094Y7545D02*X109589Y7050D01*
X109094Y8535D02*Y7545D01*
Y8535D02*X109589Y9030D01*
X110579D01*
X111074Y8535D01*
X109094Y8040D02*X111074D01*
Y8535D01*
X98500Y16500D02*X100000D01*
X98500Y14500D02*X100500D01*
X98500Y18500D02*Y14500D01*
Y18500D02*X100500D01*
X102200D02*Y14500D01*
X101700Y18500D02*X103700D01*
X104200Y18000D01*
Y17000D01*
X103700Y16500D02*X104200Y17000D01*
X102200Y16500D02*X103700D01*
X105400Y18500D02*Y14500D01*
X107400D01*
X110400Y18000D02*X110900Y18500D01*
X112400D01*
X112900Y18000D01*
Y17000D01*
X110400Y14500D02*X112900Y17000D01*
X110400Y14500D02*X112900D01*
X114100Y15000D02*X114600Y14500D01*
X114100Y18000D02*Y15000D01*
Y18000D02*X114600Y18500D01*
X115600D01*
X116100Y18000D01*
Y15000D01*
X115600Y14500D02*X116100Y15000D01*
X114600Y14500D02*X115600D01*
X114100Y15500D02*X116100Y17500D01*
X117800Y14500D02*X118800D01*
X118300Y18500D02*Y14500D01*
X117300Y17500D02*X118300Y18500D01*
X120000Y14500D02*X122000Y16500D01*
Y18000D02*Y16500D01*
X121500Y18500D02*X122000Y18000D01*
X120500Y18500D02*X121500D01*
X120000Y18000D02*X120500Y18500D01*
X120000Y18000D02*Y17000D01*
X120500Y16500D01*
X122000D01*
X123200Y14500D02*X125200D01*
X126400Y15000D02*X126900Y14500D01*
X126400Y18000D02*Y15000D01*
Y18000D02*X126900Y18500D01*
X127900D01*
X128400Y18000D01*
Y15000D01*
X127900Y14500D02*X128400Y15000D01*
X126900Y14500D02*X127900D01*
X126400Y15500D02*X128400Y17500D01*
X129600Y18000D02*X130100Y18500D01*
X131600D01*
X132100Y18000D01*
Y17000D01*
X129600Y14500D02*X132100Y17000D01*
X129600Y14500D02*X132100D01*
X133300D02*X135300D01*
X137000D02*X138000D01*
X137500Y18500D02*Y14500D01*
X136500Y17500D02*X137500Y18500D01*
X139200Y16500D02*X141200Y18500D01*
X139200Y16500D02*X141700D01*
X141200Y18500D02*Y14500D01*
X80010Y34000D02*X76050D01*
Y32020D01*
X80010Y30832D02*X76050D01*
X80010D02*Y28852D01*
X78030Y30832D02*Y29347D01*
X79515Y27664D02*X80010Y27169D01*
Y26179D01*
X79515Y25684D01*
X76545D01*
X76050Y26179D02*X76545Y25684D01*
X76050Y27169D02*Y26179D01*
X76545Y27664D02*X76050Y27169D01*
X78030D02*Y25684D01*
X80010Y24496D02*Y22516D01*
Y24496D02*X78030D01*
X78525Y24001D01*
Y23011D01*
X78030Y22516D01*
X76545D01*
X76050Y23011D02*X76545Y22516D01*
X76050Y24001D02*Y23011D01*
X76545Y24496D02*X76050Y24001D01*
X80010Y19843D02*X79515Y19348D01*
X80010Y20833D02*Y19843D01*
X79515Y21328D02*X80010Y20833D01*
X79515Y21328D02*X76545D01*
X76050Y20833D01*
X78030Y19843D02*X77535Y19348D01*
X78030Y21328D02*Y19843D01*
X76050Y20833D02*Y19843D01*
X76545Y19348D01*
X77535D02*X76545D01*
X138000Y41200D02*X140000D01*
X140500Y40700D01*
Y39700D01*
X140000Y39200D02*X140500Y39700D01*
X138500Y39200D02*X140000D01*
X138500Y41200D02*Y37200D01*
Y39200D02*X140500Y37200D01*
X142200D02*X143200D01*
X142700Y41200D02*Y37200D01*
X141700Y40200D02*X142700Y41200D01*
X144400Y37700D02*X144900Y37200D01*
X144400Y40700D02*Y37700D01*
Y40700D02*X144900Y41200D01*
X145900D01*
X146400Y40700D01*
Y37700D01*
X145900Y37200D02*X146400Y37700D01*
X144900Y37200D02*X145900D01*
X144400Y38200D02*X146400Y40200D01*
X28500Y32000D02*Y30500D01*
X29000Y32500D02*X28500Y32000D01*
X32000Y32500D02*X29000D01*
X32000D02*X32500Y32000D01*
Y30500D01*
X28500Y28800D02*Y27800D01*
X32500Y28300D02*X28500D01*
X31500Y29300D02*X32500Y28300D01*
X32000Y26600D02*X32500Y26100D01*
Y25100D01*
X32000Y24600D01*
X29000D01*
X28500Y25100D02*X29000Y24600D01*
X28500Y26100D02*Y25100D01*
X29000Y26600D02*X28500Y26100D01*
X30500D02*Y24600D01*
X107500Y51000D02*Y49500D01*
X108000Y51500D02*X107500Y51000D01*
X111000Y51500D02*X108000D01*
X111000D02*X111500Y51000D01*
Y49500D01*
X107500Y47800D02*Y46800D01*
X111500Y47300D02*X107500D01*
X110500Y48300D02*X111500Y47300D01*
X111000Y45600D02*X111500Y45100D01*
Y43600D01*
X111000Y43100D01*
X110000D01*
X107500Y45600D02*X110000Y43100D01*
X107500Y45600D02*Y43100D01*
X80000Y56500D02*X76500D01*
X76000Y56000D01*
Y55000D01*
X76500Y54500D01*
X80000D02*X76500D01*
X79500Y53300D02*X80000Y52800D01*
Y51300D01*
X79500Y50800D01*
X78500D01*
X76000Y53300D02*X78500Y50800D01*
X76000Y53300D02*Y50800D01*
X142500Y63700D02*X144500D01*
X145000Y63200D01*
Y62200D01*
X144500Y61700D02*X145000Y62200D01*
X143000Y61700D02*X144500D01*
X143000Y63700D02*Y59700D01*
Y61700D02*X145000Y59700D01*
X146700D02*X147700D01*
X147200Y63700D02*Y59700D01*
X146200Y62700D02*X147200Y63700D01*
X224480Y44510D02*X224975Y44015D01*
X222995Y44510D02*X224480D01*
X222500Y44015D02*X222995Y44510D01*
X222500Y44015D02*Y41045D01*
X222995Y40550D01*
X224480D01*
X224975Y41045D01*
Y42035D02*Y41045D01*
X224480Y42530D02*X224975Y42035D01*
X223490Y42530D02*X224480D01*
X226163Y44510D02*Y40550D01*
Y44510D02*Y44015D01*
X228638Y41540D01*
Y44510D02*Y40550D01*
X230321Y44510D02*Y40550D01*
X231806Y44510D02*X232301Y44015D01*
Y41045D01*
X231806Y40550D02*X232301Y41045D01*
X229826Y40550D02*X231806D01*
X229826Y44510D02*X231806D01*
X222500Y22030D02*X224480D01*
X226163Y20050D02*X227153D01*
X226658Y24010D02*Y20050D01*
X225668Y23020D02*X226658Y24010D01*
X228341D02*X230321D01*
X228341D02*Y22030D01*
X228836Y22525D01*
X229826D01*
X230321Y22030D01*
Y20545D01*
X229826Y20050D02*X230321Y20545D01*
X228836Y20050D02*X229826D01*
X228341Y20545D02*X228836Y20050D01*
X231509Y24010D02*Y21040D01*
X232499Y20050D01*
X233489Y21040D01*
Y24010D02*Y21040D01*
X222995Y10550D02*X224480D01*
X222500Y11045D02*X222995Y10550D01*
X222500Y14015D02*Y11045D01*
Y14015D02*X222995Y14510D01*
X224480D01*
X225668D02*Y10550D01*
Y12035D02*X226163Y12530D01*
X227153D01*
X227648Y12035D01*
Y10550D01*
X230321Y12530D02*X230816Y12035D01*
X229331Y12530D02*X230321D01*
X228836Y12035D02*X229331Y12530D01*
X228836Y12035D02*Y11045D01*
X229331Y10550D01*
X230816Y12530D02*Y11045D01*
X231311Y10550D01*
X229331D02*X230321D01*
X230816Y11045D01*
X232994Y10550D02*X234479D01*
X234974Y11045D01*
X234479Y11540D02*X234974Y11045D01*
X232994Y11540D02*X234479D01*
X232499Y12035D02*X232994Y11540D01*
X232499Y12035D02*X232994Y12530D01*
X234479D01*
X234974Y12035D01*
X232499Y11045D02*X232994Y10550D01*
X236657D02*X238142D01*
X238637Y11045D01*
X238142Y11540D02*X238637Y11045D01*
X236657Y11540D02*X238142D01*
X236162Y12035D02*X236657Y11540D01*
X236162Y12035D02*X236657Y12530D01*
X238142D01*
X238637Y12035D01*
X236162Y11045D02*X236657Y10550D01*
X239825Y13520D02*Y13025D01*
Y12035D02*Y10550D01*
X241310D02*X242795D01*
X243290Y11045D01*
X242795Y11540D02*X243290Y11045D01*
X241310Y11540D02*X242795D01*
X240815Y12035D02*X241310Y11540D01*
X240815Y12035D02*X241310Y12530D01*
X242795D01*
X243290Y12035D01*
X240815Y11045D02*X241310Y10550D01*
X224480Y34010D02*X224975Y33515D01*
X222995Y34010D02*X224480D01*
X222500Y33515D02*X222995Y34010D01*
X222500Y33515D02*Y30545D01*
X222995Y30050D01*
X224480D01*
X224975Y30545D01*
Y31535D02*Y30545D01*
X224480Y32030D02*X224975Y31535D01*
X223490Y32030D02*X224480D01*
X226163Y34010D02*Y30050D01*
Y34010D02*Y33515D01*
X228638Y31040D01*
Y34010D02*Y30050D01*
X230321Y34010D02*Y30050D01*
X231806Y34010D02*X232301Y33515D01*
Y30545D01*
X231806Y30050D02*X232301Y30545D01*
X229826Y30050D02*X231806D01*
X229826Y34010D02*X231806D01*
X309010Y38505D02*X305545D01*
X305050Y38010D01*
X307525Y39000D02*Y38010D01*
X306535Y37020D02*X305545D01*
X306535D02*X307030Y36525D01*
Y35535D01*
X306535Y35040D01*
X305545D01*
X305050Y35535D02*X305545Y35040D01*
X305050Y36525D02*Y35535D01*
X305545Y37020D02*X305050Y36525D01*
X306535Y33852D02*X305545D01*
X306535D02*X307030Y33357D01*
Y32367D01*
X306535Y31872D01*
X305545D01*
X305050Y32367D02*X305545Y31872D01*
X305050Y33357D02*Y32367D01*
X305545Y33852D02*X305050Y33357D01*
X309010Y28902D02*X305050D01*
X309010D02*X307525Y27417D01*
X309010Y25932D01*
X305050D01*
X308020Y24744D02*X307525D01*
X306535D02*X305050D01*
X306535Y23259D02*X305050D01*
X306535D02*X307030Y22764D01*
Y22269D01*
X306535Y21774D01*
X305050D01*
X307030Y23754D02*X306535Y23259D01*
X308020Y20586D02*X307525D01*
X306535D02*X305050D01*
X309010Y19596D02*X305050D01*
X309010Y17121D02*X305050D01*
X307030Y19596D02*Y17121D01*
X305050Y15438D02*Y13953D01*
X305545Y15933D02*X305050Y15438D01*
X306535Y15933D02*X305545D01*
X306535D02*X307030Y15438D01*
Y14448D01*
X306535Y13953D01*
X306040Y15933D02*Y13953D01*
X306535D01*
X307030Y12765D02*X305050Y10785D01*
Y12765D02*X307030Y10785D01*
X305050Y9597D02*X307030Y7617D01*
X308515D02*X307030D01*
X309010Y8112D02*X308515Y7617D01*
X309010Y9102D02*Y8112D01*
X308515Y9597D02*X309010Y9102D01*
X308515Y9597D02*X307525D01*
X307030Y9102D01*
Y7617D01*
X276010Y38505D02*X272545D01*
X272050Y38010D01*
X274525Y39000D02*Y38010D01*
X273535Y37020D02*X272545D01*
X273535D02*X274030Y36525D01*
Y35535D01*
X273535Y35040D01*
X272545D01*
X272050Y35535D02*X272545Y35040D01*
X272050Y36525D02*Y35535D01*
X272545Y37020D02*X272050Y36525D01*
X273535Y33852D02*X272545D01*
X273535D02*X274030Y33357D01*
Y32367D01*
X273535Y31872D01*
X272545D01*
X272050Y32367D02*X272545Y31872D01*
X272050Y33357D02*Y32367D01*
X272545Y33852D02*X272050Y33357D01*
X276010Y28902D02*X272050D01*
X276010D02*X274525Y27417D01*
X276010Y25932D01*
X272050D01*
X275020Y24744D02*X274525D01*
X273535D02*X272050D01*
X273535Y23259D02*X272050D01*
X273535D02*X274030Y22764D01*
Y22269D01*
X273535Y21774D01*
X272050D01*
X274030Y23754D02*X273535Y23259D01*
X275020Y20586D02*X274525D01*
X273535D02*X272050D01*
X276010Y19596D02*X272050D01*
X276010Y17121D02*X272050D01*
X274030Y19596D02*Y17121D01*
X272050Y15438D02*Y13953D01*
X272545Y15933D02*X272050Y15438D01*
X273535Y15933D02*X272545D01*
X273535D02*X274030Y15438D01*
Y14448D01*
X273535Y13953D01*
X273040Y15933D02*Y13953D01*
X273535D01*
X274030Y12765D02*X272050Y10785D01*
Y12765D02*X274030Y10785D01*
X272050Y9597D02*X274030Y7617D01*
X275515D02*X274030D01*
X276010Y8112D02*X275515Y7617D01*
X276010Y9102D02*Y8112D01*
X275515Y9597D02*X276010Y9102D01*
X275515Y9597D02*X274525D01*
X274030Y9102D01*
Y7617D01*
X305000Y57000D02*Y55500D01*
X305500Y57500D02*X305000Y57000D01*
X308500Y57500D02*X305500D01*
X308500D02*X309000Y57000D01*
Y55500D01*
X308500Y54300D02*X305500D01*
X308500D02*X309000Y53800D01*
Y52800D01*
X308500Y52300D01*
X305500D01*
X305000Y52800D02*X305500Y52300D01*
X305000Y53800D02*Y52800D01*
X305500Y54300D02*X305000Y53800D01*
X309000Y51100D02*X305000D01*
X309000D02*X308500D01*
X306000Y48600D01*
X309000D02*X305000D01*
X309000Y47400D02*X305000D01*
X309000D02*X308500D01*
X306000Y44900D01*
X309000D02*X305000D01*
Y43200D02*Y42200D01*
X309000Y42700D02*X305000D01*
X308000Y43700D02*X309000Y42700D01*
X272000Y57000D02*Y55500D01*
X272500Y57500D02*X272000Y57000D01*
X275500Y57500D02*X272500D01*
X275500D02*X276000Y57000D01*
Y55500D01*
X275500Y54300D02*X272500D01*
X275500D02*X276000Y53800D01*
Y52800D01*
X275500Y52300D01*
X272500D01*
X272000Y52800D02*X272500Y52300D01*
X272000Y53800D02*Y52800D01*
X272500Y54300D02*X272000Y53800D01*
X276000Y51100D02*X272000D01*
X276000D02*X275500D01*
X273000Y48600D01*
X276000D02*X272000D01*
X276000Y47400D02*X272000D01*
X276000D02*X275500D01*
X273000Y44900D01*
X276000D02*X272000D01*
X274000Y43700D02*X276000Y41700D01*
X274000Y43700D02*Y41200D01*
X276000Y41700D02*X272000D01*
X222500Y52530D02*X224480D01*
X223490Y53520D02*Y51540D01*
X226163Y50550D02*X227153D01*
X226658Y54510D02*Y50550D01*
X225668Y53520D02*X226658Y54510D01*
X228341D02*X230321D01*
X228341D02*Y52530D01*
X228836Y53025D01*
X229826D01*
X230321Y52530D01*
Y51045D01*
X229826Y50550D02*X230321Y51045D01*
X228836Y50550D02*X229826D01*
X228341Y51045D02*X228836Y50550D01*
X231509Y54510D02*Y51540D01*
X232499Y50550D01*
X233489Y51540D01*
Y54510D02*Y51540D01*
X190500Y70500D02*X192000D01*
X190000Y71000D02*X190500Y70500D01*
X190000Y74000D02*Y71000D01*
Y74000D02*X190500Y74500D01*
X192000D01*
X193200Y74000D02*Y71000D01*
Y74000D02*X193700Y74500D01*
X194700D01*
X195200Y74000D01*
Y71000D01*
X194700Y70500D02*X195200Y71000D01*
X193700Y70500D02*X194700D01*
X193200Y71000D02*X193700Y70500D01*
X196400Y74500D02*Y70500D01*
Y74500D02*Y74000D01*
X198900Y71500D01*
Y74500D02*Y70500D01*
X200100Y74500D02*Y70500D01*
Y74500D02*Y74000D01*
X202600Y71500D01*
Y74500D02*Y70500D01*
X203800D02*X205800Y72500D01*
Y74000D02*Y72500D01*
X205300Y74500D02*X205800Y74000D01*
X204300Y74500D02*X205300D01*
X203800Y74000D02*X204300Y74500D01*
X203800Y74000D02*Y73000D01*
X204300Y72500D01*
X205800D01*
X235500Y90500D02*Y89000D01*
X236000Y91000D02*X235500Y90500D01*
X239000Y91000D02*X236000D01*
X239000D02*X239500Y90500D01*
Y89000D01*
X239000Y87800D02*X236000D01*
X239000D02*X239500Y87300D01*
Y86300D01*
X239000Y85800D01*
X236000D01*
X235500Y86300D02*X236000Y85800D01*
X235500Y87300D02*Y86300D01*
X236000Y87800D02*X235500Y87300D01*
X239500Y84600D02*X235500D01*
X239500D02*X239000D01*
X236500Y82100D01*
X239500D02*X235500D01*
X239500Y80900D02*X235500D01*
X239500D02*X239000D01*
X236500Y78400D01*
X239500D02*X235500D01*
Y77200D02*X238000Y74700D01*
X239500D02*X238000D01*
X239500Y77200D02*Y74700D01*
X223000Y59500D02*X224500D01*
X222500Y60000D02*X223000Y59500D01*
X222500Y63000D02*Y60000D01*
Y63000D02*X223000Y63500D01*
X224500D01*
X225700Y63000D02*Y60000D01*
Y63000D02*X226200Y63500D01*
X227200D01*
X227700Y63000D01*
Y60000D01*
X227200Y59500D02*X227700Y60000D01*
X226200Y59500D02*X227200D01*
X225700Y60000D02*X226200Y59500D01*
X228900Y63500D02*Y59500D01*
Y63500D02*Y63000D01*
X231400Y60500D01*
Y63500D02*Y59500D01*
X232600Y63500D02*Y59500D01*
Y63500D02*Y63000D01*
X235100Y60500D01*
Y63500D02*Y59500D01*
X236800D02*X237800D01*
X237300Y63500D02*Y59500D01*
X236300Y62500D02*X237300Y63500D01*
X240800Y60000D02*X241300Y59500D01*
X240800Y63000D02*Y62000D01*
Y63000D02*X241300Y63500D01*
X240800Y61000D02*X242300Y62500D01*
X241300Y59500D02*X241800D01*
X242800Y60500D01*
X240800Y62000D02*X243300Y59500D01*
X241300Y63500D02*X241800D01*
X242300Y63000D01*
Y62500D01*
X240800Y61000D02*Y60000D01*
X246800Y59500D02*X248300D01*
X246300Y60000D02*X246800Y59500D01*
X246300Y63000D02*Y60000D01*
Y63000D02*X246800Y63500D01*
X248300D01*
X249500Y63000D02*Y60000D01*
Y63000D02*X250000Y63500D01*
X251000D01*
X251500Y63000D01*
Y60000D01*
X251000Y59500D02*X251500Y60000D01*
X250000Y59500D02*X251000D01*
X249500Y60000D02*X250000Y59500D01*
X252700Y63500D02*Y59500D01*
Y63500D02*Y63000D01*
X255200Y60500D01*
Y63500D02*Y59500D01*
X256400Y63500D02*Y59500D01*
Y63500D02*Y63000D01*
X258900Y60500D01*
Y63500D02*Y59500D01*
X260100Y61500D02*X262100Y63500D01*
X260100Y61500D02*X262600D01*
X262100Y63500D02*Y59500D01*
X266100Y63500D02*Y59500D01*
X265600Y63500D02*X267600D01*
X268100Y63000D01*
Y62000D01*
X267600Y61500D02*X268100Y62000D01*
X266100Y61500D02*X267600D01*
X269300Y62500D02*Y62000D01*
Y61000D02*Y59500D01*
X270800Y61000D02*Y59500D01*
Y61000D02*X271300Y61500D01*
X271800D01*
X272300Y61000D01*
Y59500D01*
X270300Y61500D02*X270800Y61000D01*
X273500D02*Y60000D01*
Y61000D02*X274000Y61500D01*
X275000D01*
X275500Y61000D01*
Y60000D01*
X275000Y59500D02*X275500Y60000D01*
X274000Y59500D02*X275000D01*
X273500Y60000D02*X274000Y59500D01*
X276700Y61500D02*Y60000D01*
X277200Y59500D01*
X278200D01*
X278700Y60000D01*
Y61500D02*Y60000D01*
X280400Y63500D02*Y60000D01*
X280900Y59500D01*
X279900Y62000D02*X280900D01*
X274000Y74700D02*X275500D01*
X273500Y75200D02*X274000Y74700D01*
X273500Y78200D02*Y75200D01*
Y78200D02*X274000Y78700D01*
X275500D01*
X277200Y74700D02*X278200D01*
X277700Y78700D02*Y74700D01*
X276700Y77700D02*X277700Y78700D01*
X279400Y75200D02*X279900Y74700D01*
X279400Y78200D02*Y75200D01*
Y78200D02*X279900Y78700D01*
X280900D01*
X281400Y78200D01*
Y75200D01*
X280900Y74700D02*X281400Y75200D01*
X279900Y74700D02*X280900D01*
X279400Y75700D02*X281400Y77700D01*
X54000Y69000D02*Y72500D01*
X53500Y73000D01*
X52500D01*
X52000Y72500D01*
Y69000D02*Y72500D01*
X50300Y73000D02*X49300D01*
X49800Y69000D02*Y73000D01*
X50800Y70000D02*X49800Y69000D01*
X177000Y28200D02*X178500D01*
X176500Y28700D02*X177000Y28200D01*
X176500Y31700D02*Y28700D01*
Y31700D02*X177000Y32200D01*
X178500D01*
X180200Y28200D02*X181200D01*
X180700Y32200D02*Y28200D01*
X179700Y31200D02*X180700Y32200D01*
X182900Y28200D02*X183900D01*
X183400Y32200D02*Y28200D01*
X182400Y31200D02*X183400Y32200D01*
X53000Y154500D02*Y151500D01*
Y154500D02*X53500Y155000D01*
X54500D01*
X55000Y154500D01*
Y151500D01*
X54500Y151000D02*X55000Y151500D01*
X53500Y151000D02*X54500D01*
X53000Y151500D02*X53500Y151000D01*
X54000Y152000D02*X55000Y151000D01*
X58200Y155000D02*X58700Y154500D01*
X56700Y155000D02*X58200D01*
X56200Y154500D02*X56700Y155000D01*
X56200Y154500D02*Y151500D01*
X56700Y151000D01*
X58200D01*
X58700Y151500D01*
Y152500D02*Y151500D01*
X58200Y153000D02*X58700Y152500D01*
X57200Y153000D02*X58200D01*
X62200Y155000D02*Y151000D01*
X61700Y155000D02*X63700D01*
X64200Y154500D01*
Y153500D01*
X63700Y153000D02*X64200Y153500D01*
X62200Y153000D02*X63700D01*
X65400Y155000D02*X66400D01*
X65900D02*Y151000D01*
X65400D02*X66400D01*
X67600Y155000D02*Y151000D01*
Y155000D02*Y154500D01*
X70100Y152000D01*
Y155000D02*Y151000D01*
X71300Y154500D02*X71800Y155000D01*
X72800D01*
X73300Y154500D01*
Y151500D01*
X72800Y151000D02*X73300Y151500D01*
X71800Y151000D02*X72800D01*
X71300Y151500D02*X71800Y151000D01*
Y153000D02*X73300D01*
X76300D02*X78300D01*
X81300Y155000D02*Y151000D01*
X82800Y152500D01*
X84300Y151000D01*
Y155000D02*Y151000D01*
X85500Y155000D02*Y151000D01*
X88000Y155000D02*Y151000D01*
X85500Y153000D02*X88000D01*
X89200Y155000D02*X90200D01*
X89700D02*Y151000D01*
X89200D02*X90200D01*
X91400Y155000D02*X93400D01*
X92400D02*Y151000D01*
X94600Y153000D02*X96100D01*
X94600Y151000D02*X96600D01*
X94600Y155000D02*Y151000D01*
Y155000D02*X96600D01*
X99600Y153000D02*X101600D01*
X105100Y151000D02*X106600D01*
X104600Y151500D02*X105100Y151000D01*
X104600Y154500D02*Y151500D01*
Y154500D02*X105100Y155000D01*
X106600D01*
X107800Y154500D02*Y151500D01*
Y154500D02*X108300Y155000D01*
X109300D01*
X109800Y154500D01*
Y151500D01*
X109300Y151000D02*X109800Y151500D01*
X108300Y151000D02*X109300D01*
X107800Y151500D02*X108300Y151000D01*
X111000Y155000D02*Y151000D01*
Y155000D02*Y154500D01*
X113500Y152000D01*
Y155000D02*Y151000D01*
X114700Y155000D02*Y151000D01*
Y155000D02*Y154500D01*
X117200Y152000D01*
Y155000D02*Y151000D01*
X118400D02*X120900Y153500D01*
Y155000D02*Y153500D01*
X118400Y155000D02*X120900D01*
X124400D02*Y151000D01*
X123900Y155000D02*X125900D01*
X126400Y154500D01*
Y153500D01*
X125900Y153000D02*X126400Y153500D01*
X124400Y153000D02*X125900D01*
X127600Y155000D02*X128600D01*
X128100D02*Y151000D01*
X127600D02*X128600D01*
X129800Y155000D02*Y151000D01*
Y155000D02*Y154500D01*
X132300Y152000D01*
Y155000D02*Y151000D01*
X134000D02*X135000D01*
X134500Y155000D02*Y151000D01*
X133500Y154000D02*X134500Y155000D01*
X138000Y153000D02*X140000D01*
X145000Y155000D02*X145500Y154500D01*
X143500Y155000D02*X145000D01*
X143000Y154500D02*X143500Y155000D01*
X143000Y154500D02*Y153500D01*
X143500Y153000D01*
X145000D01*
X145500Y152500D01*
Y151500D01*
X145000Y151000D02*X145500Y151500D01*
X143500Y151000D02*X145000D01*
X143000Y151500D02*X143500Y151000D01*
X146700Y155000D02*X147700D01*
X147200D02*Y151000D01*
X146700D02*X147700D01*
X150900Y155000D02*X151400Y154500D01*
X149400Y155000D02*X150900D01*
X148900Y154500D02*X149400Y155000D01*
X148900Y154500D02*Y151500D01*
X149400Y151000D01*
X150900D01*
X151400Y151500D01*
Y152500D02*Y151500D01*
X150900Y153000D02*X151400Y152500D01*
X149900Y153000D02*X150900D01*
X152600Y155000D02*Y151000D01*
Y155000D02*Y154500D01*
X155100Y152000D01*
Y155000D02*Y151000D01*
X156300Y154500D02*Y151000D01*
Y154500D02*X156800Y155000D01*
X158300D01*
X158800Y154500D01*
Y151000D01*
X156300Y153000D02*X158800D01*
X160000Y155000D02*Y151000D01*
X162000D01*
X163200Y153000D02*X165200D01*
X164200Y154000D02*Y152000D01*
X53000Y162000D02*X54000D01*
X53500D02*Y158000D01*
X53000D02*X54000D01*
X55200Y162000D02*Y158000D01*
Y162000D02*Y161500D01*
X57700Y159000D01*
Y162000D02*Y158000D01*
X59400Y162000D02*Y158000D01*
X58900Y162000D02*X60900D01*
X61400Y161500D01*
Y160500D01*
X60900Y160000D02*X61400Y160500D01*
X59400Y160000D02*X60900D01*
X62600Y162000D02*Y158500D01*
X63100Y158000D01*
X64100D01*
X64600Y158500D01*
Y162000D02*Y158500D01*
X65800Y162000D02*X67800D01*
X66800D02*Y158000D01*
X126000Y177500D02*X128000Y179500D01*
X126000Y177500D02*X128500D01*
X128000Y179500D02*Y175500D01*
X126000Y162000D02*X126500Y162500D01*
X128000D01*
X128500Y162000D01*
Y161000D01*
X126000Y158500D02*X128500Y161000D01*
X126000Y158500D02*X128500D01*
X299500Y180550D02*X301480D01*
X301975Y181045D01*
Y182035D02*Y181045D01*
X301480Y182530D02*X301975Y182035D01*
X299995Y182530D02*X301480D01*
X299995Y184510D02*Y180550D01*
X299500Y184510D02*X301480D01*
X301975Y184015D01*
Y183025D01*
X301480Y182530D02*X301975Y183025D01*
X303163Y184510D02*Y180550D01*
Y184510D02*Y184015D01*
X305638Y181540D01*
Y184510D02*Y180550D01*
X307321D02*X308806D01*
X306826Y181045D02*X307321Y180550D01*
X306826Y184015D02*Y181045D01*
Y184015D02*X307321Y184510D01*
X308806D01*
X241495Y154550D02*X242980D01*
X241000Y155045D02*X241495Y154550D01*
X241000Y158015D02*Y155045D01*
Y158015D02*X241495Y158510D01*
X242980D01*
X244168Y157520D02*Y157025D01*
Y156035D02*Y154550D01*
X245653Y156035D02*Y154550D01*
Y156035D02*X246148Y156530D01*
X247138D01*
X245158D02*X245653Y156035D01*
X248821Y156530D02*X250306D01*
X248326Y156035D02*X248821Y156530D01*
X248326Y156035D02*Y155045D01*
X248821Y154550D01*
X250306D01*
X251494Y156530D02*Y155045D01*
X251989Y154550D01*
X252979D01*
X253474Y155045D01*
Y156530D02*Y155045D01*
X254662Y157520D02*Y157025D01*
Y156035D02*Y154550D01*
X256147Y158510D02*Y155045D01*
X256642Y154550D01*
X255652Y157025D02*X256642D01*
X259909Y158510D02*Y154550D01*
X261394Y158510D02*X261889Y158015D01*
Y155045D01*
X261394Y154550D02*X261889Y155045D01*
X259414Y154550D02*X261394D01*
X259414Y158510D02*X261394D01*
X263572Y154550D02*X265057D01*
X263077Y155045D02*X263572Y154550D01*
X263077Y156035D02*Y155045D01*
Y156035D02*X263572Y156530D01*
X264562D01*
X265057Y156035D01*
X263077Y155540D02*X265057D01*
Y156035D01*
X266740Y154550D02*X268225D01*
X268720Y155045D01*
X268225Y155540D02*X268720Y155045D01*
X266740Y155540D02*X268225D01*
X266245Y156035D02*X266740Y155540D01*
X266245Y156035D02*X266740Y156530D01*
X268225D01*
X268720Y156035D01*
X266245Y155045D02*X266740Y154550D01*
X269908Y157520D02*Y157025D01*
Y156035D02*Y154550D01*
X272383Y156530D02*X272878Y156035D01*
X271393Y156530D02*X272383D01*
X270898Y156035D02*X271393Y156530D01*
X270898Y156035D02*Y155045D01*
X271393Y154550D01*
X272383D01*
X272878Y155045D01*
X270898Y153560D02*X271393Y153065D01*
X272383D01*
X272878Y153560D01*
Y156530D02*Y153560D01*
X274561Y156035D02*Y154550D01*
Y156035D02*X275056Y156530D01*
X275551D01*
X276046Y156035D01*
Y154550D01*
X274066Y156530D02*X274561Y156035D01*
X277234Y157025D02*X277729D01*
X277234Y156035D02*X277729D01*
X280699Y158510D02*X281689D01*
X281194D02*Y154550D01*
X280699D02*X281689D01*
X282877Y158510D02*X284362D01*
Y155045D01*
X283867Y154550D02*X284362Y155045D01*
X283372Y154550D02*X283867D01*
X282877Y155045D02*X283372Y154550D01*
X287530Y158510D02*X288025Y158015D01*
X286045Y158510D02*X287530D01*
X285550Y158015D02*X286045Y158510D01*
X285550Y158015D02*Y157025D01*
X286045Y156530D01*
X287530D01*
X288025Y156035D01*
Y155045D01*
X287530Y154550D02*X288025Y155045D01*
X286045Y154550D02*X287530D01*
X285550Y155045D02*X286045Y154550D01*
X290995Y155045D02*X291490Y154550D01*
X290995Y158015D02*Y157025D01*
Y158015D02*X291490Y158510D01*
X290995Y156035D02*X292480Y157520D01*
X291490Y154550D02*X291985D01*
X292975Y155540D01*
X290995Y157025D02*X293470Y154550D01*
X291490Y158510D02*X291985D01*
X292480Y158015D01*
Y157520D01*
X290995Y156035D02*Y155045D01*
X296440Y156530D02*X297925D01*
X296440Y154550D02*X298420D01*
X296440Y158510D02*Y154550D01*
Y158510D02*X298420D01*
X299608Y156530D02*X301093D01*
X299608Y154550D02*X301588D01*
X299608Y158510D02*Y154550D01*
Y158510D02*X301588D01*
X302776D02*Y154550D01*
Y158510D02*X304756D01*
X302776Y156530D02*X304261D01*
X241495Y166010D02*Y162050D01*
X241000Y166010D02*X242980D01*
X243475Y165515D01*
Y164525D01*
X242980Y164030D02*X243475Y164525D01*
X241495Y164030D02*X242980D01*
X245158Y162050D02*X246643D01*
X244663Y162545D02*X245158Y162050D01*
X244663Y165515D02*Y162545D01*
Y165515D02*X245158Y166010D01*
X246643D01*
X247831Y162050D02*X249811D01*
X250306Y162545D01*
Y163535D02*Y162545D01*
X249811Y164030D02*X250306Y163535D01*
X248326Y164030D02*X249811D01*
X248326Y166010D02*Y162050D01*
X247831Y166010D02*X249811D01*
X250306Y165515D01*
Y164525D01*
X249811Y164030D02*X250306Y164525D01*
X253771Y166010D02*Y162050D01*
X255256Y166010D02*X255751Y165515D01*
Y162545D01*
X255256Y162050D02*X255751Y162545D01*
X253276Y162050D02*X255256D01*
X253276Y166010D02*X255256D01*
X257434Y162050D02*X258919D01*
X256939Y162545D02*X257434Y162050D01*
X256939Y163535D02*Y162545D01*
Y163535D02*X257434Y164030D01*
X258424D01*
X258919Y163535D01*
X256939Y163040D02*X258919D01*
Y163535D01*
X260602Y162050D02*X262087D01*
X262582Y162545D01*
X262087Y163040D02*X262582Y162545D01*
X260602Y163040D02*X262087D01*
X260107Y163535D02*X260602Y163040D01*
X260107Y163535D02*X260602Y164030D01*
X262087D01*
X262582Y163535D01*
X260107Y162545D02*X260602Y162050D01*
X263770Y165020D02*Y164525D01*
Y163535D02*Y162050D01*
X266245Y164030D02*X266740Y163535D01*
X265255Y164030D02*X266245D01*
X264760Y163535D02*X265255Y164030D01*
X264760Y163535D02*Y162545D01*
X265255Y162050D01*
X266245D01*
X266740Y162545D01*
X264760Y161060D02*X265255Y160565D01*
X266245D01*
X266740Y161060D01*
Y164030D02*Y161060D01*
X268423Y163535D02*Y162050D01*
Y163535D02*X268918Y164030D01*
X269413D01*
X269908Y163535D01*
Y162050D01*
X267928Y164030D02*X268423Y163535D01*
X271096Y164525D02*X271591D01*
X271096Y163535D02*X271591D01*
X274561Y164030D02*X276046D01*
X274561Y162050D02*X276541D01*
X274561Y166010D02*Y162050D01*
Y166010D02*X276541D01*
X277729Y164030D02*X279214D01*
X277729Y162050D02*X279709D01*
X277729Y166010D02*Y162050D01*
Y166010D02*X279709D01*
X280897D02*Y162050D01*
Y166010D02*X282877D01*
X280897Y164030D02*X282382D01*
X253037Y181190D02*X254537D01*
X252537Y181690D02*X253037Y181190D01*
X252537Y184690D02*Y181690D01*
Y184690D02*X253037Y185190D01*
X254537D01*
X255737Y184690D02*Y181690D01*
Y184690D02*X256237Y185190D01*
X257237D01*
X257737Y184690D01*
Y181690D01*
X257237Y181190D02*X257737Y181690D01*
X256237Y181190D02*X257237D01*
X255737Y181690D02*X256237Y181190D01*
X258937Y185190D02*Y181190D01*
Y185190D02*Y184690D01*
X261437Y182190D01*
Y185190D02*Y181190D01*
X262637Y185190D02*Y181190D01*
Y185190D02*Y184690D01*
X265137Y182190D01*
Y185190D02*Y181190D01*
X266337Y184690D02*X266837Y185190D01*
X267837D01*
X268337Y184690D01*
Y181690D01*
X267837Y181190D02*X268337Y181690D01*
X266837Y181190D02*X267837D01*
X266337Y181690D02*X266837Y181190D01*
Y183190D02*X268337D01*
X243000Y186500D02*Y185000D01*
X243500Y187000D02*X243000Y186500D01*
X246500Y187000D02*X243500D01*
X246500D02*X247000Y186500D01*
Y185000D01*
Y183800D02*Y181800D01*
Y183800D02*X245000D01*
X245500Y183300D01*
Y182300D01*
X245000Y181800D01*
X243500D01*
X243000Y182300D02*X243500Y181800D01*
X243000Y183300D02*Y182300D01*
X243500Y183800D02*X243000Y183300D01*
X57500Y182000D02*X58000Y181500D01*
X56000Y182000D02*X57500D01*
X55500Y181500D02*X56000Y182000D01*
X55500Y181500D02*Y180500D01*
X56000Y180000D01*
X57500D01*
X58000Y179500D01*
Y178500D01*
X57500Y178000D02*X58000Y178500D01*
X56000Y178000D02*X57500D01*
X55500Y178500D02*X56000Y178000D01*
X59700D02*X60700D01*
X60200Y182000D02*Y178000D01*
X59200Y181000D02*X60200Y182000D01*
X214500Y172000D02*X216000D01*
X214000Y172500D02*X214500Y172000D01*
X214000Y175500D02*Y172500D01*
Y175500D02*X214500Y176000D01*
X216000D01*
X218700D02*X219200Y175500D01*
X217700Y176000D02*X218700D01*
X217200Y175500D02*X217700Y176000D01*
X217200Y175500D02*Y172500D01*
X217700Y172000D01*
X218700Y174000D02*X219200Y173500D01*
X217200Y174000D02*X218700D01*
X217700Y172000D02*X218700D01*
X219200Y172500D01*
Y173500D02*Y172500D01*
X176000Y175400D02*X178000D01*
X178500Y174900D01*
Y173900D01*
X178000Y173400D02*X178500Y173900D01*
X176500Y173400D02*X178000D01*
X176500Y175400D02*Y171400D01*
Y173400D02*X178500Y171400D01*
X179700Y174900D02*X180200Y175400D01*
X181700D01*
X182200Y174900D01*
Y173900D01*
X179700Y171400D02*X182200Y173900D01*
X179700Y171400D02*X182200D01*
X183400Y173400D02*X185400Y175400D01*
X183400Y173400D02*X185900D01*
X185400Y175400D02*Y171400D01*
X178000Y156500D02*X179500D01*
X177500Y157000D02*X178000Y156500D01*
X177500Y160000D02*Y157000D01*
Y160000D02*X178000Y160500D01*
X179500D01*
X180700Y160000D02*Y157000D01*
Y160000D02*X181200Y160500D01*
X182200D01*
X182700Y160000D01*
Y157000D01*
X182200Y156500D02*X182700Y157000D01*
X181200Y156500D02*X182200D01*
X180700Y157000D02*X181200Y156500D01*
X183900Y160500D02*Y156500D01*
Y160500D02*Y160000D01*
X186400Y157500D01*
Y160500D02*Y156500D01*
X187600Y160500D02*Y156500D01*
Y160500D02*Y160000D01*
X190100Y157500D01*
Y160500D02*Y156500D01*
X192800Y160500D02*X193300Y160000D01*
X191800Y160500D02*X192800D01*
X191300Y160000D02*X191800Y160500D01*
X191300Y160000D02*Y157000D01*
X191800Y156500D01*
X192800Y158500D02*X193300Y158000D01*
X191300Y158500D02*X192800D01*
X191800Y156500D02*X192800D01*
X193300Y157000D01*
Y158000D02*Y157000D01*
X53000Y147500D02*Y144500D01*
Y147500D02*X53500Y148000D01*
X54500D01*
X55000Y147500D01*
Y144500D01*
X54500Y144000D02*X55000Y144500D01*
X53500Y144000D02*X54500D01*
X53000Y144500D02*X53500Y144000D01*
X54000Y145000D02*X55000Y144000D01*
X58200Y148000D02*X58700Y147500D01*
X56700Y148000D02*X58200D01*
X56200Y147500D02*X56700Y148000D01*
X56200Y147500D02*Y144500D01*
X56700Y144000D01*
X58200D01*
X58700Y144500D01*
Y145500D02*Y144500D01*
X58200Y146000D02*X58700Y145500D01*
X57200Y146000D02*X58200D01*
X62200Y148000D02*Y144000D01*
X61700Y148000D02*X63700D01*
X64200Y147500D01*
Y146500D01*
X63700Y146000D02*X64200Y146500D01*
X62200Y146000D02*X63700D01*
X65400Y148000D02*X66400D01*
X65900D02*Y144000D01*
X65400D02*X66400D01*
X67600Y148000D02*Y144000D01*
Y148000D02*Y147500D01*
X70100Y145000D01*
Y148000D02*Y144000D01*
X71300Y147500D02*X71800Y148000D01*
X73300D01*
X73800Y147500D01*
Y146500D01*
X71300Y144000D02*X73800Y146500D01*
X71300Y144000D02*X73800D01*
X76800Y146000D02*X78800D01*
X81800Y144000D02*X83800D01*
X84300Y144500D01*
Y145500D02*Y144500D01*
X83800Y146000D02*X84300Y145500D01*
X82300Y146000D02*X83800D01*
X82300Y148000D02*Y144000D01*
X81800Y148000D02*X83800D01*
X84300Y147500D01*
Y146500D01*
X83800Y146000D02*X84300Y146500D01*
X85500Y148000D02*Y144000D01*
X87500D01*
X88700Y147500D02*Y144000D01*
Y147500D02*X89200Y148000D01*
X90700D01*
X91200Y147500D01*
Y144000D01*
X88700Y146000D02*X91200D01*
X92900Y144000D02*X94400D01*
X92400Y144500D02*X92900Y144000D01*
X92400Y147500D02*Y144500D01*
Y147500D02*X92900Y148000D01*
X94400D01*
X95600D02*Y144000D01*
Y146000D02*X97600Y148000D01*
X95600Y146000D02*X97600Y144000D01*
X100600Y146000D02*X102600D01*
X106100Y144000D02*X107600D01*
X105600Y144500D02*X106100Y144000D01*
X105600Y147500D02*Y144500D01*
Y147500D02*X106100Y148000D01*
X107600D01*
X108800Y147500D02*Y144500D01*
Y147500D02*X109300Y148000D01*
X110300D01*
X110800Y147500D01*
Y144500D01*
X110300Y144000D02*X110800Y144500D01*
X109300Y144000D02*X110300D01*
X108800Y144500D02*X109300Y144000D01*
X112000Y148000D02*Y144000D01*
Y148000D02*Y147500D01*
X114500Y145000D01*
Y148000D02*Y144000D01*
X115700Y148000D02*Y144000D01*
Y148000D02*Y147500D01*
X118200Y145000D01*
Y148000D02*Y144000D01*
X119400D02*X121900Y146500D01*
Y148000D02*Y146500D01*
X119400Y148000D02*X121900D01*
X125400D02*Y144000D01*
X124900Y148000D02*X126900D01*
X127400Y147500D01*
Y146500D01*
X126900Y146000D02*X127400Y146500D01*
X125400Y146000D02*X126900D01*
X128600Y148000D02*X129600D01*
X129100D02*Y144000D01*
X128600D02*X129600D01*
X130800Y148000D02*Y144000D01*
Y148000D02*Y147500D01*
X133300Y145000D01*
Y148000D02*Y144000D01*
X134500Y147500D02*X135000Y148000D01*
X136500D01*
X137000Y147500D01*
Y146500D01*
X134500Y144000D02*X137000Y146500D01*
X134500Y144000D02*X137000D01*
X140000Y146000D02*X142000D01*
X147000Y148000D02*X147500Y147500D01*
X145500Y148000D02*X147000D01*
X145000Y147500D02*X145500Y148000D01*
X145000Y147500D02*Y146500D01*
X145500Y146000D01*
X147000D01*
X147500Y145500D01*
Y144500D01*
X147000Y144000D02*X147500Y144500D01*
X145500Y144000D02*X147000D01*
X145000Y144500D02*X145500Y144000D01*
X148700Y148000D02*X149700D01*
X149200D02*Y144000D01*
X148700D02*X149700D01*
X152900Y148000D02*X153400Y147500D01*
X151400Y148000D02*X152900D01*
X150900Y147500D02*X151400Y148000D01*
X150900Y147500D02*Y144500D01*
X151400Y144000D01*
X152900D01*
X153400Y144500D01*
Y145500D02*Y144500D01*
X152900Y146000D02*X153400Y145500D01*
X151900Y146000D02*X152900D01*
X154600Y148000D02*Y144000D01*
Y148000D02*Y147500D01*
X157100Y145000D01*
Y148000D02*Y144000D01*
X158300Y147500D02*Y144000D01*
Y147500D02*X158800Y148000D01*
X160300D01*
X160800Y147500D01*
Y144000D01*
X158300Y146000D02*X160800D01*
X162000Y148000D02*Y144000D01*
X164000D01*
X165200Y146000D02*X167200D01*
X228000Y145500D02*Y142000D01*
Y145500D02*X228500Y146000D01*
X230000D01*
X230500Y145500D01*
Y142000D01*
X228000Y144000D02*X230500D01*
X232200Y143500D02*Y140500D01*
X231700Y144000D02*X232200Y143500D01*
X232700Y144000D01*
X233700D01*
X234200Y143500D01*
Y142500D01*
X233700Y142000D02*X234200Y142500D01*
X232700Y142000D02*X233700D01*
X232200Y142500D02*X232700Y142000D01*
X235900Y143500D02*Y140500D01*
X235400Y144000D02*X235900Y143500D01*
X236400Y144000D01*
X237400D01*
X237900Y143500D01*
Y142500D01*
X237400Y142000D02*X237900Y142500D01*
X236400Y142000D02*X237400D01*
X235900Y142500D02*X236400Y142000D01*
X239100Y146000D02*Y142500D01*
X239600Y142000D01*
X240600Y144000D02*Y142500D01*
X241100Y142000D01*
X242600Y144000D02*Y141000D01*
X242100Y140500D02*X242600Y141000D01*
X241100Y140500D02*X242100D01*
X240600Y141000D02*X241100Y140500D01*
Y142000D02*X242100D01*
X242600Y142500D01*
X247100Y144000D02*X247600Y143500D01*
X246100Y144000D02*X247100D01*
X245600Y143500D02*X246100Y144000D01*
X245600Y143500D02*Y142500D01*
X246100Y142000D01*
X247600Y144000D02*Y142500D01*
X248100Y142000D01*
X246100D02*X247100D01*
X247600Y142500D01*
X251600Y142000D02*X253100D01*
X253600Y142500D01*
X253100Y143000D02*X253600Y142500D01*
X251600Y143000D02*X253100D01*
X251100Y143500D02*X251600Y143000D01*
X251100Y143500D02*X251600Y144000D01*
X253100D01*
X253600Y143500D01*
X251100Y142500D02*X251600Y142000D01*
X254800Y146000D02*Y142000D01*
Y143500D02*X255300Y144000D01*
X256300D01*
X256800Y143500D01*
Y142000D01*
X258500D02*X260000D01*
X258000Y142500D02*X258500Y142000D01*
X258000Y143500D02*Y142500D01*
Y143500D02*X258500Y144000D01*
X259500D01*
X260000Y143500D01*
X258000Y143000D02*X260000D01*
Y143500D01*
X261200Y145000D02*Y144500D01*
Y143500D02*Y142000D01*
X262200Y146000D02*Y142500D01*
X262700Y142000D01*
X265700Y146000D02*Y142000D01*
X265200D02*X265700Y142500D01*
X264200Y142000D02*X265200D01*
X263700Y142500D02*X264200Y142000D01*
X263700Y143500D02*Y142500D01*
Y143500D02*X264200Y144000D01*
X265200D01*
X265700Y143500D01*
X268700D02*Y142500D01*
Y143500D02*X269200Y144000D01*
X270200D01*
X270700Y143500D01*
Y142500D01*
X270200Y142000D02*X270700Y142500D01*
X269200Y142000D02*X270200D01*
X268700Y142500D02*X269200Y142000D01*
X271900Y144000D02*Y143000D01*
X272900Y142000D01*
X273900Y143000D01*
Y144000D02*Y143000D01*
X275600Y142000D02*X277100D01*
X275100Y142500D02*X275600Y142000D01*
X275100Y143500D02*Y142500D01*
Y143500D02*X275600Y144000D01*
X276600D01*
X277100Y143500D01*
X275100Y143000D02*X277100D01*
Y143500D01*
X278800D02*Y142000D01*
Y143500D02*X279300Y144000D01*
X280300D01*
X278300D02*X278800Y143500D01*
X283800Y142000D02*X285300D01*
X283300Y142500D02*X283800Y142000D01*
X283300Y145500D02*Y142500D01*
Y145500D02*X283800Y146000D01*
X285300D01*
X287000Y142000D02*X288000D01*
X287500Y146000D02*Y142000D01*
X286500Y145000D02*X287500Y146000D01*
X289200Y142500D02*X289700Y142000D01*
X289200Y145500D02*Y144500D01*
Y145500D02*X289700Y146000D01*
X289200Y143500D02*X290700Y145000D01*
X289700Y142000D02*X290200D01*
X291200Y143000D01*
X289200Y144500D02*X291700Y142000D01*
X289700Y146000D02*X290200D01*
X290700Y145500D01*
Y145000D01*
X289200Y143500D02*Y142500D01*
X292900Y146000D02*X294900D01*
X295400Y145500D01*
Y144500D01*
X294900Y144000D02*X295400Y144500D01*
X293400Y144000D02*X294900D01*
X293400Y146000D02*Y142000D01*
Y144000D02*X295400Y142000D01*
X297100D02*X298100D01*
X297600Y146000D02*Y142000D01*
X296600Y145000D02*X297600Y146000D01*
X202500Y147000D02*X204000D01*
X202000Y147500D02*X202500Y147000D01*
X202000Y150500D02*Y147500D01*
Y150500D02*X202500Y151000D01*
X204000D01*
X205200Y147000D02*X207700Y149500D01*
Y151000D02*Y149500D01*
X205200Y151000D02*X207700D01*
X53000Y140500D02*Y137500D01*
Y140500D02*X53500Y141000D01*
X54500D01*
X55000Y140500D01*
Y137500D01*
X54500Y137000D02*X55000Y137500D01*
X53500Y137000D02*X54500D01*
X53000Y137500D02*X53500Y137000D01*
X54000Y138000D02*X55000Y137000D01*
X58200Y141000D02*X58700Y140500D01*
X56700Y141000D02*X58200D01*
X56200Y140500D02*X56700Y141000D01*
X56200Y140500D02*Y137500D01*
X56700Y137000D01*
X58200D01*
X58700Y137500D01*
Y138500D02*Y137500D01*
X58200Y139000D02*X58700Y138500D01*
X57200Y139000D02*X58200D01*
X62200Y141000D02*Y137000D01*
X61700Y141000D02*X63700D01*
X64200Y140500D01*
Y139500D01*
X63700Y139000D02*X64200Y139500D01*
X62200Y139000D02*X63700D01*
X65400Y141000D02*X66400D01*
X65900D02*Y137000D01*
X65400D02*X66400D01*
X67600Y141000D02*Y137000D01*
Y141000D02*Y140500D01*
X70100Y138000D01*
Y141000D02*Y137000D01*
X71300Y139000D02*X73300Y141000D01*
X71300Y139000D02*X73800D01*
X73300Y141000D02*Y137000D01*
X76800Y139000D02*X78800D01*
X81800Y141000D02*Y137000D01*
X83300Y138500D01*
X84800Y137000D01*
Y141000D02*Y137000D01*
X86000Y141000D02*Y137000D01*
X88500Y141000D02*Y137000D01*
X86000Y139000D02*X88500D01*
X89700Y141000D02*X90700D01*
X90200D02*Y137000D01*
X89700D02*X90700D01*
X91900Y141000D02*X93900D01*
X92900D02*Y137000D01*
X95100Y139000D02*X96600D01*
X95100Y137000D02*X97100D01*
X95100Y141000D02*Y137000D01*
Y141000D02*X97100D01*
X100100Y139000D02*X102100D01*
X105600Y137000D02*X107100D01*
X105100Y137500D02*X105600Y137000D01*
X105100Y140500D02*Y137500D01*
Y140500D02*X105600Y141000D01*
X107100D01*
X108300Y140500D02*Y137500D01*
Y140500D02*X108800Y141000D01*
X109800D01*
X110300Y140500D01*
Y137500D01*
X109800Y137000D02*X110300Y137500D01*
X108800Y137000D02*X109800D01*
X108300Y137500D02*X108800Y137000D01*
X111500Y141000D02*Y137000D01*
Y141000D02*Y140500D01*
X114000Y138000D01*
Y141000D02*Y137000D01*
X115200Y141000D02*Y137000D01*
Y141000D02*Y140500D01*
X117700Y138000D01*
Y141000D02*Y137000D01*
X120400Y141000D02*X120900Y140500D01*
X119400Y141000D02*X120400D01*
X118900Y140500D02*X119400Y141000D01*
X118900Y140500D02*Y137500D01*
X119400Y137000D01*
X120400Y139000D02*X120900Y138500D01*
X118900Y139000D02*X120400D01*
X119400Y137000D02*X120400D01*
X120900Y137500D01*
Y138500D02*Y137500D01*
X124400Y141000D02*Y137000D01*
X123900Y141000D02*X125900D01*
X126400Y140500D01*
Y139500D01*
X125900Y139000D02*X126400Y139500D01*
X124400Y139000D02*X125900D01*
X127600Y141000D02*X128600D01*
X128100D02*Y137000D01*
X127600D02*X128600D01*
X129800Y141000D02*Y137000D01*
Y141000D02*Y140500D01*
X132300Y138000D01*
Y141000D02*Y137000D01*
X134000D02*X135000D01*
X134500Y141000D02*Y137000D01*
X133500Y140000D02*X134500Y141000D01*
X138000Y139000D02*X140000D01*
X143000Y137000D02*X145000D01*
X145500Y137500D01*
Y138500D02*Y137500D01*
X145000Y139000D02*X145500Y138500D01*
X143500Y139000D02*X145000D01*
X143500Y141000D02*Y137000D01*
X143000Y141000D02*X145000D01*
X145500Y140500D01*
Y139500D01*
X145000Y139000D02*X145500Y139500D01*
X146700Y141000D02*X147700D01*
X147200D02*Y137000D01*
X146700D02*X147700D01*
X148900Y140500D02*Y137000D01*
Y140500D02*X149400Y141000D01*
X150900D01*
X151400Y140500D01*
Y137000D01*
X148900Y139000D02*X151400D01*
X154600Y141000D02*X155100Y140500D01*
X153100Y141000D02*X154600D01*
X152600Y140500D02*X153100Y141000D01*
X152600Y140500D02*Y139500D01*
X153100Y139000D01*
X154600D01*
X155100Y138500D01*
Y137500D01*
X154600Y137000D02*X155100Y137500D01*
X153100Y137000D02*X154600D01*
X152600Y137500D02*X153100Y137000D01*
X156300Y139000D02*X158300D01*
X157300Y140000D02*Y138000D01*
X48700Y145500D02*Y143500D01*
X48200Y143000D01*
X47200D01*
X46700Y143500D02*X47200Y143000D01*
X46700Y145000D02*Y143500D01*
X48700Y145000D02*X44700D01*
X46700D02*X44700Y143000D01*
Y141300D02*Y140300D01*
X48700Y140800D02*X44700D01*
X47700Y141800D02*X48700Y140800D01*
X48200Y139100D02*X48700Y138600D01*
Y137600D01*
X48200Y137100D01*
X45200D01*
X44700Y137600D02*X45200Y137100D01*
X44700Y138600D02*Y137600D01*
X45200Y139100D02*X44700Y138600D01*
X46700D02*Y137100D01*
X30700Y145500D02*Y143500D01*
X30200Y143000D01*
X29200D01*
X28700Y143500D02*X29200Y143000D01*
X28700Y145000D02*Y143500D01*
X30700Y145000D02*X26700D01*
X28700D02*X26700Y143000D01*
Y141300D02*Y140300D01*
X30700Y140800D02*X26700D01*
X29700Y141800D02*X30700Y140800D01*
X26700Y138600D02*Y137600D01*
X30700Y138100D02*X26700D01*
X29700Y139100D02*X30700Y138100D01*
X53000Y133500D02*Y130500D01*
Y133500D02*X53500Y134000D01*
X54500D01*
X55000Y133500D01*
Y130500D01*
X54500Y130000D02*X55000Y130500D01*
X53500Y130000D02*X54500D01*
X53000Y130500D02*X53500Y130000D01*
X54000Y131000D02*X55000Y130000D01*
X58200Y134000D02*X58700Y133500D01*
X56700Y134000D02*X58200D01*
X56200Y133500D02*X56700Y134000D01*
X56200Y133500D02*Y130500D01*
X56700Y130000D01*
X58200D01*
X58700Y130500D01*
Y131500D02*Y130500D01*
X58200Y132000D02*X58700Y131500D01*
X57200Y132000D02*X58200D01*
X62200Y134000D02*Y130000D01*
X61700Y134000D02*X63700D01*
X64200Y133500D01*
Y132500D01*
X63700Y132000D02*X64200Y132500D01*
X62200Y132000D02*X63700D01*
X65400Y134000D02*X66400D01*
X65900D02*Y130000D01*
X65400D02*X66400D01*
X67600Y134000D02*Y130000D01*
Y134000D02*Y133500D01*
X70100Y131000D01*
Y134000D02*Y130000D01*
X71800D02*X72800D01*
X72300Y134000D02*Y130000D01*
X71300Y133000D02*X72300Y134000D01*
X75800Y132000D02*X77800D01*
X82800Y134000D02*X83300Y133500D01*
X81300Y134000D02*X82800D01*
X80800Y133500D02*X81300Y134000D01*
X80800Y133500D02*Y132500D01*
X81300Y132000D01*
X82800D01*
X83300Y131500D01*
Y130500D01*
X82800Y130000D02*X83300Y130500D01*
X81300Y130000D02*X82800D01*
X80800Y130500D02*X81300Y130000D01*
X84500Y134000D02*Y130000D01*
X87000Y134000D02*Y130000D01*
X84500Y132000D02*X87000D01*
X88200Y134000D02*X89200D01*
X88700D02*Y130000D01*
X88200D02*X89200D01*
X90400Y132000D02*X91900D01*
X90400Y130000D02*X92400D01*
X90400Y134000D02*Y130000D01*
Y134000D02*X92400D01*
X93600D02*Y130000D01*
X95600D01*
X97300Y134000D02*Y130000D01*
X98800Y134000D02*X99300Y133500D01*
Y130500D01*
X98800Y130000D02*X99300Y130500D01*
X96800Y130000D02*X98800D01*
X96800Y134000D02*X98800D01*
X102300Y132000D02*X104300D01*
X107800Y130000D02*X109300D01*
X107300Y130500D02*X107800Y130000D01*
X107300Y133500D02*Y130500D01*
Y133500D02*X107800Y134000D01*
X109300D01*
X110500Y133500D02*Y130500D01*
Y133500D02*X111000Y134000D01*
X112000D01*
X112500Y133500D01*
Y130500D01*
X112000Y130000D02*X112500Y130500D01*
X111000Y130000D02*X112000D01*
X110500Y130500D02*X111000Y130000D01*
X113700Y134000D02*Y130000D01*
Y134000D02*Y133500D01*
X116200Y131000D01*
Y134000D02*Y130000D01*
X117400Y134000D02*Y130000D01*
Y134000D02*Y133500D01*
X119900Y131000D01*
Y134000D02*Y130000D01*
X121100Y134000D02*X123100D01*
X121100D02*Y132000D01*
X121600Y132500D01*
X122600D01*
X123100Y132000D01*
Y130500D01*
X122600Y130000D02*X123100Y130500D01*
X121600Y130000D02*X122600D01*
X121100Y130500D02*X121600Y130000D01*
X126600Y134000D02*Y130000D01*
X126100Y134000D02*X128100D01*
X128600Y133500D01*
Y132500D01*
X128100Y132000D02*X128600Y132500D01*
X126600Y132000D02*X128100D01*
X129800Y134000D02*X130800D01*
X130300D02*Y130000D01*
X129800D02*X130800D01*
X132000Y134000D02*Y130000D01*
Y134000D02*Y133500D01*
X134500Y131000D01*
Y134000D02*Y130000D01*
X136200D02*X137200D01*
X136700Y134000D02*Y130000D01*
X135700Y133000D02*X136700Y134000D01*
X140200Y132000D02*X142200D01*
X145700Y130000D02*X147200D01*
X145200Y130500D02*X145700Y130000D01*
X145200Y133500D02*Y130500D01*
Y133500D02*X145700Y134000D01*
X147200D01*
X148400D02*Y130000D01*
X150900Y134000D02*Y130000D01*
X148400Y132000D02*X150900D01*
X152100Y133500D02*Y130000D01*
Y133500D02*X152600Y134000D01*
X154100D01*
X154600Y133500D01*
Y130000D01*
X152100Y132000D02*X154600D01*
X157800Y134000D02*X158300Y133500D01*
X156300Y134000D02*X157800D01*
X155800Y133500D02*X156300Y134000D01*
X155800Y133500D02*Y132500D01*
X156300Y132000D01*
X157800D01*
X158300Y131500D01*
Y130500D01*
X157800Y130000D02*X158300Y130500D01*
X156300Y130000D02*X157800D01*
X155800Y130500D02*X156300Y130000D01*
X161500Y134000D02*X162000Y133500D01*
X160000Y134000D02*X161500D01*
X159500Y133500D02*X160000Y134000D01*
X159500Y133500D02*Y132500D01*
X160000Y132000D01*
X161500D01*
X162000Y131500D01*
Y130500D01*
X161500Y130000D02*X162000Y130500D01*
X160000Y130000D02*X161500D01*
X159500Y130500D02*X160000Y130000D01*
X163200Y134000D02*X164200D01*
X163700D02*Y130000D01*
X163200D02*X164200D01*
X167400Y134000D02*X167900Y133500D01*
X165900Y134000D02*X167400D01*
X165400Y133500D02*X165900Y134000D01*
X165400Y133500D02*Y132500D01*
X165900Y132000D01*
X167400D01*
X167900Y131500D01*
Y130500D01*
X167400Y130000D02*X167900Y130500D01*
X165900Y130000D02*X167400D01*
X165400Y130500D02*X165900Y130000D01*
X73000Y105500D02*Y104000D01*
X73500Y106000D02*X73000Y105500D01*
X76500Y106000D02*X73500D01*
X76500D02*X77000Y105500D01*
Y104000D01*
X76500Y102800D02*X77000Y102300D01*
Y101300D01*
X76500Y100800D01*
X73500D01*
X73000Y101300D02*X73500Y100800D01*
X73000Y102300D02*Y101300D01*
X73500Y102800D02*X73000Y102300D01*
X75000D02*Y100800D01*
X73000Y99100D02*Y98100D01*
X77000Y98600D02*X73000D01*
X76000Y99600D02*X77000Y98600D01*
X93000Y114000D02*X94500D01*
X92500Y114500D02*X93000Y114000D01*
X92500Y117500D02*Y114500D01*
Y117500D02*X93000Y118000D01*
X94500D01*
X95700Y117500D02*Y114500D01*
Y117500D02*X96200Y118000D01*
X97200D01*
X97700Y117500D01*
Y114500D01*
X97200Y114000D02*X97700Y114500D01*
X96200Y114000D02*X97200D01*
X95700Y114500D02*X96200Y114000D01*
X98900Y118000D02*Y114000D01*
Y118000D02*Y117500D01*
X101400Y115000D01*
Y118000D02*Y114000D01*
X102600Y118000D02*Y114000D01*
Y118000D02*Y117500D01*
X105100Y115000D01*
Y118000D02*Y114000D01*
X106300Y114500D02*X106800Y114000D01*
X106300Y115500D02*Y114500D01*
Y115500D02*X106800Y116000D01*
X107800D01*
X108300Y115500D01*
Y114500D01*
X107800Y114000D02*X108300Y114500D01*
X106800Y114000D02*X107800D01*
X106300Y116500D02*X106800Y116000D01*
X106300Y117500D02*Y116500D01*
Y117500D02*X106800Y118000D01*
X107800D01*
X108300Y117500D01*
Y116500D01*
X107800Y116000D02*X108300Y116500D01*
X149490Y103500D02*X150990D01*
X148990Y104000D02*X149490Y103500D01*
X148990Y107000D02*Y104000D01*
Y107000D02*X149490Y107500D01*
X150990D01*
X152690Y103500D02*X153690D01*
X153190Y107500D02*Y103500D01*
X152190Y106500D02*X153190Y107500D01*
X228500Y122000D02*X230000D01*
X228000Y122500D02*X228500Y122000D01*
X228000Y125500D02*Y122500D01*
Y125500D02*X228500Y126000D01*
X230000D01*
X231200Y125500D02*Y122500D01*
Y125500D02*X231700Y126000D01*
X232700D01*
X233200Y125500D01*
Y122500D01*
X232700Y122000D02*X233200Y122500D01*
X231700Y122000D02*X232700D01*
X231200Y122500D02*X231700Y122000D01*
X234400Y126000D02*Y122000D01*
Y126000D02*Y125500D01*
X236900Y123000D01*
Y126000D02*Y122000D01*
X238100Y126000D02*Y122000D01*
Y126000D02*Y125500D01*
X240600Y123000D01*
Y126000D02*Y122000D01*
X241800D02*X244300Y124500D01*
Y126000D02*Y124500D01*
X241800Y126000D02*X244300D01*
X247800Y123500D02*Y122000D01*
Y123500D02*X248300Y124000D01*
X248800D01*
X249300Y123500D01*
Y122000D01*
Y123500D02*X249800Y124000D01*
X250300D01*
X250800Y123500D01*
Y122000D01*
X247300Y124000D02*X247800Y123500D01*
X252000Y124000D02*Y122500D01*
X252500Y122000D01*
X253500D01*
X254000Y122500D01*
Y124000D02*Y122500D01*
X255700Y122000D02*X257200D01*
X257700Y122500D01*
X257200Y123000D02*X257700Y122500D01*
X255700Y123000D02*X257200D01*
X255200Y123500D02*X255700Y123000D01*
X255200Y123500D02*X255700Y124000D01*
X257200D01*
X257700Y123500D01*
X255200Y122500D02*X255700Y122000D01*
X259400Y126000D02*Y122500D01*
X259900Y122000D01*
X258900Y124500D02*X259900D01*
X262700Y126000D02*Y122000D01*
Y122500D02*X263200Y122000D01*
X264200D01*
X264700Y122500D01*
Y123500D02*Y122500D01*
X264200Y124000D02*X264700Y123500D01*
X263200Y124000D02*X264200D01*
X262700Y123500D02*X263200Y124000D01*
X266400Y122000D02*X267900D01*
X265900Y122500D02*X266400Y122000D01*
X265900Y123500D02*Y122500D01*
Y123500D02*X266400Y124000D01*
X267400D01*
X267900Y123500D01*
X265900Y123000D02*X267900D01*
Y123500D01*
X270900Y124000D02*Y122500D01*
X271400Y122000D01*
X271900D01*
X272400Y122500D01*
Y124000D02*Y122500D01*
X272900Y122000D01*
X273400D01*
X273900Y122500D01*
Y124000D02*Y122500D01*
X275100Y125000D02*Y124500D01*
Y123500D02*Y122000D01*
X276600Y123500D02*Y122000D01*
Y123500D02*X277100Y124000D01*
X278100D01*
X276100D02*X276600Y123500D01*
X279800Y122000D02*X281300D01*
X279300Y122500D02*X279800Y122000D01*
X279300Y123500D02*Y122500D01*
Y123500D02*X279800Y124000D01*
X280800D01*
X281300Y123500D01*
X279300Y123000D02*X281300D01*
Y123500D01*
X284500Y126000D02*Y122000D01*
X284000D02*X284500Y122500D01*
X283000Y122000D02*X284000D01*
X282500Y122500D02*X283000Y122000D01*
X282500Y123500D02*Y122500D01*
Y123500D02*X283000Y124000D01*
X284000D01*
X284500Y123500D01*
X287500Y124000D02*Y122500D01*
X288000Y122000D01*
X288500D01*
X289000Y122500D01*
Y124000D02*Y122500D01*
X289500Y122000D01*
X290000D01*
X290500Y122500D01*
Y124000D02*Y122500D01*
X291700Y125000D02*Y124500D01*
Y123500D02*Y122000D01*
X293200Y126000D02*Y122500D01*
X293700Y122000D01*
X292700Y124500D02*X293700D01*
X294700Y126000D02*Y122000D01*
Y123500D02*X295200Y124000D01*
X296200D01*
X296700Y123500D01*
Y122000D01*
X228500Y134000D02*X230000D01*
X228000Y133500D02*X228500Y134000D01*
X228000Y133500D02*Y132500D01*
X228500Y132000D01*
X230000D01*
X231200Y133500D02*Y132500D01*
Y133500D02*X231700Y134000D01*
X232700D01*
X233200Y133500D01*
Y132500D01*
X232700Y132000D02*X233200Y132500D01*
X231700Y132000D02*X232700D01*
X231200Y132500D02*X231700Y132000D01*
X234900Y133500D02*Y132000D01*
Y133500D02*X235400Y134000D01*
X235900D01*
X236400Y133500D01*
Y132000D01*
X234400Y134000D02*X234900Y133500D01*
X238100D02*Y132000D01*
Y133500D02*X238600Y134000D01*
X239100D01*
X239600Y133500D01*
Y132000D01*
X237600Y134000D02*X238100Y133500D01*
X241300Y132000D02*X242800D01*
X240800Y132500D02*X241300Y132000D01*
X240800Y133500D02*Y132500D01*
Y133500D02*X241300Y134000D01*
X242300D01*
X242800Y133500D01*
X240800Y133000D02*X242800D01*
Y133500D01*
X244500Y134000D02*X246000D01*
X244000Y133500D02*X244500Y134000D01*
X244000Y133500D02*Y132500D01*
X244500Y132000D01*
X246000D01*
X247700Y136000D02*Y132500D01*
X248200Y132000D01*
X247200Y134500D02*X248200D01*
X249700Y132000D02*X251200D01*
X249200Y132500D02*X249700Y132000D01*
X249200Y133500D02*Y132500D01*
Y133500D02*X249700Y134000D01*
X250700D01*
X251200Y133500D01*
X249200Y133000D02*X251200D01*
Y133500D01*
X254400Y136000D02*Y132000D01*
X253900D02*X254400Y132500D01*
X252900Y132000D02*X253900D01*
X252400Y132500D02*X252900Y132000D01*
X252400Y133500D02*Y132500D01*
Y133500D02*X252900Y134000D01*
X253900D01*
X254400Y133500D01*
X257900Y136000D02*Y132500D01*
X258400Y132000D01*
X257400Y134500D02*X258400D01*
X259400Y133500D02*Y132500D01*
Y133500D02*X259900Y134000D01*
X260900D01*
X261400Y133500D01*
Y132500D01*
X260900Y132000D02*X261400Y132500D01*
X259900Y132000D02*X260900D01*
X259400Y132500D02*X259900Y132000D01*
X264900D02*X266400D01*
X264400Y132500D02*X264900Y132000D01*
X264400Y135500D02*Y132500D01*
Y135500D02*X264900Y136000D01*
X266400D01*
X267600Y135500D02*Y132500D01*
Y135500D02*X268100Y136000D01*
X269100D01*
X269600Y135500D01*
Y132500D01*
X269100Y132000D02*X269600Y132500D01*
X268100Y132000D02*X269100D01*
X267600Y132500D02*X268100Y132000D01*
X270800Y136000D02*Y132000D01*
Y136000D02*Y135500D01*
X273300Y133000D01*
Y136000D02*Y132000D01*
X274500Y136000D02*Y132000D01*
Y136000D02*Y135500D01*
X277000Y133000D01*
Y136000D02*Y132000D01*
X278200D02*X280200Y134000D01*
Y135500D02*Y134000D01*
X279700Y136000D02*X280200Y135500D01*
X278700Y136000D02*X279700D01*
X278200Y135500D02*X278700Y136000D01*
X278200Y135500D02*Y134500D01*
X278700Y134000D01*
X280200D01*
X283200Y132500D02*X283700Y132000D01*
X283200Y135500D02*Y134500D01*
Y135500D02*X283700Y136000D01*
X283200Y133500D02*X284700Y135000D01*
X283700Y132000D02*X284200D01*
X285200Y133000D01*
X283200Y134500D02*X285700Y132000D01*
X283700Y136000D02*X284200D01*
X284700Y135500D01*
Y135000D01*
X283200Y133500D02*Y132500D01*
X289200Y132000D02*X290700D01*
X288700Y132500D02*X289200Y132000D01*
X288700Y135500D02*Y132500D01*
Y135500D02*X289200Y136000D01*
X290700D01*
X291900Y135500D02*Y132500D01*
Y135500D02*X292400Y136000D01*
X293400D01*
X293900Y135500D01*
Y132500D01*
X293400Y132000D02*X293900Y132500D01*
X292400Y132000D02*X293400D01*
X291900Y132500D02*X292400Y132000D01*
X295100Y136000D02*Y132000D01*
Y136000D02*Y135500D01*
X297600Y133000D01*
Y136000D02*Y132000D01*
X298800Y136000D02*Y132000D01*
Y136000D02*Y135500D01*
X301300Y133000D01*
Y136000D02*Y132000D01*
X302500Y132500D02*X303000Y132000D01*
X302500Y133500D02*Y132500D01*
Y133500D02*X303000Y134000D01*
X304000D01*
X304500Y133500D01*
Y132500D01*
X304000Y132000D02*X304500Y132500D01*
X303000Y132000D02*X304000D01*
X302500Y134500D02*X303000Y134000D01*
X302500Y135500D02*Y134500D01*
Y135500D02*X303000Y136000D01*
X304000D01*
X304500Y135500D01*
Y134500D01*
X304000Y134000D02*X304500Y134500D01*
X305700Y132000D02*X306200D01*
X228500Y114000D02*X230000D01*
X228000Y113500D02*X228500Y114000D01*
X228000Y113500D02*Y112500D01*
X228500Y112000D01*
X230000D01*
X231200Y113500D02*Y112500D01*
Y113500D02*X231700Y114000D01*
X232700D01*
X233200Y113500D01*
Y112500D01*
X232700Y112000D02*X233200Y112500D01*
X231700Y112000D02*X232700D01*
X231200Y112500D02*X231700Y112000D01*
X235900Y114000D02*X236400Y113500D01*
X234900Y114000D02*X235900D01*
X234400Y113500D02*X234900Y114000D01*
X234400Y113500D02*Y112500D01*
X234900Y112000D01*
X236400Y114000D02*Y112500D01*
X236900Y112000D01*
X234900D02*X235900D01*
X236400Y112500D01*
X238100Y114000D02*X240100Y112000D01*
X238100D02*X240100Y114000D01*
X243100Y112500D02*X243600Y112000D01*
X243100Y115500D02*X243600Y116000D01*
X243100Y115500D02*Y112500D01*
X244800Y116000D02*X246800D01*
X247300Y115500D01*
Y114500D01*
X246800Y114000D02*X247300Y114500D01*
X245300Y114000D02*X246800D01*
X245300Y116000D02*Y112000D01*
Y114000D02*X247300Y112000D01*
X250500Y116000D02*X251000Y115500D01*
X249000Y116000D02*X250500D01*
X248500Y115500D02*X249000Y116000D01*
X248500Y115500D02*Y112500D01*
X249000Y112000D01*
X250500D01*
X251000Y112500D01*
Y113500D02*Y112500D01*
X250500Y114000D02*X251000Y113500D01*
X249500Y114000D02*X250500D01*
X252700Y112000D02*X253700D01*
X253200Y116000D02*Y112000D01*
X252200Y115000D02*X253200Y116000D01*
X254900Y112000D02*X257400Y114500D01*
Y116000D02*Y114500D01*
X254900Y116000D02*X257400D01*
X258600Y114000D02*X260600Y116000D01*
X258600Y114000D02*X261100D01*
X260600Y116000D02*Y112000D01*
X262300Y116000D02*X262800Y115500D01*
Y112500D01*
X262300Y112000D02*X262800Y112500D01*
X264000Y112000D02*X264500D01*
X70000Y198000D02*X72000D01*
X71000D02*Y194000D01*
X73200Y198000D02*X74200D01*
X73700D02*Y194000D01*
X73200D02*X74200D01*
X75400Y198000D02*Y194000D01*
Y198000D02*Y197500D01*
X77900Y195000D01*
Y198000D02*Y194000D01*
X79100Y198000D02*X80100D01*
X79600D02*Y194000D01*
X79100D02*X80100D01*
X83100Y197500D02*Y194500D01*
Y197500D02*X83600Y198000D01*
X84600D01*
X85100Y197500D01*
Y194500D01*
X84600Y194000D02*X85100Y194500D01*
X83600Y194000D02*X84600D01*
X83100Y194500D02*X83600Y194000D01*
X84100Y195000D02*X85100Y194000D01*
X88300Y198000D02*X88800Y197500D01*
X86800Y198000D02*X88300D01*
X86300Y197500D02*X86800Y198000D01*
X86300Y197500D02*Y194500D01*
X86800Y194000D01*
X88300D01*
X88800Y194500D01*
Y195500D02*Y194500D01*
X88300Y196000D02*X88800Y195500D01*
X87300Y196000D02*X88300D01*
X91800D02*X93800D01*
X96800Y198000D02*Y194000D01*
Y198000D02*X98800D01*
X96800Y196000D02*X98300D01*
X100000D02*X101500D01*
X100000Y194000D02*X102000D01*
X100000Y198000D02*Y194000D01*
Y198000D02*X102000D01*
X103200D02*Y194000D01*
Y198000D02*X104700Y196500D01*
X106200Y198000D01*
Y194000D01*
X107400Y197500D02*Y194000D01*
Y197500D02*X107900Y198000D01*
X109400D01*
X109900Y197500D01*
Y194000D01*
X107400Y196000D02*X109900D01*
X111100Y198000D02*Y194000D01*
X113100D01*
X114300Y196000D02*X115800D01*
X114300Y194000D02*X116300D01*
X114300Y198000D02*Y194000D01*
Y198000D02*X116300D01*
X119300Y196000D02*X121300D01*
X124300Y198000D02*X126300D01*
X126800Y197500D01*
Y196500D01*
X126300Y196000D02*X126800Y196500D01*
X124800Y196000D02*X126300D01*
X124800Y198000D02*Y194000D01*
Y196000D02*X126800Y194000D01*
X128000Y196000D02*X129500D01*
X128000Y194000D02*X130000D01*
X128000Y198000D02*Y194000D01*
Y198000D02*X130000D01*
X131200Y197500D02*Y194000D01*
Y197500D02*X131700Y198000D01*
X133200D01*
X133700Y197500D01*
Y194000D01*
X131200Y196000D02*X133700D01*
X134900Y198000D02*X136900D01*
X137400Y197500D01*
Y196500D01*
X136900Y196000D02*X137400Y196500D01*
X135400Y196000D02*X136900D01*
X135400Y198000D02*Y194000D01*
Y196000D02*X137400Y194000D01*
X126500Y190500D02*X127000Y191000D01*
X128000D01*
X128500Y190500D01*
Y187500D01*
X128000Y187000D02*X128500Y187500D01*
X127000Y187000D02*X128000D01*
X126500Y187500D02*X127000Y187000D01*
Y189000D02*X128500D01*
X79500Y187000D02*X80500D01*
X80000Y191000D02*Y187000D01*
X79000Y190000D02*X80000Y191000D01*
X111500Y214000D02*X113000D01*
X111000Y214500D02*X111500Y214000D01*
X111000Y217500D02*Y214500D01*
Y217500D02*X111500Y218000D01*
X113000D01*
X114200Y217500D02*Y214500D01*
Y217500D02*X114700Y218000D01*
X115700D01*
X116200Y217500D01*
Y214500D01*
X115700Y214000D02*X116200Y214500D01*
X114700Y214000D02*X115700D01*
X114200Y214500D02*X114700Y214000D01*
X117400Y218000D02*Y214000D01*
Y218000D02*Y217500D01*
X119900Y215000D01*
Y218000D02*Y214000D01*
X121100Y218000D02*Y214000D01*
Y218000D02*Y217500D01*
X123600Y215000D01*
Y218000D02*Y214000D01*
X124800Y218000D02*X126800D01*
X124800D02*Y216000D01*
X125300Y216500D01*
X126300D01*
X126800Y216000D01*
Y214500D01*
X126300Y214000D02*X126800Y214500D01*
X125300Y214000D02*X126300D01*
X124800Y214500D02*X125300Y214000D01*
X177500Y206200D02*X179500D01*
X180000Y205700D01*
Y204700D01*
X179500Y204200D02*X180000Y204700D01*
X178000Y204200D02*X179500D01*
X178000Y206200D02*Y202200D01*
Y204200D02*X180000Y202200D01*
X181200Y205700D02*X181700Y206200D01*
X183200D01*
X183700Y205700D01*
Y204700D01*
X181200Y202200D02*X183700Y204700D01*
X181200Y202200D02*X183700D01*
X184900Y205700D02*X185400Y206200D01*
X186900D01*
X187400Y205700D01*
Y204700D01*
X184900Y202200D02*X187400Y204700D01*
X184900Y202200D02*X187400D01*
X174500Y189700D02*X176500D01*
X177000Y189200D01*
Y188200D01*
X176500Y187700D02*X177000Y188200D01*
X175000Y187700D02*X176500D01*
X175000Y189700D02*Y185700D01*
Y187700D02*X177000Y185700D01*
X178200Y189200D02*X178700Y189700D01*
X180200D01*
X180700Y189200D01*
Y188200D01*
X178200Y185700D02*X180700Y188200D01*
X178200Y185700D02*X180700D01*
X181900Y189200D02*X182400Y189700D01*
X183400D01*
X183900Y189200D01*
Y186200D01*
X183400Y185700D02*X183900Y186200D01*
X182400Y185700D02*X183400D01*
X181900Y186200D02*X182400Y185700D01*
Y187700D02*X183900D01*
X231000Y197500D02*Y200500D01*
X230000Y201500D01*
X229000Y200500D01*
Y197500D02*Y200500D01*
X227800Y197500D02*X225800D01*
X225300Y198000D01*
Y199000D01*
X225800Y199500D02*X225300Y199000D01*
X227300Y199500D02*X225800D01*
X227300Y197500D02*Y201500D01*
Y199500D02*X225300Y201500D01*
X224100Y199500D02*X222600D01*
X224100Y201500D02*X222100D01*
X224100Y197500D02*Y201500D01*
Y197500D02*X222100D01*
X218900D02*X218400Y198000D01*
X220400Y197500D02*X218900D01*
X220900Y198000D02*X220400Y197500D01*
X220900Y198000D02*Y201000D01*
X220400Y201500D01*
X218900D01*
X218400Y201000D01*
Y200000D02*Y201000D01*
X218900Y199500D02*X218400Y200000D01*
X219900Y199500D02*X218900D01*
X216700Y201500D02*X215700D01*
X216200Y197500D02*Y201500D01*
X217200Y198500D02*X216200Y197500D01*
M02*
