M48
INCH
T91C0.050
T90C0.038
T89C0.032
T88C0.079
T87C0.042
T86C0.028
T85C0.030
T84C0.071
T83C0.065
%
T86
G05
X004000Y010950
X003000Y010950
X002000Y010950
X002000Y007950
X003000Y007950
X004000Y007950
X003950Y005250
X003950Y004250
X003950Y003250
X003950Y002250
X005000Y010950
X005000Y007950
X006950Y002250
X006950Y003250
X006950Y004250
X006950Y005250
T85
X002200Y016150
X004000Y016150
X004000Y012150
X002200Y012150
X023100Y018900
X023100Y017900
X029750Y016100
X021000Y013500
X021200Y016000
X022200Y016000
X025750Y016100
X006950Y011650
X006950Y008650
X006250Y012150
X006250Y008150
X009650Y005250
X009650Y004250
X012200Y003250
X016200Y003250
X016050Y002350
X020050Y002350
X016250Y019750
X020250Y019750
X019950Y018100
X020000Y013500
X020000Y016670
X015950Y018100
X016000Y016670
X012400Y011500
X016400Y011500
X001650Y003250
X001650Y002250
T89
X027050Y019700
X028050Y019700
T90
X029750Y014000
X029750Y013000
X029750Y012000
X029750Y011000
X029750Y010000
X027850Y014000
X027850Y013000
X027850Y012000
X027850Y011000
X027850Y010000
T87
X021300Y021000
X022300Y021000
X023300Y021000
T91
X022900Y008550
X022900Y007550
X019550Y006350
X020550Y006350
X020580Y008550
X011600Y020750
X018250Y015000
X009750Y010750
X010750Y010750
X009750Y008550
T83
X002200Y023750
X004200Y023750
T84
X003200Y018750
X003200Y017250
X001350Y018750
X005050Y018750
X005050Y017250
X001350Y017250
T88
X026050Y021700
X030050Y021700
M30
