G04 start of page 10 for group -1 layer_idx 268435461 *
G04 Title: (unknown), <virtual group> *
G04 Creator: pcb-rnd 2.1.0 *
G04 CreationDate: 2019-02-14 20:47:18 UTC *
G04 For:  *
G04 Format: Gerber/RS-274X *
G04 PCB-Dimensions: 316500 250000 *
G04 PCB-Coordinate-Origin: lower left *
%MOIN*%
%FSLAX25Y25*%
%LNFAB*%
%ADD78C,0.0100*%
%ADD77C,0.0060*%
%ADD76C,0.0080*%
G54D76*X259700Y217000D02*G75*G03X261300Y217000I800J0D01*G01*
G75*G03X259700Y217000I-800J0D01*G01*
X258100D02*G75*G03X262900Y217000I2400J0D01*G01*
G75*G03X258100Y217000I-2400J0D01*G01*
X299700D02*G75*G03X301300Y217000I800J0D01*G01*
G75*G03X299700Y217000I-800J0D01*G01*
X298100D02*G75*G03X302900Y217000I2400J0D01*G01*
G75*G03X298100Y217000I-2400J0D01*G01*
X14200Y261250D02*G75*G03X15800Y261250I800J0D01*G01*
G75*G03X14200Y261250I-800J0D01*G01*
X12600D02*G75*G03X17400Y261250I2400J0D01*G01*
G75*G03X12600Y261250I-2400J0D01*G01*
G54D77*X135000Y263500D02*Y262750D01*
X136500Y261250D01*
X138000Y262750D01*
Y263500D02*Y262750D01*
X136500Y261250D02*Y257500D01*
X139800Y260500D02*X142050D01*
X139800Y257500D02*X142800D01*
X139800Y263500D02*Y257500D01*
Y263500D02*X142800D01*
X147600D02*X148350Y262750D01*
X145350Y263500D02*X147600D01*
X144600Y262750D02*X145350Y263500D01*
X144600Y262750D02*Y261250D01*
X145350Y260500D01*
X147600D01*
X148350Y259750D01*
Y258250D01*
X147600Y257500D02*X148350Y258250D01*
X145350Y257500D02*X147600D01*
X144600Y258250D02*X145350Y257500D01*
X98000Y262750D02*X98750Y263500D01*
X101000D01*
X101750Y262750D01*
Y261250D01*
X98000Y257500D02*X101750Y261250D01*
X98000Y257500D02*X101750D01*
X45000Y258250D02*X45750Y257500D01*
X45000Y262750D02*Y258250D01*
Y262750D02*X45750Y263500D01*
X47250D01*
X48000Y262750D01*
Y258250D01*
X47250Y257500D02*X48000Y258250D01*
X45750Y257500D02*X47250D01*
X45000Y259000D02*X48000Y262000D01*
X49800Y257500D02*X50550D01*
X52350Y258250D02*X53100Y257500D01*
X52350Y262750D02*Y258250D01*
Y262750D02*X53100Y263500D01*
X54600D01*
X55350Y262750D01*
Y258250D01*
X54600Y257500D02*X55350Y258250D01*
X53100Y257500D02*X54600D01*
X52350Y259000D02*X55350Y262000D01*
X57150Y257500D02*X60900Y261250D01*
Y263500D02*Y261250D01*
X57150Y263500D02*X60900D01*
X62700Y257500D02*X65700Y260500D01*
Y262750D02*Y260500D01*
X64950Y263500D02*X65700Y262750D01*
X63450Y263500D02*X64950D01*
X62700Y262750D02*X63450Y263500D01*
X62700Y262750D02*Y261250D01*
X63450Y260500D01*
X65700D01*
X29600Y189900D02*X34400Y185100D01*
X29600D02*X34400Y189900D01*
X30400Y189100D02*X33600D01*
X30400D02*Y185900D01*
X33600D01*
Y189100D02*Y185900D01*
X29600Y174900D02*X34400Y170100D01*
X29600D02*X34400Y174900D01*
X30400Y174100D02*X33600D01*
X30400D02*Y170900D01*
X33600D01*
Y174100D02*Y170900D01*
X11100Y189900D02*X15900Y185100D01*
X11100D02*X15900Y189900D01*
X11900Y189100D02*X15100D01*
X11900D02*Y185900D01*
X15100D01*
Y189100D02*Y185900D01*
X48100Y189900D02*X52900Y185100D01*
X48100D02*X52900Y189900D01*
X48900Y189100D02*X52100D01*
X48900D02*Y185900D01*
X52100D01*
Y189100D02*Y185900D01*
X48100Y174900D02*X52900Y170100D01*
X48100D02*X52900Y174900D01*
X48900Y174100D02*X52100D01*
X48900D02*Y170900D01*
X52100D01*
Y174100D02*Y170900D01*
X11100Y174900D02*X15900Y170100D01*
X11100D02*X15900Y174900D01*
X11900Y174100D02*X15100D01*
X11900D02*Y170900D01*
X15100D01*
Y174100D02*Y170900D01*
X12600Y278650D02*X17400Y273850D01*
X12600D02*X17400Y278650D01*
X13400Y277850D02*X16600D01*
X13400D02*Y274650D01*
X16600D01*
Y277850D02*Y274650D01*
X135000Y278500D02*Y277750D01*
X136500Y276250D01*
X138000Y277750D01*
Y278500D02*Y277750D01*
X136500Y276250D02*Y272500D01*
X139800Y275500D02*X142050D01*
X139800Y272500D02*X142800D01*
X139800Y278500D02*Y272500D01*
Y278500D02*X142800D01*
X147600D02*X148350Y277750D01*
X145350Y278500D02*X147600D01*
X144600Y277750D02*X145350Y278500D01*
X144600Y277750D02*Y276250D01*
X145350Y275500D01*
X147600D01*
X148350Y274750D01*
Y273250D01*
X147600Y272500D02*X148350Y273250D01*
X145350Y272500D02*X147600D01*
X144600Y273250D02*X145350Y272500D01*
X100250Y278500D02*X101000Y277750D01*
X98750Y278500D02*X100250D01*
X98000Y277750D02*X98750Y278500D01*
X98000Y277750D02*Y273250D01*
X98750Y272500D01*
X100250Y275500D02*X101000Y274750D01*
X98000Y275500D02*X100250D01*
X98750Y272500D02*X100250D01*
X101000Y273250D01*
Y274750D02*Y273250D01*
X45000D02*X45750Y272500D01*
X45000Y277750D02*Y273250D01*
Y277750D02*X45750Y278500D01*
X47250D01*
X48000Y277750D01*
Y273250D01*
X47250Y272500D02*X48000Y273250D01*
X45750Y272500D02*X47250D01*
X45000Y274000D02*X48000Y277000D01*
X49800Y272500D02*X50550D01*
X52350Y273250D02*X53100Y272500D01*
X52350Y277750D02*Y273250D01*
Y277750D02*X53100Y278500D01*
X54600D01*
X55350Y277750D01*
Y273250D01*
X54600Y272500D02*X55350Y273250D01*
X53100Y272500D02*X54600D01*
X52350Y274000D02*X55350Y277000D01*
X57150Y272500D02*X60900Y276250D01*
Y278500D02*Y276250D01*
X57150Y278500D02*X60900D01*
X63450Y272500D02*X64950D01*
X64200Y278500D02*Y272500D01*
X62700Y277000D02*X64200Y278500D01*
X22000Y240700D02*Y234300D01*
X18800Y237500D02*X25200D01*
X20400Y239100D02*X23600D01*
X20400D02*Y235900D01*
X23600D01*
Y239100D02*Y235900D01*
X42000Y240700D02*Y234300D01*
X38800Y237500D02*X45200D01*
X40400Y239100D02*X43600D01*
X40400D02*Y235900D01*
X43600D01*
Y239100D02*Y235900D01*
X15000Y294450D02*Y288050D01*
X11800Y291250D02*X18200D01*
X13400Y292850D02*X16600D01*
X13400D02*Y289650D01*
X16600D01*
Y292850D02*Y289650D01*
X135000Y293500D02*Y292750D01*
X136500Y291250D01*
X138000Y292750D01*
Y293500D02*Y292750D01*
X136500Y291250D02*Y287500D01*
X139800Y290500D02*X142050D01*
X139800Y287500D02*X142800D01*
X139800Y293500D02*Y287500D01*
Y293500D02*X142800D01*
X147600D02*X148350Y292750D01*
X145350Y293500D02*X147600D01*
X144600Y292750D02*X145350Y293500D01*
X144600Y292750D02*Y291250D01*
X145350Y290500D01*
X147600D01*
X148350Y289750D01*
Y288250D01*
X147600Y287500D02*X148350Y288250D01*
X145350Y287500D02*X147600D01*
X144600Y288250D02*X145350Y287500D01*
X98000Y292750D02*X98750Y293500D01*
X101000D01*
X101750Y292750D01*
Y291250D01*
X98000Y287500D02*X101750Y291250D01*
X98000Y287500D02*X101750D01*
X45000Y288250D02*X45750Y287500D01*
X45000Y292750D02*Y288250D01*
Y292750D02*X45750Y293500D01*
X47250D01*
X48000Y292750D01*
Y288250D01*
X47250Y287500D02*X48000Y288250D01*
X45750Y287500D02*X47250D01*
X45000Y289000D02*X48000Y292000D01*
X49800Y287500D02*X50550D01*
X52350Y288250D02*X53100Y287500D01*
X52350Y292750D02*Y288250D01*
Y292750D02*X53100Y293500D01*
X54600D01*
X55350Y292750D01*
Y288250D01*
X54600Y287500D02*X55350Y288250D01*
X53100Y287500D02*X54600D01*
X52350Y289000D02*X55350Y292000D01*
X59400Y293500D02*X60150Y292750D01*
X57900Y293500D02*X59400D01*
X57150Y292750D02*X57900Y293500D01*
X57150Y292750D02*Y288250D01*
X57900Y287500D01*
X59400Y290500D02*X60150Y289750D01*
X57150Y290500D02*X59400D01*
X57900Y287500D02*X59400D01*
X60150Y288250D01*
Y289750D02*Y288250D01*
X61950Y293500D02*X64950D01*
X61950D02*Y290500D01*
X62700Y291250D01*
X64200D01*
X64950Y290500D01*
Y288250D01*
X64200Y287500D02*X64950Y288250D01*
X62700Y287500D02*X64200D01*
X61950Y288250D02*X62700Y287500D01*
X97500Y107500D02*Y104300D01*
Y107500D02*X100273Y109100D01*
X97500Y107500D02*X94727Y109100D01*
X95900Y107500D02*G75*G03X99100Y107500I1600J0D01*G01*
G75*G03X95900Y107500I-1600J0D01*G01*
X107500D02*Y104300D01*
Y107500D02*X110273Y109100D01*
X107500Y107500D02*X104727Y109100D01*
X105900Y107500D02*G75*G03X109100Y107500I1600J0D01*G01*
G75*G03X105900Y107500I-1600J0D01*G01*
X97500Y85500D02*Y82300D01*
Y85500D02*X100273Y87100D01*
X97500Y85500D02*X94727Y87100D01*
X95900Y85500D02*G75*G03X99100Y85500I1600J0D01*G01*
G75*G03X95900Y85500I-1600J0D01*G01*
X195500Y63500D02*Y60300D01*
Y63500D02*X198273Y65100D01*
X195500Y63500D02*X192727Y65100D01*
X193900Y63500D02*G75*G03X197100Y63500I1600J0D01*G01*
G75*G03X193900Y63500I-1600J0D01*G01*
X205500D02*Y60300D01*
Y63500D02*X208273Y65100D01*
X205500Y63500D02*X202727Y65100D01*
X203900Y63500D02*G75*G03X207100Y63500I1600J0D01*G01*
G75*G03X203900Y63500I-1600J0D01*G01*
X229000Y85500D02*Y82300D01*
Y85500D02*X231773Y87100D01*
X229000Y85500D02*X226227Y87100D01*
X227400Y85500D02*G75*G03X230600Y85500I1600J0D01*G01*
G75*G03X227400Y85500I-1600J0D01*G01*
X229000Y75500D02*Y72300D01*
Y75500D02*X231773Y77100D01*
X229000Y75500D02*X226227Y77100D01*
X227400Y75500D02*G75*G03X230600Y75500I1600J0D01*G01*
G75*G03X227400Y75500I-1600J0D01*G01*
X205800Y85500D02*Y82300D01*
Y85500D02*X208573Y87100D01*
X205800Y85500D02*X203027Y87100D01*
X204200Y85500D02*G75*G03X207400Y85500I1600J0D01*G01*
G75*G03X204200Y85500I-1600J0D01*G01*
X116000Y207500D02*Y204300D01*
Y207500D02*X118773Y209100D01*
X116000Y207500D02*X113227Y209100D01*
X114400Y207500D02*G75*G03X117600Y207500I1600J0D01*G01*
G75*G03X114400Y207500I-1600J0D01*G01*
X182500Y150000D02*Y146800D01*
Y150000D02*X185273Y151600D01*
X182500Y150000D02*X179727Y151600D01*
X180900Y150000D02*G75*G03X184100Y150000I1600J0D01*G01*
G75*G03X180900Y150000I-1600J0D01*G01*
X15000Y306250D02*Y303050D01*
Y306250D02*X17773Y307850D01*
X15000Y306250D02*X12227Y307850D01*
X13400Y306250D02*G75*G03X16600Y306250I1600J0D01*G01*
G75*G03X13400Y306250I-1600J0D01*G01*
X135000Y308500D02*Y307750D01*
X136500Y306250D01*
X138000Y307750D01*
Y308500D02*Y307750D01*
X136500Y306250D02*Y302500D01*
X139800Y305500D02*X142050D01*
X139800Y302500D02*X142800D01*
X139800Y308500D02*Y302500D01*
Y308500D02*X142800D01*
X147600D02*X148350Y307750D01*
X145350Y308500D02*X147600D01*
X144600Y307750D02*X145350Y308500D01*
X144600Y307750D02*Y306250D01*
X145350Y305500D01*
X147600D01*
X148350Y304750D01*
Y303250D01*
X147600Y302500D02*X148350Y303250D01*
X145350Y302500D02*X147600D01*
X144600Y303250D02*X145350Y302500D01*
X98750D02*X100250D01*
X99500Y308500D02*Y302500D01*
X98000Y307000D02*X99500Y308500D01*
X102050Y303250D02*X102800Y302500D01*
X102050Y307750D02*Y303250D01*
Y307750D02*X102800Y308500D01*
X104300D01*
X105050Y307750D01*
Y303250D01*
X104300Y302500D02*X105050Y303250D01*
X102800Y302500D02*X104300D01*
X102050Y304000D02*X105050Y307000D01*
X45000Y303250D02*X45750Y302500D01*
X45000Y307750D02*Y303250D01*
Y307750D02*X45750Y308500D01*
X47250D01*
X48000Y307750D01*
Y303250D01*
X47250Y302500D02*X48000Y303250D01*
X45750Y302500D02*X47250D01*
X45000Y304000D02*X48000Y307000D01*
X49800Y302500D02*X50550D01*
X52350Y303250D02*X53100Y302500D01*
X52350Y307750D02*Y303250D01*
Y307750D02*X53100Y308500D01*
X54600D01*
X55350Y307750D01*
Y303250D01*
X54600Y302500D02*X55350Y303250D01*
X53100Y302500D02*X54600D01*
X52350Y304000D02*X55350Y307000D01*
X57150Y308500D02*X60150D01*
X57150D02*Y305500D01*
X57900Y306250D01*
X59400D01*
X60150Y305500D01*
Y303250D01*
X59400Y302500D02*X60150Y303250D01*
X57900Y302500D02*X59400D01*
X57150Y303250D02*X57900Y302500D01*
X61950Y303250D02*X62700Y302500D01*
X61950Y307750D02*Y303250D01*
Y307750D02*X62700Y308500D01*
X64200D01*
X64950Y307750D01*
Y303250D01*
X64200Y302500D02*X64950Y303250D01*
X62700Y302500D02*X64200D01*
X61950Y304000D02*X64950Y307000D01*
X231400Y211600D02*X234600D01*
X231400D02*Y208400D01*
X234600D01*
Y211600D02*Y208400D01*
X211400Y211600D02*X214600D01*
X211400D02*Y208400D01*
X214600D01*
Y211600D02*Y208400D01*
X221400Y211600D02*X224600D01*
X221400D02*Y208400D01*
X224600D01*
Y211600D02*Y208400D01*
X13400Y322850D02*X16600D01*
X13400D02*Y319650D01*
X16600D01*
Y322850D02*Y319650D01*
X135000Y323500D02*Y322750D01*
X136500Y321250D01*
X138000Y322750D01*
Y323500D02*Y322750D01*
X136500Y321250D02*Y317500D01*
X139800Y320500D02*X142050D01*
X139800Y317500D02*X142800D01*
X139800Y323500D02*Y317500D01*
Y323500D02*X142800D01*
X147600D02*X148350Y322750D01*
X145350Y323500D02*X147600D01*
X144600Y322750D02*X145350Y323500D01*
X144600Y322750D02*Y321250D01*
X145350Y320500D01*
X147600D01*
X148350Y319750D01*
Y318250D01*
X147600Y317500D02*X148350Y318250D01*
X145350Y317500D02*X147600D01*
X144600Y318250D02*X145350Y317500D01*
X98000Y322750D02*X98750Y323500D01*
X100250D01*
X101000Y322750D01*
Y318250D01*
X100250Y317500D02*X101000Y318250D01*
X98750Y317500D02*X100250D01*
X98000Y318250D02*X98750Y317500D01*
Y320500D02*X101000D01*
X45000Y318250D02*X45750Y317500D01*
X45000Y322750D02*Y318250D01*
Y322750D02*X45750Y323500D01*
X47250D01*
X48000Y322750D01*
Y318250D01*
X47250Y317500D02*X48000Y318250D01*
X45750Y317500D02*X47250D01*
X45000Y319000D02*X48000Y322000D01*
X49800Y317500D02*X50550D01*
X52350Y318250D02*X53100Y317500D01*
X52350Y322750D02*Y318250D01*
Y322750D02*X53100Y323500D01*
X54600D01*
X55350Y322750D01*
Y318250D01*
X54600Y317500D02*X55350Y318250D01*
X53100Y317500D02*X54600D01*
X52350Y319000D02*X55350Y322000D01*
X57150Y320500D02*X60150Y323500D01*
X57150Y320500D02*X60900D01*
X60150Y323500D02*Y317500D01*
X62700Y322750D02*X63450Y323500D01*
X65700D01*
X66450Y322750D01*
Y321250D01*
X62700Y317500D02*X66450Y321250D01*
X62700Y317500D02*X66450D01*
X290200Y52500D02*G75*G03X291800Y52500I800J0D01*G01*
G75*G03X290200Y52500I-800J0D01*G01*
X257200D02*G75*G03X258800Y52500I800J0D01*G01*
G75*G03X257200Y52500I-800J0D01*G01*
X290200Y42500D02*G75*G03X291800Y42500I800J0D01*G01*
G75*G03X290200Y42500I-800J0D01*G01*
X257200D02*G75*G03X258800Y42500I800J0D01*G01*
G75*G03X257200Y42500I-800J0D01*G01*
Y32500D02*G75*G03X258800Y32500I800J0D01*G01*
G75*G03X257200Y32500I-800J0D01*G01*
Y22500D02*G75*G03X258800Y22500I800J0D01*G01*
G75*G03X257200Y22500I-800J0D01*G01*
Y12500D02*G75*G03X258800Y12500I800J0D01*G01*
G75*G03X257200Y12500I-800J0D01*G01*
X290200Y32500D02*G75*G03X291800Y32500I800J0D01*G01*
G75*G03X290200Y32500I-800J0D01*G01*
Y22500D02*G75*G03X291800Y22500I800J0D01*G01*
G75*G03X290200Y22500I-800J0D01*G01*
Y12500D02*G75*G03X291800Y12500I800J0D01*G01*
G75*G03X290200Y12500I-800J0D01*G01*
X14200Y336250D02*G75*G03X15800Y336250I800J0D01*G01*
G75*G03X14200Y336250I-800J0D01*G01*
X135000Y338500D02*Y337750D01*
X136500Y336250D01*
X138000Y337750D01*
Y338500D02*Y337750D01*
X136500Y336250D02*Y332500D01*
X139800Y335500D02*X142050D01*
X139800Y332500D02*X142800D01*
X139800Y338500D02*Y332500D01*
Y338500D02*X142800D01*
X147600D02*X148350Y337750D01*
X145350Y338500D02*X147600D01*
X144600Y337750D02*X145350Y338500D01*
X144600Y337750D02*Y336250D01*
X145350Y335500D01*
X147600D01*
X148350Y334750D01*
Y333250D01*
X147600Y332500D02*X148350Y333250D01*
X145350Y332500D02*X147600D01*
X144600Y333250D02*X145350Y332500D01*
X98750D02*X100250D01*
X99500Y338500D02*Y332500D01*
X98000Y337000D02*X99500Y338500D01*
X102050Y333250D02*X102800Y332500D01*
X102050Y337750D02*Y333250D01*
Y337750D02*X102800Y338500D01*
X104300D01*
X105050Y337750D01*
Y333250D01*
X104300Y332500D02*X105050Y333250D01*
X102800Y332500D02*X104300D01*
X102050Y334000D02*X105050Y337000D01*
X45000Y333250D02*X45750Y332500D01*
X45000Y337750D02*Y333250D01*
Y337750D02*X45750Y338500D01*
X47250D01*
X48000Y337750D01*
Y333250D01*
X47250Y332500D02*X48000Y333250D01*
X45750Y332500D02*X47250D01*
X45000Y334000D02*X48000Y337000D01*
X49800Y332500D02*X50550D01*
X52350Y333250D02*X53100Y332500D01*
X52350Y337750D02*Y333250D01*
Y337750D02*X53100Y338500D01*
X54600D01*
X55350Y337750D01*
Y333250D01*
X54600Y332500D02*X55350Y333250D01*
X53100Y332500D02*X54600D01*
X52350Y334000D02*X55350Y337000D01*
X57150Y335500D02*X60150Y338500D01*
X57150Y335500D02*X60900D01*
X60150Y338500D02*Y332500D01*
X62700Y333250D02*X63450Y332500D01*
X62700Y337750D02*Y333250D01*
Y337750D02*X63450Y338500D01*
X64950D01*
X65700Y337750D01*
Y333250D01*
X64950Y332500D02*X65700Y333250D01*
X63450Y332500D02*X64950D01*
X62700Y334000D02*X65700Y337000D01*
X269300Y198200D02*X271700Y195800D01*
X269300D02*X271700Y198200D01*
X279300D02*X281700Y195800D01*
X279300D02*X281700Y198200D01*
X13800Y352450D02*X16200Y350050D01*
X13800D02*X16200Y352450D01*
X135000Y353500D02*Y352750D01*
X136500Y351250D01*
X138000Y352750D01*
Y353500D02*Y352750D01*
X136500Y351250D02*Y347500D01*
X139800Y350500D02*X142050D01*
X139800Y347500D02*X142800D01*
X139800Y353500D02*Y347500D01*
Y353500D02*X142800D01*
X147600D02*X148350Y352750D01*
X145350Y353500D02*X147600D01*
X144600Y352750D02*X145350Y353500D01*
X144600Y352750D02*Y351250D01*
X145350Y350500D01*
X147600D01*
X148350Y349750D01*
Y348250D01*
X147600Y347500D02*X148350Y348250D01*
X145350Y347500D02*X147600D01*
X144600Y348250D02*X145350Y347500D01*
X98000Y352750D02*X98750Y353500D01*
X101000D01*
X101750Y352750D01*
Y351250D01*
X98000Y347500D02*X101750Y351250D01*
X98000Y347500D02*X101750D01*
X45000Y348250D02*X45750Y347500D01*
X45000Y352750D02*Y348250D01*
Y352750D02*X45750Y353500D01*
X47250D01*
X48000Y352750D01*
Y348250D01*
X47250Y347500D02*X48000Y348250D01*
X45750Y347500D02*X47250D01*
X45000Y349000D02*X48000Y352000D01*
X49800Y347500D02*X50550D01*
X52350Y348250D02*X53100Y347500D01*
X52350Y352750D02*Y348250D01*
Y352750D02*X53100Y353500D01*
X54600D01*
X55350Y352750D01*
Y348250D01*
X54600Y347500D02*X55350Y348250D01*
X53100Y347500D02*X54600D01*
X52350Y349000D02*X55350Y352000D01*
X57150Y352750D02*X57900Y353500D01*
X59400D01*
X60150Y352750D01*
Y348250D01*
X59400Y347500D02*X60150Y348250D01*
X57900Y347500D02*X59400D01*
X57150Y348250D02*X57900Y347500D01*
Y350500D02*X60150D01*
X61950Y352750D02*X62700Y353500D01*
X64950D01*
X65700Y352750D01*
Y351250D01*
X61950Y347500D02*X65700Y351250D01*
X61950Y347500D02*X65700D01*
X22000Y163100D02*Y159900D01*
X20400Y161500D02*X23600D01*
X40000Y163100D02*Y159900D01*
X38400Y161500D02*X41600D01*
X40000Y123100D02*Y119900D01*
X38400Y121500D02*X41600D01*
X22000Y123100D02*Y119900D01*
X20400Y121500D02*X23600D01*
X231000Y190600D02*Y187400D01*
X229400Y189000D02*X232600D01*
X231000Y180600D02*Y177400D01*
X229400Y179000D02*X232600D01*
X69500Y118100D02*Y114900D01*
X67900Y116500D02*X71100D01*
X69500Y88100D02*Y84900D01*
X67900Y86500D02*X71100D01*
X62500Y123100D02*Y119900D01*
X60900Y121500D02*X64100D01*
X62500Y83100D02*Y79900D01*
X60900Y81500D02*X64100D01*
X96500Y54100D02*Y50900D01*
X94900Y52500D02*X98100D01*
X96500Y44100D02*Y40900D01*
X94900Y42500D02*X98100D01*
X122000Y34100D02*Y30900D01*
X120400Y32500D02*X123600D01*
X162000Y34100D02*Y30900D01*
X160400Y32500D02*X163600D01*
X160500Y25100D02*Y21900D01*
X158900Y23500D02*X162100D01*
X125500Y56600D02*Y53400D01*
X123900Y55000D02*X127100D01*
X165500Y56600D02*Y53400D01*
X163900Y55000D02*X167100D01*
X257500Y71600D02*Y68400D01*
X255900Y70000D02*X259100D01*
X200500Y25100D02*Y21900D01*
X198900Y23500D02*X202100D01*
X297500Y71600D02*Y68400D01*
X295900Y70000D02*X299100D01*
X162500Y199100D02*Y195900D01*
X160900Y197500D02*X164100D01*
X202500Y199100D02*Y195900D01*
X200900Y197500D02*X204100D01*
X199500Y182600D02*Y179400D01*
X197900Y181000D02*X201100D01*
X200000Y168300D02*Y165100D01*
X198400Y166700D02*X201600D01*
X200000Y136600D02*Y133400D01*
X198400Y135000D02*X201600D01*
X210000Y136600D02*Y133400D01*
X208400Y135000D02*X211600D01*
X212000Y161600D02*Y158400D01*
X210400Y160000D02*X213600D01*
X222000Y161600D02*Y158400D01*
X220400Y160000D02*X223600D01*
X159500Y182600D02*Y179400D01*
X157900Y181000D02*X161100D01*
X160000Y168300D02*Y165100D01*
X158400Y166700D02*X161600D01*
X16500Y34100D02*Y30900D01*
X14900Y32500D02*X18100D01*
X16500Y24100D02*Y20900D01*
X14900Y22500D02*X18100D01*
X15000Y367850D02*Y364650D01*
X13400Y366250D02*X16600D01*
X135000Y368500D02*Y367750D01*
X136500Y366250D01*
X138000Y367750D01*
Y368500D02*Y367750D01*
X136500Y366250D02*Y362500D01*
X139800Y365500D02*X142050D01*
X139800Y362500D02*X142800D01*
X139800Y368500D02*Y362500D01*
Y368500D02*X142800D01*
X147600D02*X148350Y367750D01*
X145350Y368500D02*X147600D01*
X144600Y367750D02*X145350Y368500D01*
X144600Y367750D02*Y366250D01*
X145350Y365500D01*
X147600D01*
X148350Y364750D01*
Y363250D01*
X147600Y362500D02*X148350Y363250D01*
X145350Y362500D02*X147600D01*
X144600Y363250D02*X145350Y362500D01*
X98000Y367750D02*X98750Y368500D01*
X100250D01*
X101000Y367750D01*
Y363250D01*
X100250Y362500D02*X101000Y363250D01*
X98750Y362500D02*X100250D01*
X98000Y363250D02*X98750Y362500D01*
Y365500D02*X101000D01*
X102800Y367750D02*X103550Y368500D01*
X105800D01*
X106550Y367750D01*
Y366250D01*
X102800Y362500D02*X106550Y366250D01*
X102800Y362500D02*X106550D01*
X45000Y363250D02*X45750Y362500D01*
X45000Y367750D02*Y363250D01*
Y367750D02*X45750Y368500D01*
X47250D01*
X48000Y367750D01*
Y363250D01*
X47250Y362500D02*X48000Y363250D01*
X45750Y362500D02*X47250D01*
X45000Y364000D02*X48000Y367000D01*
X49800Y362500D02*X50550D01*
X52350Y363250D02*X53100Y362500D01*
X52350Y367750D02*Y363250D01*
Y367750D02*X53100Y368500D01*
X54600D01*
X55350Y367750D01*
Y363250D01*
X54600Y362500D02*X55350Y363250D01*
X53100Y362500D02*X54600D01*
X52350Y364000D02*X55350Y367000D01*
X57150Y367750D02*X57900Y368500D01*
X59400D01*
X60150Y367750D01*
Y363250D01*
X59400Y362500D02*X60150Y363250D01*
X57900Y362500D02*X59400D01*
X57150Y363250D02*X57900Y362500D01*
Y365500D02*X60150D01*
X61950Y363250D02*X62700Y362500D01*
X61950Y367750D02*Y363250D01*
Y367750D02*X62700Y368500D01*
X64200D01*
X64950Y367750D01*
Y363250D01*
X64200Y362500D02*X64950Y363250D01*
X62700Y362500D02*X64200D01*
X61950Y364000D02*X64950Y367000D01*
X40000Y109500D02*Y107900D01*
Y109500D02*X41387Y110300D01*
X40000Y109500D02*X38613Y110300D01*
X30000Y109500D02*Y107900D01*
Y109500D02*X31387Y110300D01*
X30000Y109500D02*X28613Y110300D01*
X20000Y109500D02*Y107900D01*
Y109500D02*X21387Y110300D01*
X20000Y109500D02*X18613Y110300D01*
X20000Y79500D02*Y77900D01*
Y79500D02*X21387Y80300D01*
X20000Y79500D02*X18613Y80300D01*
X30000Y79500D02*Y77900D01*
Y79500D02*X31387Y80300D01*
X30000Y79500D02*X28613Y80300D01*
X40000Y79500D02*Y77900D01*
Y79500D02*X41387Y80300D01*
X40000Y79500D02*X38613Y80300D01*
X39500Y52500D02*Y50900D01*
Y52500D02*X40887Y53300D01*
X39500Y52500D02*X38113Y53300D01*
X39500Y42500D02*Y40900D01*
Y42500D02*X40887Y43300D01*
X39500Y42500D02*X38113Y43300D01*
X39500Y32500D02*Y30900D01*
Y32500D02*X40887Y33300D01*
X39500Y32500D02*X38113Y33300D01*
X39500Y22500D02*Y20900D01*
Y22500D02*X40887Y23300D01*
X39500Y22500D02*X38113Y23300D01*
X50000Y109500D02*Y107900D01*
Y109500D02*X51387Y110300D01*
X50000Y109500D02*X48613Y110300D01*
X50000Y79500D02*Y77900D01*
Y79500D02*X51387Y80300D01*
X50000Y79500D02*X48613Y80300D01*
X69500Y22500D02*Y20900D01*
Y22500D02*X70887Y23300D01*
X69500Y22500D02*X68113Y23300D01*
X69500Y32500D02*Y30900D01*
Y32500D02*X70887Y33300D01*
X69500Y32500D02*X68113Y33300D01*
X69500Y42500D02*Y40900D01*
Y42500D02*X70887Y43300D01*
X69500Y42500D02*X68113Y43300D01*
X69500Y52500D02*Y50900D01*
Y52500D02*X70887Y53300D01*
X69500Y52500D02*X68113Y53300D01*
X15000Y381250D02*Y379650D01*
Y381250D02*X16387Y382050D01*
X15000Y381250D02*X13613Y382050D01*
X135000Y383500D02*Y382750D01*
X136500Y381250D01*
X138000Y382750D01*
Y383500D02*Y382750D01*
X136500Y381250D02*Y377500D01*
X139800Y380500D02*X142050D01*
X139800Y377500D02*X142800D01*
X139800Y383500D02*Y377500D01*
Y383500D02*X142800D01*
X147600D02*X148350Y382750D01*
X145350Y383500D02*X147600D01*
X144600Y382750D02*X145350Y383500D01*
X144600Y382750D02*Y381250D01*
X145350Y380500D01*
X147600D01*
X148350Y379750D01*
Y378250D01*
X147600Y377500D02*X148350Y378250D01*
X145350Y377500D02*X147600D01*
X144600Y378250D02*X145350Y377500D01*
X98750D02*X100250D01*
X99500Y383500D02*Y377500D01*
X98000Y382000D02*X99500Y383500D01*
X104300D02*X105050Y382750D01*
X102800Y383500D02*X104300D01*
X102050Y382750D02*X102800Y383500D01*
X102050Y382750D02*Y378250D01*
X102800Y377500D01*
X104300Y380500D02*X105050Y379750D01*
X102050Y380500D02*X104300D01*
X102800Y377500D02*X104300D01*
X105050Y378250D01*
Y379750D02*Y378250D01*
X45000D02*X45750Y377500D01*
X45000Y382750D02*Y378250D01*
Y382750D02*X45750Y383500D01*
X47250D01*
X48000Y382750D01*
Y378250D01*
X47250Y377500D02*X48000Y378250D01*
X45750Y377500D02*X47250D01*
X45000Y379000D02*X48000Y382000D01*
X49800Y377500D02*X50550D01*
X52350Y378250D02*X53100Y377500D01*
X52350Y382750D02*Y378250D01*
Y382750D02*X53100Y383500D01*
X54600D01*
X55350Y382750D01*
Y378250D01*
X54600Y377500D02*X55350Y378250D01*
X53100Y377500D02*X54600D01*
X52350Y379000D02*X55350Y382000D01*
X57150Y382750D02*X57900Y383500D01*
X60150D01*
X60900Y382750D01*
Y381250D01*
X57150Y377500D02*X60900Y381250D01*
X57150Y377500D02*X60900D01*
X62700Y378250D02*X63450Y377500D01*
X62700Y379750D02*Y378250D01*
Y379750D02*X63450Y380500D01*
X64950D01*
X65700Y379750D01*
Y378250D01*
X64950Y377500D02*X65700Y378250D01*
X63450Y377500D02*X64950D01*
X62700Y381250D02*X63450Y380500D01*
X62700Y382750D02*Y381250D01*
Y382750D02*X63450Y383500D01*
X64950D01*
X65700Y382750D01*
Y381250D01*
X64950Y380500D02*X65700Y381250D01*
X3000Y398500D02*X3750Y397750D01*
X750Y398500D02*X3000D01*
X0Y397750D02*X750Y398500D01*
X0Y397750D02*Y396250D01*
X750Y395500D01*
X3000D01*
X3750Y394750D01*
Y393250D01*
X3000Y392500D02*X3750Y393250D01*
X750Y392500D02*X3000D01*
X0Y393250D02*X750Y392500D01*
X5550Y395500D02*Y393250D01*
X6300Y392500D01*
X8550Y395500D02*Y391000D01*
X7800Y390250D02*X8550Y391000D01*
X6300Y390250D02*X7800D01*
X5550Y391000D02*X6300Y390250D01*
Y392500D02*X7800D01*
X8550Y393250D01*
X11100Y394750D02*Y392500D01*
Y394750D02*X11850Y395500D01*
X12600D01*
X13350Y394750D01*
Y392500D01*
Y394750D02*X14100Y395500D01*
X14850D01*
X15600Y394750D01*
Y392500D01*
X10350Y395500D02*X11100Y394750D01*
X17400Y398500D02*Y392500D01*
Y393250D02*X18150Y392500D01*
X19650D01*
X20400Y393250D01*
Y394750D02*Y393250D01*
X19650Y395500D02*X20400Y394750D01*
X18150Y395500D02*X19650D01*
X17400Y394750D02*X18150Y395500D01*
X22200Y394750D02*Y393250D01*
Y394750D02*X22950Y395500D01*
X24450D01*
X25200Y394750D01*
Y393250D01*
X24450Y392500D02*X25200Y393250D01*
X22950Y392500D02*X24450D01*
X22200Y393250D02*X22950Y392500D01*
X27000Y398500D02*Y393250D01*
X27750Y392500D01*
X0Y389250D02*X29250D01*
X41750Y398500D02*Y392500D01*
X44000Y398500D02*X44750Y397750D01*
Y393250D01*
X44000Y392500D02*X44750Y393250D01*
X41000Y392500D02*X44000D01*
X41000Y398500D02*X44000D01*
X46550Y397000D02*Y396250D01*
Y394750D02*Y392500D01*
X50300Y395500D02*X51050Y394750D01*
X48800Y395500D02*X50300D01*
X48050Y394750D02*X48800Y395500D01*
X48050Y394750D02*Y393250D01*
X48800Y392500D01*
X51050Y395500D02*Y393250D01*
X51800Y392500D01*
X48800D02*X50300D01*
X51050Y393250D01*
X54350Y394750D02*Y392500D01*
Y394750D02*X55100Y395500D01*
X55850D01*
X56600Y394750D01*
Y392500D01*
Y394750D02*X57350Y395500D01*
X58100D01*
X58850Y394750D01*
Y392500D01*
X53600Y395500D02*X54350Y394750D01*
X60650Y392500D02*X61400D01*
X65900Y393250D02*X66650Y392500D01*
X65900Y397750D02*X66650Y398500D01*
X65900Y397750D02*Y393250D01*
X68450Y398500D02*X69950D01*
X69200D02*Y392500D01*
X68450D02*X69950D01*
X72500Y394750D02*Y392500D01*
Y394750D02*X73250Y395500D01*
X74000D01*
X74750Y394750D01*
Y392500D01*
X71750Y395500D02*X72500Y394750D01*
X77300Y395500D02*X79550D01*
X76550Y394750D02*X77300Y395500D01*
X76550Y394750D02*Y393250D01*
X77300Y392500D01*
X79550D01*
X81350Y398500D02*Y392500D01*
Y394750D02*X82100Y395500D01*
X83600D01*
X84350Y394750D01*
Y392500D01*
X86150Y398500D02*X86900Y397750D01*
Y393250D01*
X86150Y392500D02*X86900Y393250D01*
X41000Y389250D02*X88700D01*
X95750Y392500D02*X98000D01*
X95000Y393250D02*X95750Y392500D01*
X95000Y397750D02*Y393250D01*
Y397750D02*X95750Y398500D01*
X98000D01*
X99800Y394750D02*Y393250D01*
Y394750D02*X100550Y395500D01*
X102050D01*
X102800Y394750D01*
Y393250D01*
X102050Y392500D02*X102800Y393250D01*
X100550Y392500D02*X102050D01*
X99800Y393250D02*X100550Y392500D01*
X104600Y395500D02*Y393250D01*
X105350Y392500D01*
X106850D01*
X107600Y393250D01*
Y395500D02*Y393250D01*
X110150Y394750D02*Y392500D01*
Y394750D02*X110900Y395500D01*
X111650D01*
X112400Y394750D01*
Y392500D01*
X109400Y395500D02*X110150Y394750D01*
X114950Y398500D02*Y393250D01*
X115700Y392500D01*
X114200Y396250D02*X115700D01*
X95000Y389250D02*X117200D01*
X130750Y398500D02*Y392500D01*
X130000Y398500D02*X133000D01*
X133750Y397750D01*
Y396250D01*
X133000Y395500D02*X133750Y396250D01*
X130750Y395500D02*X133000D01*
X135550Y398500D02*Y393250D01*
X136300Y392500D01*
X140050Y395500D02*X140800Y394750D01*
X138550Y395500D02*X140050D01*
X137800Y394750D02*X138550Y395500D01*
X137800Y394750D02*Y393250D01*
X138550Y392500D01*
X140800Y395500D02*Y393250D01*
X141550Y392500D01*
X138550D02*X140050D01*
X140800Y393250D01*
X144100Y398500D02*Y393250D01*
X144850Y392500D01*
X143350Y396250D02*X144850D01*
X147100Y392500D02*X149350D01*
X146350Y393250D02*X147100Y392500D01*
X146350Y394750D02*Y393250D01*
Y394750D02*X147100Y395500D01*
X148600D01*
X149350Y394750D01*
X146350Y394000D02*X149350D01*
Y394750D01*
X154150Y398500D02*Y392500D01*
X153400D02*X154150Y393250D01*
X151900Y392500D02*X153400D01*
X151150Y393250D02*X151900Y392500D01*
X151150Y394750D02*Y393250D01*
Y394750D02*X151900Y395500D01*
X153400D01*
X154150Y394750D01*
X157450Y395500D02*Y394750D01*
Y393250D02*Y392500D01*
X155950Y397750D02*Y397000D01*
Y397750D02*X156700Y398500D01*
X158200D01*
X158950Y397750D01*
Y397000D01*
X157450Y395500D02*X158950Y397000D01*
X130000Y389250D02*X160750D01*
X0Y413500D02*X3000D01*
X1500D02*Y407500D01*
X4800Y413500D02*Y407500D01*
Y409750D02*X5550Y410500D01*
X7050D01*
X7800Y409750D01*
Y407500D01*
X10350D02*X12600D01*
X9600Y408250D02*X10350Y407500D01*
X9600Y409750D02*Y408250D01*
Y409750D02*X10350Y410500D01*
X11850D01*
X12600Y409750D01*
X9600Y409000D02*X12600D01*
Y409750D01*
X15150D02*Y407500D01*
Y409750D02*X15900Y410500D01*
X17400D01*
X14400D02*X15150Y409750D01*
X19950Y407500D02*X22200D01*
X19200Y408250D02*X19950Y407500D01*
X19200Y409750D02*Y408250D01*
Y409750D02*X19950Y410500D01*
X21450D01*
X22200Y409750D01*
X19200Y409000D02*X22200D01*
Y409750D01*
X28950Y410500D02*X29700Y409750D01*
X27450Y410500D02*X28950D01*
X26700Y409750D02*X27450Y410500D01*
X26700Y409750D02*Y408250D01*
X27450Y407500D01*
X29700Y410500D02*Y408250D01*
X30450Y407500D01*
X27450D02*X28950D01*
X29700Y408250D01*
X33000Y409750D02*Y407500D01*
Y409750D02*X33750Y410500D01*
X35250D01*
X32250D02*X33000Y409750D01*
X37800Y407500D02*X40050D01*
X37050Y408250D02*X37800Y407500D01*
X37050Y409750D02*Y408250D01*
Y409750D02*X37800Y410500D01*
X39300D01*
X40050Y409750D01*
X37050Y409000D02*X40050D01*
Y409750D01*
X44550Y407500D02*X47550Y410500D01*
Y412750D02*Y410500D01*
X46800Y413500D02*X47550Y412750D01*
X45300Y413500D02*X46800D01*
X44550Y412750D02*X45300Y413500D01*
X44550Y412750D02*Y411250D01*
X45300Y410500D01*
X47550D01*
X55050Y413500D02*Y407500D01*
X54300D02*X55050Y408250D01*
X52800Y407500D02*X54300D01*
X52050Y408250D02*X52800Y407500D01*
X52050Y409750D02*Y408250D01*
Y409750D02*X52800Y410500D01*
X54300D01*
X55050Y409750D01*
X56850Y412000D02*Y411250D01*
Y409750D02*Y407500D01*
X59100Y412750D02*Y407500D01*
Y412750D02*X59850Y413500D01*
X60600D01*
X58350Y410500D02*X59850D01*
X62850Y412750D02*Y407500D01*
Y412750D02*X63600Y413500D01*
X64350D01*
X62100Y410500D02*X63600D01*
X66600Y407500D02*X68850D01*
X65850Y408250D02*X66600Y407500D01*
X65850Y409750D02*Y408250D01*
Y409750D02*X66600Y410500D01*
X68100D01*
X68850Y409750D01*
X65850Y409000D02*X68850D01*
Y409750D01*
X71400D02*Y407500D01*
Y409750D02*X72150Y410500D01*
X73650D01*
X70650D02*X71400Y409750D01*
X76200Y407500D02*X78450D01*
X75450Y408250D02*X76200Y407500D01*
X75450Y409750D02*Y408250D01*
Y409750D02*X76200Y410500D01*
X77700D01*
X78450Y409750D01*
X75450Y409000D02*X78450D01*
Y409750D01*
X81000D02*Y407500D01*
Y409750D02*X81750Y410500D01*
X82500D01*
X83250Y409750D01*
Y407500D01*
X80250Y410500D02*X81000Y409750D01*
X85800Y413500D02*Y408250D01*
X86550Y407500D01*
X85050Y411250D02*X86550D01*
X93750Y413500D02*Y407500D01*
X93000D02*X93750Y408250D01*
X91500Y407500D02*X93000D01*
X90750Y408250D02*X91500Y407500D01*
X90750Y409750D02*Y408250D01*
Y409750D02*X91500Y410500D01*
X93000D01*
X93750Y409750D01*
X96300D02*Y407500D01*
Y409750D02*X97050Y410500D01*
X98550D01*
X95550D02*X96300Y409750D01*
X100350Y412000D02*Y411250D01*
Y409750D02*Y407500D01*
X101850Y413500D02*Y408250D01*
X102600Y407500D01*
X104100Y413500D02*Y408250D01*
X104850Y407500D01*
X109800D02*X112050D01*
X112800Y408250D01*
X112050Y409000D02*X112800Y408250D01*
X109800Y409000D02*X112050D01*
X109050Y409750D02*X109800Y409000D01*
X109050Y409750D02*X109800Y410500D01*
X112050D01*
X112800Y409750D01*
X109050Y408250D02*X109800Y407500D01*
X114600Y412000D02*Y411250D01*
Y409750D02*Y407500D01*
X116100Y410500D02*X119100D01*
X116100Y407500D02*X119100Y410500D01*
X116100Y407500D02*X119100D01*
X121650D02*X123900D01*
X120900Y408250D02*X121650Y407500D01*
X120900Y409750D02*Y408250D01*
Y409750D02*X121650Y410500D01*
X123150D01*
X123900Y409750D01*
X120900Y409000D02*X123900D01*
Y409750D01*
X126450Y407500D02*X128700D01*
X129450Y408250D01*
X128700Y409000D02*X129450Y408250D01*
X126450Y409000D02*X128700D01*
X125700Y409750D02*X126450Y409000D01*
X125700Y409750D02*X126450Y410500D01*
X128700D01*
X129450Y409750D01*
X125700Y408250D02*X126450Y407500D01*
X133950Y410500D02*Y408250D01*
X134700Y407500D01*
X136200D01*
X136950Y408250D01*
Y410500D02*Y408250D01*
X139500Y407500D02*X141750D01*
X142500Y408250D01*
X141750Y409000D02*X142500Y408250D01*
X139500Y409000D02*X141750D01*
X138750Y409750D02*X139500Y409000D01*
X138750Y409750D02*X139500Y410500D01*
X141750D01*
X142500Y409750D01*
X138750Y408250D02*X139500Y407500D01*
X145050D02*X147300D01*
X144300Y408250D02*X145050Y407500D01*
X144300Y409750D02*Y408250D01*
Y409750D02*X145050Y410500D01*
X146550D01*
X147300Y409750D01*
X144300Y409000D02*X147300D01*
Y409750D01*
X152100Y413500D02*Y407500D01*
X151350D02*X152100Y408250D01*
X149850Y407500D02*X151350D01*
X149100Y408250D02*X149850Y407500D01*
X149100Y409750D02*Y408250D01*
Y409750D02*X149850Y410500D01*
X151350D01*
X152100Y409750D01*
X156600Y412000D02*Y411250D01*
Y409750D02*Y407500D01*
X158850Y409750D02*Y407500D01*
Y409750D02*X159600Y410500D01*
X160350D01*
X161100Y409750D01*
Y407500D01*
X158100Y410500D02*X158850Y409750D01*
X166350Y413500D02*Y408250D01*
X167100Y407500D01*
X165600Y411250D02*X167100D01*
X168600Y413500D02*Y407500D01*
Y409750D02*X169350Y410500D01*
X170850D01*
X171600Y409750D01*
Y407500D01*
X173400Y412000D02*Y411250D01*
Y409750D02*Y407500D01*
X175650D02*X177900D01*
X178650Y408250D01*
X177900Y409000D02*X178650Y408250D01*
X175650Y409000D02*X177900D01*
X174900Y409750D02*X175650Y409000D01*
X174900Y409750D02*X175650Y410500D01*
X177900D01*
X178650Y409750D01*
X174900Y408250D02*X175650Y407500D01*
X183150Y413500D02*Y408250D01*
X183900Y407500D01*
X187650Y410500D02*X188400Y409750D01*
X186150Y410500D02*X187650D01*
X185400Y409750D02*X186150Y410500D01*
X185400Y409750D02*Y408250D01*
X186150Y407500D01*
X188400Y410500D02*Y408250D01*
X189150Y407500D01*
X186150D02*X187650D01*
X188400Y408250D01*
X190950Y410500D02*Y408250D01*
X191700Y407500D01*
X193950Y410500D02*Y406000D01*
X193200Y405250D02*X193950Y406000D01*
X191700Y405250D02*X193200D01*
X190950Y406000D02*X191700Y405250D01*
Y407500D02*X193200D01*
X193950Y408250D01*
X195750Y409750D02*Y408250D01*
Y409750D02*X196500Y410500D01*
X198000D01*
X198750Y409750D01*
Y408250D01*
X198000Y407500D02*X198750Y408250D01*
X196500Y407500D02*X198000D01*
X195750Y408250D02*X196500Y407500D01*
X200550Y410500D02*Y408250D01*
X201300Y407500D01*
X202800D01*
X203550Y408250D01*
Y410500D02*Y408250D01*
X206100Y413500D02*Y408250D01*
X206850Y407500D01*
X205350Y411250D02*X206850D01*
X208350Y406000D02*X209850Y407500D01*
X214350Y408250D02*X215100Y407500D01*
X214350Y409750D02*Y408250D01*
Y409750D02*X215100Y410500D01*
X216600D01*
X217350Y409750D01*
Y408250D01*
X216600Y407500D02*X217350Y408250D01*
X215100Y407500D02*X216600D01*
X214350Y411250D02*X215100Y410500D01*
X214350Y412750D02*Y411250D01*
Y412750D02*X215100Y413500D01*
X216600D01*
X217350Y412750D01*
Y411250D01*
X216600Y410500D02*X217350Y411250D01*
X219150Y412750D02*X219900Y413500D01*
X221400D01*
X222150Y412750D01*
Y408250D01*
X221400Y407500D02*X222150Y408250D01*
X219900Y407500D02*X221400D01*
X219150Y408250D02*X219900Y407500D01*
Y410500D02*X222150D01*
X226650Y413500D02*Y407500D01*
Y409750D02*X227400Y410500D01*
X228900D01*
X229650Y409750D01*
Y407500D01*
X231450Y409750D02*Y408250D01*
Y409750D02*X232200Y410500D01*
X233700D01*
X234450Y409750D01*
Y408250D01*
X233700Y407500D02*X234450Y408250D01*
X232200Y407500D02*X233700D01*
X231450Y408250D02*X232200Y407500D01*
X236250Y413500D02*Y408250D01*
X237000Y407500D01*
X239250D02*X241500D01*
X238500Y408250D02*X239250Y407500D01*
X238500Y409750D02*Y408250D01*
Y409750D02*X239250Y410500D01*
X240750D01*
X241500Y409750D01*
X238500Y409000D02*X241500D01*
Y409750D01*
X244050Y407500D02*X246300D01*
X247050Y408250D01*
X246300Y409000D02*X247050Y408250D01*
X244050Y409000D02*X246300D01*
X243300Y409750D02*X244050Y409000D01*
X243300Y409750D02*X244050Y410500D01*
X246300D01*
X247050Y409750D01*
X243300Y408250D02*X244050Y407500D01*
X252300Y413500D02*Y408250D01*
X253050Y407500D01*
X251550Y411250D02*X253050D01*
X254550Y409750D02*Y408250D01*
Y409750D02*X255300Y410500D01*
X256800D01*
X257550Y409750D01*
Y408250D01*
X256800Y407500D02*X257550Y408250D01*
X255300Y407500D02*X256800D01*
X254550Y408250D02*X255300Y407500D01*
X260100Y413500D02*Y408250D01*
X260850Y407500D01*
X259350Y411250D02*X260850D01*
X264600Y410500D02*X265350Y409750D01*
X263100Y410500D02*X264600D01*
X262350Y409750D02*X263100Y410500D01*
X262350Y409750D02*Y408250D01*
X263100Y407500D01*
X265350Y410500D02*Y408250D01*
X266100Y407500D01*
X263100D02*X264600D01*
X265350Y408250D01*
X267900Y413500D02*Y408250D01*
X268650Y407500D01*
G54D78*X312500Y245000D02*Y9500D01*
X3000Y245000D02*Y9500D01*
X57500Y245000D02*X81500Y221000D01*
X151000D02*X81500D01*
X151000D02*X175000Y245000D01*
X312500D02*X175000D01*
X3000D02*X57500D01*
X304000Y1000D02*X11500D01*
X312500Y9500D02*G75*G02X304000Y1000I-8500J0D01*G01*
X11500D02*G75*G02X3000Y9500I0J8500D01*G01*
G54D77*X71925Y-9500D02*X74925D01*
X75675Y-8750D01*
Y-7250D02*Y-8750D01*
X74925Y-6500D02*X75675Y-7250D01*
X72675Y-6500D02*X74925D01*
X72675Y-3500D02*Y-9500D01*
X71925Y-3500D02*X74925D01*
X75675Y-4250D01*
Y-5750D01*
X74925Y-6500D02*X75675Y-5750D01*
X77475Y-7250D02*Y-8750D01*
Y-7250D02*X78225Y-6500D01*
X79725D01*
X80475Y-7250D01*
Y-8750D01*
X79725Y-9500D02*X80475Y-8750D01*
X78225Y-9500D02*X79725D01*
X77475Y-8750D02*X78225Y-9500D01*
X84525Y-6500D02*X85275Y-7250D01*
X83025Y-6500D02*X84525D01*
X82275Y-7250D02*X83025Y-6500D01*
X82275Y-7250D02*Y-8750D01*
X83025Y-9500D01*
X85275Y-6500D02*Y-8750D01*
X86025Y-9500D01*
X83025D02*X84525D01*
X85275Y-8750D01*
X88575Y-7250D02*Y-9500D01*
Y-7250D02*X89325Y-6500D01*
X90825D01*
X87825D02*X88575Y-7250D01*
X95625Y-3500D02*Y-9500D01*
X94875D02*X95625Y-8750D01*
X93375Y-9500D02*X94875D01*
X92625Y-8750D02*X93375Y-9500D01*
X92625Y-7250D02*Y-8750D01*
Y-7250D02*X93375Y-6500D01*
X94875D01*
X95625Y-7250D01*
X100125D02*Y-8750D01*
Y-7250D02*X100875Y-6500D01*
X102375D01*
X103125Y-7250D01*
Y-8750D01*
X102375Y-9500D02*X103125Y-8750D01*
X100875Y-9500D02*X102375D01*
X100125Y-8750D02*X100875Y-9500D01*
X104925Y-6500D02*Y-8750D01*
X105675Y-9500D01*
X107175D01*
X107925Y-8750D01*
Y-6500D02*Y-8750D01*
X110475Y-3500D02*Y-8750D01*
X111225Y-9500D01*
X109725Y-5750D02*X111225D01*
X112725Y-3500D02*Y-8750D01*
X113475Y-9500D01*
X114975Y-5000D02*Y-5750D01*
Y-7250D02*Y-9500D01*
X117225Y-7250D02*Y-9500D01*
Y-7250D02*X117975Y-6500D01*
X118725D01*
X119475Y-7250D01*
Y-9500D01*
X116475Y-6500D02*X117225Y-7250D01*
X122025Y-9500D02*X124275D01*
X121275Y-8750D02*X122025Y-9500D01*
X121275Y-7250D02*Y-8750D01*
Y-7250D02*X122025Y-6500D01*
X123525D01*
X124275Y-7250D01*
X121275Y-8000D02*X124275D01*
Y-7250D01*
X128775Y-5000D02*Y-5750D01*
Y-7250D02*Y-9500D01*
X131025D02*X133275D01*
X134025Y-8750D01*
X133275Y-8000D02*X134025Y-8750D01*
X131025Y-8000D02*X133275D01*
X130275Y-7250D02*X131025Y-8000D01*
X130275Y-7250D02*X131025Y-6500D01*
X133275D01*
X134025Y-7250D01*
X130275Y-8750D02*X131025Y-9500D01*
X139275Y-3500D02*Y-8750D01*
X140025Y-9500D01*
X138525Y-5750D02*X140025D01*
X141525Y-3500D02*Y-9500D01*
Y-7250D02*X142275Y-6500D01*
X143775D01*
X144525Y-7250D01*
Y-9500D01*
X147075D02*X149325D01*
X146325Y-8750D02*X147075Y-9500D01*
X146325Y-7250D02*Y-8750D01*
Y-7250D02*X147075Y-6500D01*
X148575D01*
X149325Y-7250D01*
X146325Y-8000D02*X149325D01*
Y-7250D01*
X154575Y-6500D02*X156825D01*
X153825Y-7250D02*X154575Y-6500D01*
X153825Y-7250D02*Y-8750D01*
X154575Y-9500D01*
X156825D01*
X159375D02*X161625D01*
X158625Y-8750D02*X159375Y-9500D01*
X158625Y-7250D02*Y-8750D01*
Y-7250D02*X159375Y-6500D01*
X160875D01*
X161625Y-7250D01*
X158625Y-8000D02*X161625D01*
Y-7250D01*
X164175D02*Y-9500D01*
Y-7250D02*X164925Y-6500D01*
X165675D01*
X166425Y-7250D01*
Y-9500D01*
X163425Y-6500D02*X164175Y-7250D01*
X168975Y-3500D02*Y-8750D01*
X169725Y-9500D01*
X168225Y-5750D02*X169725D01*
X171975Y-9500D02*X174225D01*
X171225Y-8750D02*X171975Y-9500D01*
X171225Y-7250D02*Y-8750D01*
Y-7250D02*X171975Y-6500D01*
X173475D01*
X174225Y-7250D01*
X171225Y-8000D02*X174225D01*
Y-7250D01*
X176775D02*Y-9500D01*
Y-7250D02*X177525Y-6500D01*
X179025D01*
X176025D02*X176775Y-7250D01*
X180825Y-3500D02*Y-8750D01*
X181575Y-9500D01*
X183075Y-5000D02*Y-5750D01*
Y-7250D02*Y-9500D01*
X185325Y-7250D02*Y-9500D01*
Y-7250D02*X186075Y-6500D01*
X186825D01*
X187575Y-7250D01*
Y-9500D01*
X184575Y-6500D02*X185325Y-7250D01*
X190125Y-9500D02*X192375D01*
X189375Y-8750D02*X190125Y-9500D01*
X189375Y-7250D02*Y-8750D01*
Y-7250D02*X190125Y-6500D01*
X191625D01*
X192375Y-7250D01*
X189375Y-8000D02*X192375D01*
Y-7250D01*
X196875D02*Y-8750D01*
Y-7250D02*X197625Y-6500D01*
X199125D01*
X199875Y-7250D01*
Y-8750D01*
X199125Y-9500D02*X199875Y-8750D01*
X197625Y-9500D02*X199125D01*
X196875Y-8750D02*X197625Y-9500D01*
X202425Y-4250D02*Y-9500D01*
Y-4250D02*X203175Y-3500D01*
X203925D01*
X201675Y-6500D02*X203175D01*
X208875Y-3500D02*Y-8750D01*
X209625Y-9500D01*
X208125Y-5750D02*X209625D01*
X211125Y-3500D02*Y-9500D01*
Y-7250D02*X211875Y-6500D01*
X213375D01*
X214125Y-7250D01*
Y-9500D01*
X215925Y-5000D02*Y-5750D01*
Y-7250D02*Y-9500D01*
X218175D02*X220425D01*
X221175Y-8750D01*
X220425Y-8000D02*X221175Y-8750D01*
X218175Y-8000D02*X220425D01*
X217425Y-7250D02*X218175Y-8000D01*
X217425Y-7250D02*X218175Y-6500D01*
X220425D01*
X221175Y-7250D01*
X217425Y-8750D02*X218175Y-9500D01*
X226425Y-7250D02*Y-11750D01*
X225675Y-6500D02*X226425Y-7250D01*
X227175Y-6500D01*
X228675D01*
X229425Y-7250D01*
Y-8750D01*
X228675Y-9500D02*X229425Y-8750D01*
X227175Y-9500D02*X228675D01*
X226425Y-8750D02*X227175Y-9500D01*
X233475Y-6500D02*X234225Y-7250D01*
X231975Y-6500D02*X233475D01*
X231225Y-7250D02*X231975Y-6500D01*
X231225Y-7250D02*Y-8750D01*
X231975Y-9500D01*
X234225Y-6500D02*Y-8750D01*
X234975Y-9500D01*
X231975D02*X233475D01*
X234225Y-8750D01*
X237525Y-3500D02*Y-8750D01*
X238275Y-9500D01*
X236775Y-5750D02*X238275D01*
X239775Y-3500D02*Y-9500D01*
Y-7250D02*X240525Y-6500D01*
X242025D01*
X242775Y-7250D01*
Y-9500D01*
X200750Y278500D02*Y272500D01*
X203000Y278500D02*X203750Y277750D01*
Y273250D01*
X203000Y272500D02*X203750Y273250D01*
X200000Y272500D02*X203000D01*
X200000Y278500D02*X203000D01*
X207800Y275500D02*X208550Y274750D01*
X206300Y275500D02*X207800D01*
X205550Y274750D02*X206300Y275500D01*
X205550Y274750D02*Y273250D01*
X206300Y272500D01*
X208550Y275500D02*Y273250D01*
X209300Y272500D01*
X206300D02*X207800D01*
X208550Y273250D01*
X211850Y278500D02*Y273250D01*
X212600Y272500D01*
X211100Y276250D02*X212600D01*
X214850Y272500D02*X217100D01*
X214100Y273250D02*X214850Y272500D01*
X214100Y274750D02*Y273250D01*
Y274750D02*X214850Y275500D01*
X216350D01*
X217100Y274750D01*
X214100Y274000D02*X217100D01*
Y274750D01*
X218900Y276250D02*X219650D01*
X218900Y274750D02*X219650D01*
X224150Y277750D02*X224900Y278500D01*
X227150D01*
X227900Y277750D01*
Y276250D01*
X224150Y272500D02*X227900Y276250D01*
X224150Y272500D02*X227900D01*
X229700Y273250D02*X230450Y272500D01*
X229700Y277750D02*Y273250D01*
Y277750D02*X230450Y278500D01*
X231950D01*
X232700Y277750D01*
Y273250D01*
X231950Y272500D02*X232700Y273250D01*
X230450Y272500D02*X231950D01*
X229700Y274000D02*X232700Y277000D01*
X235250Y272500D02*X236750D01*
X236000Y278500D02*Y272500D01*
X234500Y277000D02*X236000Y278500D01*
X238550Y272500D02*X241550Y275500D01*
Y277750D02*Y275500D01*
X240800Y278500D02*X241550Y277750D01*
X239300Y278500D02*X240800D01*
X238550Y277750D02*X239300Y278500D01*
X238550Y277750D02*Y276250D01*
X239300Y275500D01*
X241550D01*
X243350D02*X246350D01*
X248150Y273250D02*X248900Y272500D01*
X248150Y277750D02*Y273250D01*
Y277750D02*X248900Y278500D01*
X250400D01*
X251150Y277750D01*
Y273250D01*
X250400Y272500D02*X251150Y273250D01*
X248900Y272500D02*X250400D01*
X248150Y274000D02*X251150Y277000D01*
X252950Y277750D02*X253700Y278500D01*
X255950D01*
X256700Y277750D01*
Y276250D01*
X252950Y272500D02*X256700Y276250D01*
X252950Y272500D02*X256700D01*
X258500Y275500D02*X261500D01*
X264050Y272500D02*X265550D01*
X264800Y278500D02*Y272500D01*
X263300Y277000D02*X264800Y278500D01*
X267350Y275500D02*X270350Y278500D01*
X267350Y275500D02*X271100D01*
X270350Y278500D02*Y272500D01*
X275600Y277750D02*X276350Y278500D01*
X278600D01*
X279350Y277750D01*
Y276250D01*
X275600Y272500D02*X279350Y276250D01*
X275600Y272500D02*X279350D01*
X281150Y273250D02*X281900Y272500D01*
X281150Y277750D02*Y273250D01*
Y277750D02*X281900Y278500D01*
X283400D01*
X284150Y277750D01*
Y273250D01*
X283400Y272500D02*X284150Y273250D01*
X281900Y272500D02*X283400D01*
X281150Y274000D02*X284150Y277000D01*
X285950Y276250D02*X286700D01*
X285950Y274750D02*X286700D01*
X288500Y275500D02*X291500Y278500D01*
X288500Y275500D02*X292250D01*
X291500Y278500D02*Y272500D01*
X294050D02*X297800Y276250D01*
Y278500D02*Y276250D01*
X294050Y278500D02*X297800D01*
X299600Y276250D02*X300350D01*
X299600Y274750D02*X300350D01*
X302900Y272500D02*X304400D01*
X303650Y278500D02*Y272500D01*
X302150Y277000D02*X303650Y278500D01*
X306200Y273250D02*X306950Y272500D01*
X306200Y274750D02*Y273250D01*
Y274750D02*X306950Y275500D01*
X308450D01*
X309200Y274750D01*
Y273250D01*
X308450Y272500D02*X309200Y273250D01*
X306950Y272500D02*X308450D01*
X306200Y276250D02*X306950Y275500D01*
X306200Y277750D02*Y276250D01*
Y277750D02*X306950Y278500D01*
X308450D01*
X309200Y277750D01*
Y276250D01*
X308450Y275500D02*X309200Y276250D01*
X313700Y278500D02*Y273250D01*
X314450Y272500D01*
X315950D01*
X316700Y273250D01*
Y278500D02*Y273250D01*
X318500Y278500D02*X321500D01*
X320000D02*Y272500D01*
X324050D02*X326300D01*
X323300Y273250D02*X324050Y272500D01*
X323300Y277750D02*Y273250D01*
Y277750D02*X324050Y278500D01*
X326300D01*
X200000Y292750D02*Y287500D01*
Y292750D02*X200750Y293500D01*
X203000D01*
X203750Y292750D01*
Y287500D01*
X200000Y290500D02*X203750D01*
X205550D02*Y288250D01*
X206300Y287500D01*
X207800D01*
X208550Y288250D01*
Y290500D02*Y288250D01*
X211100Y293500D02*Y288250D01*
X211850Y287500D01*
X210350Y291250D02*X211850D01*
X213350Y293500D02*Y287500D01*
Y289750D02*X214100Y290500D01*
X215600D01*
X216350Y289750D01*
Y287500D01*
X218150Y289750D02*Y288250D01*
Y289750D02*X218900Y290500D01*
X220400D01*
X221150Y289750D01*
Y288250D01*
X220400Y287500D02*X221150Y288250D01*
X218900Y287500D02*X220400D01*
X218150Y288250D02*X218900Y287500D01*
X223700Y289750D02*Y287500D01*
Y289750D02*X224450Y290500D01*
X225950D01*
X222950D02*X223700Y289750D01*
X227750Y291250D02*X228500D01*
X227750Y289750D02*X228500D01*
X200000Y308500D02*X203000D01*
X201500D02*Y302500D01*
X204800Y307000D02*Y306250D01*
Y304750D02*Y302500D01*
X207050Y308500D02*Y303250D01*
X207800Y302500D01*
X206300Y306250D02*X207800D01*
X209300Y308500D02*Y303250D01*
X210050Y302500D01*
X212300D02*X214550D01*
X211550Y303250D02*X212300Y302500D01*
X211550Y304750D02*Y303250D01*
Y304750D02*X212300Y305500D01*
X213800D01*
X214550Y304750D01*
X211550Y304000D02*X214550D01*
Y304750D01*
X216350Y306250D02*X217100D01*
X216350Y304750D02*X217100D01*
X221600Y303250D02*X222350Y302500D01*
X221600Y307750D02*X222350Y308500D01*
X221600Y307750D02*Y303250D01*
X224150Y305500D02*Y303250D01*
X224900Y302500D01*
X226400D01*
X227150Y303250D01*
Y305500D02*Y303250D01*
X229700Y304750D02*Y302500D01*
Y304750D02*X230450Y305500D01*
X231200D01*
X231950Y304750D01*
Y302500D01*
X228950Y305500D02*X229700Y304750D01*
X233750Y308500D02*Y302500D01*
Y304750D02*X236000Y302500D01*
X233750Y304750D02*X235250Y306250D01*
X238550Y304750D02*Y302500D01*
Y304750D02*X239300Y305500D01*
X240050D01*
X240800Y304750D01*
Y302500D01*
X237800Y305500D02*X238550Y304750D01*
X242600D02*Y303250D01*
Y304750D02*X243350Y305500D01*
X244850D01*
X245600Y304750D01*
Y303250D01*
X244850Y302500D02*X245600Y303250D01*
X243350Y302500D02*X244850D01*
X242600Y303250D02*X243350Y302500D01*
X247400Y305500D02*Y303250D01*
X248150Y302500D01*
X248900D01*
X249650Y303250D01*
Y305500D02*Y303250D01*
X250400Y302500D01*
X251150D01*
X251900Y303250D01*
Y305500D02*Y303250D01*
X254450Y304750D02*Y302500D01*
Y304750D02*X255200Y305500D01*
X255950D01*
X256700Y304750D01*
Y302500D01*
X253700Y305500D02*X254450Y304750D01*
X258500Y308500D02*X259250Y307750D01*
Y303250D01*
X258500Y302500D02*X259250Y303250D01*
X263750Y305500D02*X266750D01*
X271250Y308500D02*Y302500D01*
Y308500D02*X274250D01*
X271250Y305500D02*X273500D01*
X278300D02*X279050Y304750D01*
X276800Y305500D02*X278300D01*
X276050Y304750D02*X276800Y305500D01*
X276050Y304750D02*Y303250D01*
X276800Y302500D01*
X279050Y305500D02*Y303250D01*
X279800Y302500D01*
X276800D02*X278300D01*
X279050Y303250D01*
X281600Y308500D02*Y302500D01*
Y303250D02*X282350Y302500D01*
X283850D01*
X284600Y303250D01*
Y304750D02*Y303250D01*
X283850Y305500D02*X284600Y304750D01*
X282350Y305500D02*X283850D01*
X281600Y304750D02*X282350Y305500D01*
X287150Y304750D02*Y302500D01*
Y304750D02*X287900Y305500D01*
X289400D01*
X286400D02*X287150Y304750D01*
X291200Y307000D02*Y306250D01*
Y304750D02*Y302500D01*
X293450Y305500D02*X295700D01*
X292700Y304750D02*X293450Y305500D01*
X292700Y304750D02*Y303250D01*
X293450Y302500D01*
X295700D01*
X299750Y305500D02*X300500Y304750D01*
X298250Y305500D02*X299750D01*
X297500Y304750D02*X298250Y305500D01*
X297500Y304750D02*Y303250D01*
X298250Y302500D01*
X300500Y305500D02*Y303250D01*
X301250Y302500D01*
X298250D02*X299750D01*
X300500Y303250D01*
X303800Y308500D02*Y303250D01*
X304550Y302500D01*
X303050Y306250D02*X304550D01*
X306050Y307000D02*Y306250D01*
Y304750D02*Y302500D01*
X307550Y304750D02*Y303250D01*
Y304750D02*X308300Y305500D01*
X309800D01*
X310550Y304750D01*
Y303250D01*
X309800Y302500D02*X310550Y303250D01*
X308300Y302500D02*X309800D01*
X307550Y303250D02*X308300Y302500D01*
X313100Y304750D02*Y302500D01*
Y304750D02*X313850Y305500D01*
X314600D01*
X315350Y304750D01*
Y302500D01*
X312350Y305500D02*X313100Y304750D01*
X320600Y308500D02*Y302500D01*
X322850Y308500D02*X323600Y307750D01*
Y303250D01*
X322850Y302500D02*X323600Y303250D01*
X319850Y302500D02*X322850D01*
X319850Y308500D02*X322850D01*
X326150Y304750D02*Y302500D01*
Y304750D02*X326900Y305500D01*
X328400D01*
X325400D02*X326150Y304750D01*
X332450Y305500D02*X333200Y304750D01*
X330950Y305500D02*X332450D01*
X330200Y304750D02*X330950Y305500D01*
X330200Y304750D02*Y303250D01*
X330950Y302500D01*
X333200Y305500D02*Y303250D01*
X333950Y302500D01*
X330950D02*X332450D01*
X333200Y303250D01*
X335750Y305500D02*Y303250D01*
X336500Y302500D01*
X337250D01*
X338000Y303250D01*
Y305500D02*Y303250D01*
X338750Y302500D01*
X339500D01*
X340250Y303250D01*
Y305500D02*Y303250D01*
X342050Y307000D02*Y306250D01*
Y304750D02*Y302500D01*
X344300Y304750D02*Y302500D01*
Y304750D02*X345050Y305500D01*
X345800D01*
X346550Y304750D01*
Y302500D01*
X343550Y305500D02*X344300Y304750D01*
X350600Y305500D02*X351350Y304750D01*
X349100Y305500D02*X350600D01*
X348350Y304750D02*X349100Y305500D01*
X348350Y304750D02*Y303250D01*
X349100Y302500D01*
X350600D01*
X351350Y303250D01*
X348350Y301000D02*X349100Y300250D01*
X350600D01*
X351350Y301000D01*
Y305500D02*Y301000D01*
M02*
