G04 start of page 2 for group 13 layer_idx 3 *
G04 Title: (unknown), bottom_silk *
G04 Creator: pcb-rnd 2.1.0 *
G04 CreationDate: 2019-02-14 20:47:18 UTC *
G04 For:  *
G04 Format: Gerber/RS-274X *
G04 PCB-Dimensions: 316500 250000 *
G04 PCB-Coordinate-Origin: lower left *
%MOIN*%
%FSLAX25Y25*%
%LNBOTTOMSILK*%
%ADD11C,0.0100*%
G54D11*X53500Y134500D02*X54500D01*
X54000D02*Y138500D01*
X53500D02*X54500D01*
X56200Y134500D02*Y138000D01*
X56700Y138500D01*
X55700Y136000D02*X56700D01*
X57700Y135500D02*X58700Y134500D01*
X60400Y138500D02*X61900D01*
X62400Y138000D01*
X61900Y137500D02*X62400Y138000D01*
X60400Y137500D02*X61900D01*
X59900Y137000D02*X60400Y137500D01*
X59900Y137000D02*X60400Y136500D01*
X61900D01*
X62400Y137000D01*
X59900Y138000D02*X60400Y138500D01*
X66900Y136500D02*X67400Y137000D01*
X65900Y136500D02*X66900D01*
X65400Y137000D02*X65900Y136500D01*
X65400Y137000D02*Y138000D01*
X65900Y138500D01*
X67400Y136500D02*Y138000D01*
X67900Y138500D01*
X65900D02*X66900D01*
X67400Y138000D01*
X69100Y134500D02*Y138000D01*
X69600Y138500D01*
X70600Y134500D02*Y138000D01*
X71100Y138500D01*
X75400Y136500D02*X75900Y137000D01*
X74400Y136500D02*X75400D01*
X73900Y137000D02*X74400Y136500D01*
X73900Y137000D02*Y138000D01*
X74400Y138500D01*
X75400D01*
X75900Y138000D01*
X73900Y139500D02*X74400Y140000D01*
X75400D01*
X75900Y139500D01*
Y136500D02*Y139500D01*
X77100Y137000D02*Y138000D01*
Y137000D02*X77600Y136500D01*
X78600D01*
X79100Y137000D01*
Y138000D01*
X78600Y138500D02*X79100Y138000D01*
X77600Y138500D02*X78600D01*
X77100Y138000D02*X77600Y138500D01*
X80300Y137000D02*Y138000D01*
Y137000D02*X80800Y136500D01*
X81800D01*
X82300Y137000D01*
Y138000D01*
X81800Y138500D02*X82300Y138000D01*
X80800Y138500D02*X81800D01*
X80300Y138000D02*X80800Y138500D01*
X85500Y134500D02*Y138500D01*
X85000D02*X85500Y138000D01*
X84000Y138500D02*X85000D01*
X83500Y138000D02*X84000Y138500D01*
X83500Y137000D02*Y138000D01*
Y137000D02*X84000Y136500D01*
X85000D01*
X85500Y137000D01*
X88500Y136500D02*Y138000D01*
X89000Y138500D01*
X90000D01*
X90500Y138000D01*
Y136500D02*Y138000D01*
X92200Y137000D02*Y138500D01*
Y137000D02*X92700Y136500D01*
X93200D01*
X93700Y137000D01*
Y138500D01*
X91700Y136500D02*X92200Y137000D01*
X95400Y134500D02*Y138000D01*
X95900Y138500D01*
X94900Y136000D02*X95900D01*
X96900Y135500D02*Y136000D01*
Y137000D02*Y138500D01*
X97900Y134500D02*Y138000D01*
X98400Y138500D01*
X101700D02*X103200D01*
X103700Y138000D01*
X103200Y137500D02*X103700Y138000D01*
X101700Y137500D02*X103200D01*
X101200Y137000D02*X101700Y137500D01*
X101200Y137000D02*X101700Y136500D01*
X103200D01*
X103700Y137000D01*
X101200Y138000D02*X101700Y138500D01*
X104900Y137000D02*Y138000D01*
Y137000D02*X105400Y136500D01*
X106400D01*
X106900Y137000D01*
Y138000D01*
X106400Y138500D02*X106900Y138000D01*
X105400Y138500D02*X106400D01*
X104900Y138000D02*X105400Y138500D01*
X108600Y137000D02*Y138500D01*
Y137000D02*X109100Y136500D01*
X109600D01*
X110100Y137000D01*
Y138500D01*
Y137000D02*X110600Y136500D01*
X111100D01*
X111600Y137000D01*
Y138500D01*
X108100Y136500D02*X108600Y137000D01*
X113300Y138500D02*X114800D01*
X112800Y138000D02*X113300Y138500D01*
X112800Y137000D02*Y138000D01*
Y137000D02*X113300Y136500D01*
X114300D01*
X114800Y137000D01*
X112800Y137500D02*X114800D01*
Y137000D01*
X116000D02*Y138000D01*
Y137000D02*X116500Y136500D01*
X117500D01*
X118000Y137000D01*
Y138000D01*
X117500Y138500D02*X118000Y138000D01*
X116500Y138500D02*X117500D01*
X116000Y138000D02*X116500Y138500D01*
X119700Y137000D02*Y138500D01*
Y137000D02*X120200Y136500D01*
X120700D01*
X121200Y137000D01*
Y138500D01*
X119200Y136500D02*X119700Y137000D01*
X122900Y138500D02*X124400D01*
X122400Y138000D02*X122900Y138500D01*
X122400Y137000D02*Y138000D01*
Y137000D02*X122900Y136500D01*
X123900D01*
X124400Y137000D01*
X122400Y137500D02*X124400D01*
Y137000D01*
X128900Y136500D02*X129400Y137000D01*
X127900Y136500D02*X128900D01*
X127400Y137000D02*X127900Y136500D01*
X127400Y137000D02*Y138000D01*
X127900Y138500D01*
X129400Y136500D02*Y138000D01*
X129900Y138500D01*
X127900D02*X128900D01*
X129400Y138000D01*
X131600Y138500D02*X133100D01*
X133600Y138000D01*
X133100Y137500D02*X133600Y138000D01*
X131600Y137500D02*X133100D01*
X131100Y137000D02*X131600Y137500D01*
X131100Y137000D02*X131600Y136500D01*
X133100D01*
X133600Y137000D01*
X131100Y138000D02*X131600Y138500D01*
X134800Y134500D02*Y138500D01*
Y137000D02*X136300Y138500D01*
X134800Y137000D02*X135800Y136000D01*
X138000Y138500D02*X139500D01*
X140000Y138000D01*
X139500Y137500D02*X140000Y138000D01*
X138000Y137500D02*X139500D01*
X137500Y137000D02*X138000Y137500D01*
X137500Y137000D02*X138000Y136500D01*
X139500D01*
X140000Y137000D01*
X137500Y138000D02*X138000Y138500D01*
X143000Y136500D02*Y138000D01*
X143500Y138500D01*
X145000Y136500D02*Y139500D01*
X144500Y140000D02*X145000Y139500D01*
X143500Y140000D02*X144500D01*
X143000Y139500D02*X143500Y140000D01*
Y138500D02*X144500D01*
X145000Y138000D01*
X146200Y137000D02*Y138000D01*
Y137000D02*X146700Y136500D01*
X147700D01*
X148200Y137000D01*
Y138000D01*
X147700Y138500D02*X148200Y138000D01*
X146700Y138500D02*X147700D01*
X146200Y138000D02*X146700Y138500D01*
X149400Y136500D02*Y138000D01*
X149900Y138500D01*
X150900D01*
X151400Y138000D01*
Y136500D02*Y138000D01*
X154900Y134500D02*Y138000D01*
X155400Y138500D01*
X154400Y136000D02*X155400D01*
X156400Y137000D02*Y138000D01*
Y137000D02*X156900Y136500D01*
X157900D01*
X158400Y137000D01*
Y138000D01*
X157900Y138500D02*X158400Y138000D01*
X156900Y138500D02*X157900D01*
X156400Y138000D02*X156900Y138500D01*
X161900Y135500D02*Y136000D01*
Y137000D02*Y139500D01*
X161400Y140000D02*X161900Y139500D01*
X164400Y136500D02*X164900Y137000D01*
X163400Y136500D02*X164400D01*
X162900Y137000D02*X163400Y136500D01*
X162900Y137000D02*Y138000D01*
X163400Y138500D01*
X164900Y136500D02*Y138000D01*
X165400Y138500D01*
X163400D02*X164400D01*
X164900Y138000D01*
X167100Y137000D02*Y138500D01*
Y137000D02*X167600Y136500D01*
X168100D01*
X168600Y137000D01*
Y138500D01*
Y137000D02*X169100Y136500D01*
X169600D01*
X170100Y137000D01*
Y138500D01*
X166600Y136500D02*X167100Y137000D01*
X171800D02*Y138500D01*
Y137000D02*X172300Y136500D01*
X172800D01*
X173300Y137000D01*
Y138500D01*
Y137000D02*X173800Y136500D01*
X174300D01*
X174800Y137000D01*
Y138500D01*
X171300Y136500D02*X171800Y137000D01*
X55000Y144500D02*X55500Y145000D01*
X54000Y144500D02*X55000D01*
X53500Y145000D02*X54000Y144500D01*
X53500Y145000D02*Y146000D01*
X54000Y146500D01*
X55500Y144500D02*Y146000D01*
X56000Y146500D01*
X54000D02*X55000D01*
X55500Y146000D01*
X59500Y146500D02*X60500D01*
X60000Y142500D02*Y146500D01*
X59000Y143500D02*X60000Y142500D01*
X61700Y146000D02*X62200Y146500D01*
X61700Y143000D02*Y146000D01*
Y143000D02*X62200Y142500D01*
X63200D01*
X63700Y143000D01*
Y146000D01*
X63200Y146500D02*X63700Y146000D01*
X62200Y146500D02*X63200D01*
X61700Y145500D02*X63700Y143500D01*
X64900Y144500D02*Y146000D01*
X65400Y146500D01*
X66400D01*
X66900Y146000D01*
Y144500D02*Y146000D01*
X68100Y142500D02*Y146500D01*
Y142500D02*X70100D01*
X68100Y144500D02*X69600D01*
X73600D02*X75100D01*
X73100Y145000D02*X73600Y144500D01*
X73100Y145000D02*Y146000D01*
X73600Y146500D01*
X75100D01*
X77800Y144500D02*X78300Y145000D01*
X76800Y144500D02*X77800D01*
X76300Y145000D02*X76800Y144500D01*
X76300Y145000D02*Y146000D01*
X76800Y146500D01*
X78300Y144500D02*Y146000D01*
X78800Y146500D01*
X76800D02*X77800D01*
X78300Y146000D01*
X80500Y145000D02*Y148000D01*
X80000Y144500D02*X80500Y145000D01*
X81000Y144500D01*
X82000D01*
X82500Y145000D01*
Y146000D01*
X82000Y146500D02*X82500Y146000D01*
X81000Y146500D02*X82000D01*
X80500Y146000D02*X81000Y146500D01*
X85200Y144500D02*X85700Y145000D01*
X84200Y144500D02*X85200D01*
X83700Y145000D02*X84200Y144500D01*
X83700Y145000D02*Y146000D01*
X84200Y146500D01*
X85700Y144500D02*Y146000D01*
X86200Y146500D01*
X84200D02*X85200D01*
X85700Y146000D01*
X87900Y144500D02*X89400D01*
X87400Y145000D02*X87900Y144500D01*
X87400Y145000D02*Y146000D01*
X87900Y146500D01*
X89400D01*
X90600Y143500D02*Y144000D01*
Y145000D02*Y146500D01*
X92100Y142500D02*Y146000D01*
X92600Y146500D01*
X91600Y144000D02*X92600D01*
X93600Y145000D02*Y146000D01*
Y145000D02*X94100Y144500D01*
X95100D01*
X95600Y145000D01*
Y146000D01*
X95100Y146500D02*X95600Y146000D01*
X94100Y146500D02*X95100D01*
X93600Y146000D02*X94100Y146500D01*
X97300Y145000D02*Y146500D01*
Y145000D02*X97800Y144500D01*
X98800D01*
X96800D02*X97300Y145000D01*
X101800Y143500D02*Y144000D01*
Y145000D02*Y146500D01*
X103300Y145000D02*Y146500D01*
Y145000D02*X103800Y144500D01*
X104300D01*
X104800Y145000D01*
Y146500D01*
X102800Y144500D02*X103300Y145000D01*
X106500Y142500D02*Y146000D01*
X107000Y146500D01*
X106000Y144000D02*X107000D01*
X108000Y145000D02*Y146000D01*
Y145000D02*X108500Y144500D01*
X109500D01*
X110000Y145000D01*
Y146000D01*
X109500Y146500D02*X110000Y146000D01*
X108500Y146500D02*X109500D01*
X108000Y146000D02*X108500Y146500D01*
X114500Y144500D02*X115000Y145000D01*
X113500Y144500D02*X114500D01*
X113000Y145000D02*X113500Y144500D01*
X113000Y145000D02*Y146000D01*
X113500Y146500D01*
X115000Y144500D02*Y146000D01*
X115500Y146500D01*
X113500D02*X114500D01*
X115000Y146000D01*
X119000Y142500D02*Y146000D01*
X119500Y146500D01*
X118500Y144000D02*X119500D01*
X120500Y143500D02*Y144000D01*
Y145000D02*Y146500D01*
X123000Y144500D02*X123500Y145000D01*
X122000Y144500D02*X123000D01*
X121500Y145000D02*X122000Y144500D01*
X121500Y145000D02*Y146000D01*
X122000Y146500D01*
X123000D01*
X123500Y146000D01*
X121500Y147500D02*X122000Y148000D01*
X123000D01*
X123500Y147500D01*
Y144500D02*Y147500D01*
X124700Y142500D02*Y146500D01*
Y145000D02*X125200Y144500D01*
X126200D01*
X126700Y145000D01*
Y146500D01*
X128400Y142500D02*Y146000D01*
X128900Y146500D01*
X127900Y144000D02*X128900D01*
X132200Y146500D02*X133700D01*
X134200Y146000D01*
X133700Y145500D02*X134200Y146000D01*
X132200Y145500D02*X133700D01*
X131700Y145000D02*X132200Y145500D01*
X131700Y145000D02*X132200Y144500D01*
X133700D01*
X134200Y145000D01*
X131700Y146000D02*X132200Y146500D01*
X135900Y145000D02*Y148000D01*
X135400Y144500D02*X135900Y145000D01*
X136400Y144500D01*
X137400D01*
X137900Y145000D01*
Y146000D01*
X137400Y146500D02*X137900Y146000D01*
X136400Y146500D02*X137400D01*
X135900Y146000D02*X136400Y146500D01*
X140600Y144500D02*X141100Y145000D01*
X139600Y144500D02*X140600D01*
X139100Y145000D02*X139600Y144500D01*
X139100Y145000D02*Y146000D01*
X139600Y146500D01*
X141100Y144500D02*Y146000D01*
X141600Y146500D01*
X139600D02*X140600D01*
X141100Y146000D01*
X143300Y144500D02*X144800D01*
X142800Y145000D02*X143300Y144500D01*
X142800Y145000D02*Y146000D01*
X143300Y146500D01*
X144800D01*
X146500D02*X148000D01*
X146000Y146000D02*X146500Y146500D01*
X146000Y145000D02*Y146000D01*
Y145000D02*X146500Y144500D01*
X147500D01*
X148000Y145000D01*
X146000Y145500D02*X148000D01*
Y145000D01*
X149200Y146500D02*X149700D01*
M02*
