G04 start of page 3 for group 3 layer_idx 0 *
G04 Title: (unknown), top_copper *
G04 Creator: pcb-rnd 2.1.0 *
G04 CreationDate: 2019-02-14 20:47:18 UTC *
G04 For:  *
G04 Format: Gerber/RS-274X *
G04 PCB-Dimensions: 316500 250000 *
G04 PCB-Coordinate-Origin: lower left *
%MOIN*%
%FSLAX25Y25*%
%LNTOP*%
%ADD28C,0.0500*%
%ADD27C,0.0320*%
%ADD26C,0.0790*%
%ADD25C,0.0420*%
%ADD24C,0.0280*%
%ADD23C,0.0300*%
%ADD22C,0.0710*%
%ADD21C,0.0650*%
%ADD20C,0.0800*%
%ADD19C,0.2000*%
%ADD18C,0.0720*%
%ADD17C,0.0600*%
%ADD16C,0.0550*%
%ADD15C,0.0001*%
%ADD14C,0.1050*%
%ADD13C,0.0250*%
%ADD12C,0.0400*%
G54D12*X22000Y237500D02*X45000D01*
X75000Y207500D01*
X146500D02*X174000Y235000D01*
X146500Y207500D02*X75000D01*
G54D13*X22000Y161500D02*Y179000D01*
X40000Y177000D02*X50500Y187500D01*
X40000Y161500D02*Y177000D01*
X22000Y179000D02*X13500Y187500D01*
X40000Y161500D02*Y162000D01*
X51500Y42500D02*X39500D01*
G54D12*X40000Y79500D02*Y66500D01*
G54D13*X30000Y109500D02*X42000Y97500D01*
X61500Y32500D02*X51500Y42500D01*
G54D12*X40000Y66500D02*X64000Y42500D01*
G54D13*X42000Y97500D02*X85500D01*
X97500Y85500D01*
Y83000D01*
X125500Y55000D01*
X122000Y32500D02*X61500D01*
G54D12*X122500Y42500D02*X64000D01*
X39500Y22500D02*X16500D01*
X122500Y42500D02*X156500Y8500D01*
X300500Y216000D02*X260000D01*
X300500D02*Y211500D01*
X307000Y205000D01*
Y18000D02*X301500Y12500D01*
X258000D02*X301500D01*
X297500Y59000D02*X291000Y52500D01*
X249500D01*
X307000Y205000D02*Y18000D01*
X297500Y195000D02*Y59000D01*
G54D13*X280500Y197000D02*Y190500D01*
X270500Y180500D01*
Y94500D01*
G54D12*X160000Y166700D02*X160800D01*
X162500Y197500D02*X200300Y166700D01*
X160000D02*X165800D01*
X202500Y197500D02*X213000Y210000D01*
X202500Y197500D02*X199500Y181000D01*
X200300Y166700D02*X212000Y160000D01*
X223000Y210000D02*X212000Y160000D01*
X174000Y235000D02*X241000D01*
X263000Y201000D02*X266500Y204500D01*
X263000Y201000D02*X246000D01*
X260000Y216000D02*X241000Y235000D01*
X200000Y135000D02*X197500D01*
G54D13*X205800Y85500D02*X229000D01*
X208500Y32500D02*X178500D01*
D03*
G54D12*X156500Y8500D02*X205500D01*
G54D13*X162000Y32500D02*X178500D01*
X208500D02*X270500Y94500D01*
G54D12*X205500Y8500D02*X249500Y52500D01*
G54D13*X229000Y75500D02*X186000D01*
X165500Y55000D01*
G54D12*X165800Y166700D02*X197500Y135000D01*
X231000Y189000D02*X234000D01*
X231000D02*X233000Y210000D01*
X246000Y201000D02*X234000Y189000D01*
X266500Y204500D02*X288000D01*
X297500Y195000D01*
G54D14*X22000Y237500D03*
G54D15*G36*
X26750Y192750D02*X37250D01*
Y182250D01*
X26750D01*
Y192750D01*
G37*
G36*
X19250Y164250D02*X24750D01*
Y158750D01*
X19250D01*
Y164250D01*
G37*
G36*
X37250D02*X42750D01*
Y158750D01*
X37250D01*
Y164250D01*
G37*
G54D16*X40000Y121500D03*
G54D14*X32000Y172500D03*
G54D17*X40000Y109500D03*
X30000D03*
X20000D03*
G54D16*X22000Y121500D03*
G54D17*X20000Y79500D03*
X30000D03*
X40000D03*
G54D15*G36*
X36500Y55500D02*X42500D01*
Y49500D01*
X36500D01*
Y55500D01*
G37*
G54D17*X39500Y42500D03*
Y32500D03*
Y22500D03*
G54D15*G36*
X234000Y186000D02*X228000D01*
Y192000D01*
X234000D01*
Y186000D01*
G37*
G54D17*X231000Y179000D03*
G54D18*X233000Y210000D03*
G54D19*X260500Y217000D03*
X300500D03*
G54D20*X270500Y197000D03*
X280500D03*
G54D14*X42000Y237500D03*
X13500Y187500D03*
X50500D03*
Y172500D03*
G54D15*G36*
X47000Y112500D02*X53000D01*
Y106500D01*
X47000D01*
Y112500D01*
G37*
G54D17*X50000Y79500D03*
G54D15*G36*
X72250Y119250D02*Y113750D01*
X66750D01*
Y119250D01*
X72250D01*
G37*
G54D16*X69500Y86500D03*
G54D15*G36*
X65250Y124250D02*Y118750D01*
X59750D01*
Y124250D01*
X65250D01*
G37*
G54D16*X62500Y81500D03*
G54D15*G36*
X93500Y111500D02*X101500D01*
Y103500D01*
X93500D01*
Y111500D01*
G37*
G54D20*X107500Y107500D03*
G54D15*G36*
X93500Y89500D02*X101500D01*
Y81500D01*
X93500D01*
Y89500D01*
G37*
G36*
X99500Y49500D02*X93500D01*
Y55500D01*
X99500D01*
Y49500D01*
G37*
G54D17*X96500Y42500D03*
X69500Y22500D03*
Y32500D03*
Y42500D03*
Y52500D03*
G54D15*G36*
X119250Y35250D02*X124750D01*
Y29750D01*
X119250D01*
Y35250D01*
G37*
G54D16*X162000Y32500D03*
G54D15*G36*
X157750Y26250D02*X163250D01*
Y20750D01*
X157750D01*
Y26250D01*
G37*
G36*
X128250Y52250D02*X122750D01*
Y57750D01*
X128250D01*
Y52250D01*
G37*
G54D16*X165500Y55000D03*
G54D15*G36*
X191500Y67500D02*X199500D01*
Y59500D01*
X191500D01*
Y67500D01*
G37*
G54D20*X205500Y63500D03*
G54D15*G36*
X233000Y89500D02*Y81500D01*
X225000D01*
Y89500D01*
X233000D01*
G37*
G54D20*X229000Y75500D03*
X205800Y85500D03*
G54D15*G36*
X254750Y72750D02*X260250D01*
Y67250D01*
X254750D01*
Y72750D01*
G37*
G54D16*X200500Y23500D03*
X297500Y70000D03*
G54D15*G36*
X295000Y56500D02*Y48500D01*
X287000D01*
Y56500D01*
X295000D01*
G37*
G36*
X262000D02*Y48500D01*
X254000D01*
Y56500D01*
X262000D01*
G37*
G54D20*X291000Y42500D03*
X258000D03*
Y32500D03*
Y22500D03*
Y12500D03*
X291000Y32500D03*
Y22500D03*
Y12500D03*
G54D15*G36*
X159750Y200250D02*X165250D01*
Y194750D01*
X159750D01*
Y200250D01*
G37*
G36*
X112000Y211500D02*X120000D01*
Y203500D01*
X112000D01*
Y211500D01*
G37*
G54D16*X202500Y197500D03*
X199500Y181000D03*
X200000Y166700D03*
G54D15*G36*
X203000Y138000D02*Y132000D01*
X197000D01*
Y138000D01*
X203000D01*
G37*
G54D17*X210000Y135000D03*
G54D15*G36*
X215000Y163000D02*Y157000D01*
X209000D01*
Y163000D01*
X215000D01*
G37*
G54D17*X222000Y160000D03*
G54D15*G36*
X209400Y213600D02*X216600D01*
Y206400D01*
X209400D01*
Y213600D01*
G37*
G54D18*X223000Y210000D03*
G54D15*G36*
X162250Y183750D02*Y178250D01*
X156750D01*
Y183750D01*
X162250D01*
G37*
G36*
X162750Y169450D02*Y163950D01*
X157250D01*
Y169450D01*
X162750D01*
G37*
G36*
X178500Y154000D02*X186500D01*
Y146000D01*
X178500D01*
Y154000D01*
G37*
G54D14*X13500Y172500D03*
G54D15*G36*
X19500Y29500D02*X13500D01*
Y35500D01*
X19500D01*
Y29500D01*
G37*
G54D17*X16500Y22500D03*
G54D21*G54D22*G54D23*G54D22*G54D24*G54D23*G54D24*G54D23*G54D25*G54D26*G54D27*G54D21*G54D22*G54D24*G54D23*G54D28*G54D23*G54D24*G54D23*G54D28*G54D23*G54D12*G54D23*G54D28*G54D23*G54D25*G54D23*G54D28*G54D22*G54D23*M02*
